<svg width="90" height="126" viewBox="0 0 90 126" fill="none" xmlns="http://www.w3.org/2000/svg">
    <path fill-rule="evenodd" clip-rule="evenodd" d="M30.2 29.81C45.88 13.85 64.65 4.45998 86.43 1.47998C88.13 23.92 88.61 45.85 84.34 65.77C79.42 88.74 68.13 108.28 46.81 119.57C35.91 125.35 25.22 125.92 14.67 121.17C6.69002 114.13 2.36002 105.23 1.62002 94.5C-0.0399807 70.56 13.9 46.4 30.2 29.81Z" fill="#F08B33"/>
    <path d="M86.43 1.47998C64.65 4.45998 45.88 13.85 30.2 29.81C13.9 46.4 -0.0399807 70.56 1.62002 94.5C2.36002 105.23 6.69002 114.13 14.67 121.17C25.22 125.92 35.91 125.35 46.81 119.57C68.13 108.28 79.42 88.74 84.34 65.77C88.61 45.85 88.13 23.92 86.43 1.47998ZM86.43 1.47998C48.06 21.17 8.56002 72 14.34 118.79M75.84 56.03C68.24 78.32 58.02 98.97 37.23 112.99M54.65 77.19C50.57 85.8 45.15 93.78 37.95 100.94M65.38 35.08C46.77 63.01 29.68 91.62 14.68 121.18" stroke="#1A1A1A" stroke-width="2.9692" stroke-miterlimit="22.9256" stroke-linecap="round" stroke-linejoin="round"/>
</svg>