<svg width="110" height="123" viewBox="0 0 110 123" fill="none" xmlns="http://www.w3.org/2000/svg">
    <g clip-path="url(#clip0_202_11)">
        <path d="M1.27003 81.0801C1.18003 73.5601 4.00003 67.6401 8.29003 63.4501C10.7 61.1001 13.57 59.3101 16.64 58.1001C19.67 56.9101 22.93 56.2801 26.16 56.2401C32.31 56.1701 38.35 58.2401 42.6 62.6101C44.04 64.0801 45.2 65.6201 46.42 67.2401C47.97 69.2901 49.64 71.51 51.93 73.59C53.62 75.13 55.29 76.3401 56.92 77.2001C58.47 78.0001 60 78.5001 61.52 78.6801H61.53C69.05 79.5401 72.91 73.9001 76.53 68.6001C79.51 64.2401 82.37 60.0501 87.1 58.1701C89.06 57.3901 91.1 57.0301 93.12 57.0801C95.18 57.1401 97.2 57.6101 99.07 58.5001C102.31 60.0401 104.7 62.0101 106.39 64.2801C108.12 66.6001 109.1 69.1901 109.5 71.9201C109.99 75.2501 109.6 78.7701 108.68 82.2601C106.22 91.6101 100.5 100.72 93.44 107.26C89.14 111.24 84.21 114.56 78.91 117.09C72.22 120.28 64.89 122.24 57.45 122.75C50.31 123.24 43.06 122.37 36.15 119.96C27.56 116.96 18.07 111.2 11.2 103.68C5.36003 97.2701 1.37003 89.5601 1.27003 81.0801ZM7.17003 11.8901C10.6 8.39005 14.97 5.63005 19.72 3.73005C22.3 2.70005 24.93 1.88005 27.6 1.28005C38.44 -1.16995 49.63 -0.0499463 59.14 4.27005C68.76 8.63005 76.69 16.2401 80.87 26.6801C81.7 28.7401 82.38 30.9201 82.89 33.2001C83.25 34.7901 83.52 36.4001 83.69 38.0101C83.85 39.5501 83.91 41.1001 83.86 42.6401C83.75 45.7101 83.23 48.7601 82.05 51.4901C80.96 54.0001 79.33 56.2501 76.99 58.0101C75.37 59.2301 73.57 60.2001 71.69 60.8701C68.48 62.0201 64.97 62.3101 61.62 61.4901C58.21 60.6601 55.01 58.7001 52.49 55.3501C51.26 53.7101 50.2 51.7501 49.38 49.4501H49.39C48.17 46.2001 46.69 43.6301 44.97 41.6601C43.32 39.7701 41.44 38.4201 39.37 37.5401C38.09 37.0001 36.75 36.6701 35.34 36.5201C33.88 36.3701 32.33 36.4101 30.66 36.6101C28.94 36.8201 27.15 37.1901 25.26 37.6901C23.31 38.2101 21.32 38.8401 19.26 39.5501C19.05 39.6401 18.82 39.7101 18.58 39.7501C15.29 40.3701 12.42 40.3301 10 39.7601C7.12003 39.0801 4.85003 37.6701 3.21003 35.7501C1.71003 33.9801 0.780027 32.0801 0.330027 30.0801C-0.149973 27.9701 -0.0699734 25.8101 0.450027 23.6801C1.53003 19.1601 3.93003 15.2001 7.17003 11.8901Z" fill="#814832"/>
        <path fill-rule="evenodd" clip-rule="evenodd" d="M4.63003 81.0401C4.38003 60.3301 29.4 53.8901 40.2 64.9501C43.25 68.0701 45.36 72.1401 49.68 76.0701C53.45 79.5001 57.28 81.5801 61.16 82.0201C76.84 83.8101 78.75 65.1101 88.35 61.2901C91.41 60.0701 94.71 60.1501 97.63 61.5401C103.06 64.1301 105.54 68.0101 106.18 72.4101C107.11 78.7401 104.27 86.1601 100.95 92.2901C95.79 101.81 87.35 109.34 77.48 114.04C65.11 119.94 50.49 121.4 37.28 116.78C22.45 111.61 4.83003 97.7601 4.63003 81.0401ZM20.97 6.8501C12.67 10.1801 5.68003 16.3001 3.70003 24.4801C2.93003 27.6401 3.40003 30.7901 5.76003 33.5801C8.02003 36.2401 12.1 37.5501 17.93 36.4501C22.44 34.8901 26.5 33.7101 30.23 33.2601C34 32.8101 37.43 33.0901 40.64 34.4401C45.73 36.5901 49.8 41.0001 52.53 48.3301C56.83 60.3601 68 60.5601 74.96 55.3201C78.9 52.3501 80.31 47.5101 80.49 42.5201C80.59 39.7001 80.25 36.7701 79.61 33.9401C73.74 8.03009 45.06 -2.7999 20.97 6.8501Z" fill="#F9E5A0"/>
        <path d="M14.25 27.5701C13.66 28.2901 12.59 28.3901 11.88 27.7901C11.17 27.1901 11.06 26.1301 11.66 25.4201C14.5 21.9901 17.77 19.6601 21.44 18.4001C25.1 17.1501 29.13 16.9701 33.5 17.8501C34.41 18.0301 35.01 18.9201 34.83 19.8301C34.65 20.7401 33.76 21.3401 32.85 21.1501C29.06 20.3901 25.61 20.5301 22.53 21.5801C19.45 22.6401 16.69 24.6201 14.25 27.5701ZM20.3 73.8301C20.1 72.9201 20.68 72.0201 21.59 71.8301C22.5 71.6301 23.4 72.2101 23.59 73.1201C23.8 74.1001 24.09 75.0601 24.44 75.9901C26.96 82.6401 32.91 88.3001 40.37 91.8501C47.89 95.4301 56.9 96.8501 65.46 94.9801C67.08 94.6301 68.68 94.1601 70.24 93.5701C71.11 93.2401 72.08 93.6801 72.41 94.5501C72.74 95.4201 72.3 96.3901 71.43 96.7201C69.7 97.3801 67.94 97.8901 66.17 98.2801C56.85 100.31 47.06 98.7801 38.91 94.9001C30.7 90.9901 24.12 84.6701 21.28 77.1801C20.88 76.0701 20.55 74.9501 20.3 73.8301ZM86.13 87.0401C85.48 87.7101 84.42 87.7201 83.75 87.0701C83.08 86.4201 83.07 85.3601 83.72 84.6901C85.43 82.9201 86.92 81.0601 88.11 79.0701C89.28 77.1101 90.17 75.0201 90.71 72.7801C90.93 71.8801 91.84 71.3201 92.74 71.5401C93.64 71.7601 94.2 72.6701 93.98 73.5701C93.36 76.1501 92.34 78.5501 91 80.7901C89.66 83.0201 88.02 85.0901 86.13 87.0401Z" fill="#814832"/>
    </g>
    <defs>
        <clipPath id="clip0_202_11">
            <rect width="109.72" height="122.88" fill="white"/>
        </clipPath>
    </defs>
</svg>
