<svg width="123" height="72" viewBox="0 0 123 72" fill="none" xmlns="http://www.w3.org/2000/svg">
    <g clip-path="url(#clip0_202_6)">
        <path fill-rule="evenodd" clip-rule="evenodd" d="M13.37 0H122.88V60.77H115.14L115.68 16.18V15.65C115.68 13.7581 114.929 11.9435 113.592 10.6048C112.255 9.26607 110.442 8.51265 108.55 8.51H13.35V0H13.37ZM0 14.42H109.51V71.26H0V14.42Z" fill="#427D2A"/>
        <path fill-rule="evenodd" clip-rule="evenodd" d="M91.72 23.25C91.7623 25.3688 92.6154 27.3907 94.1037 28.8994C95.5919 30.4081 97.602 31.2888 99.72 31.36V53.85C98.5862 53.851 97.4641 54.0786 96.4196 54.5193C95.375 54.96 94.429 55.605 93.6372 56.4164C92.8454 57.2278 92.2236 58.1892 91.8085 59.2442C91.3934 60.2993 91.1933 61.4266 91.22 62.56H18.42C18.4529 60.3712 17.628 58.2563 16.1218 56.6678C14.6155 55.0794 12.5475 54.1433 10.36 54.06V31.57C12.5924 31.594 14.7431 30.7315 16.3404 29.1718C17.9377 27.612 18.851 25.4823 18.88 23.25H91.72Z" fill="#87CC71"/>
        <path fill-rule="evenodd" clip-rule="evenodd" d="M40.28 35.1801C41.8384 32.2543 44.2295 29.8563 47.1508 28.2895C50.0721 26.7227 53.3925 26.0574 56.6919 26.3778C59.9914 26.6981 63.1217 27.9897 65.6871 30.0892C68.2525 32.1887 70.1376 35.0018 71.1042 38.1727C72.0707 41.3436 72.0752 44.73 71.1171 47.9035C70.1589 51.0769 68.2812 53.895 65.7214 56.0013C63.1616 58.1076 60.0347 59.4075 56.7361 59.7365C53.4375 60.0656 50.1154 59.4091 47.19 57.8501C45.247 56.816 43.5268 55.4092 42.1278 53.71C40.7287 52.0108 39.6783 50.0526 39.0366 47.9472C38.3949 45.8418 38.1744 43.6305 38.3877 41.4399C38.6011 39.2492 39.2441 37.1221 40.28 35.1801Z" fill="#427D2A"/>
        <path d="M55.22 55.38C55.0144 55.3827 54.8103 55.3442 54.6199 55.2668C54.4294 55.1893 54.2563 55.0745 54.1109 54.9291C53.9655 54.7837 53.8507 54.6107 53.7733 54.4202C53.6958 54.2297 53.6573 54.0256 53.66 53.82V52.3C52.7571 52.2491 51.8638 52.0879 51 51.82C50.3327 51.5983 49.684 51.3241 49.06 51C48.8467 50.9081 48.6559 50.7712 48.5005 50.5985C48.3452 50.4259 48.229 50.2218 48.16 50C48.0413 49.5814 48.0624 49.1356 48.22 48.73C48.3761 48.3427 48.6725 48.0285 49.05 47.85C49.2739 47.7632 49.5147 47.7288 49.7539 47.7496C49.9932 47.7704 50.2245 47.8458 50.43 47.97C50.985 48.2511 51.5639 48.482 52.16 48.66C53.0444 48.9103 53.961 49.0283 54.88 49.01C55.762 49.0869 56.6462 48.8877 57.41 48.44C57.6433 48.2797 57.8337 48.0645 57.9644 47.8135C58.0952 47.5624 58.1623 47.2831 58.16 47C58.1642 46.7803 58.1198 46.5623 58.0299 46.3618C57.94 46.1612 57.8069 45.9831 57.64 45.84C57.0914 45.4403 56.4524 45.1826 55.78 45.09L52.94 44.47C49.8 43.8034 48.23 42.1367 48.23 39.47C48.2167 38.7886 48.3409 38.1116 48.5952 37.4793C48.8495 36.847 49.2286 36.2725 49.71 35.79C50.7854 34.7479 52.173 34.0874 53.66 33.91V32.29C53.6565 32.0866 53.6937 31.8846 53.7692 31.6957C53.8448 31.5068 53.9572 31.3349 54.1 31.19C54.2461 31.0425 54.4208 30.9265 54.6134 30.8491C54.806 30.7717 55.0125 30.7346 55.22 30.74C55.4215 30.7353 55.6217 30.7729 55.8078 30.8504C55.9938 30.9279 56.1615 31.0436 56.3 31.19C56.4428 31.3349 56.5552 31.5068 56.6308 31.6957C56.7063 31.8846 56.7435 32.0866 56.74 32.29V33.84C57.4197 33.9297 58.0894 34.0837 58.74 34.3C59.3782 34.5078 59.9841 34.804 60.54 35.18C60.7269 35.2877 60.8904 35.4317 61.0209 35.6034C61.1514 35.7751 61.2463 35.9711 61.3 36.18C61.3914 36.5659 61.3491 36.9714 61.18 37.33C61.0991 37.5072 60.9829 37.6661 60.8385 37.7967C60.694 37.9274 60.5244 38.0272 60.34 38.09C60.1047 38.1582 59.8577 38.1766 59.6149 38.1439C59.3721 38.1111 59.1389 38.0281 58.93 37.9C58.4433 37.6606 57.9342 37.4697 57.41 37.33C56.7565 37.1647 56.0839 37.0873 55.41 37.1C54.5805 37.0497 53.7567 37.267 53.06 37.72C52.7957 37.8942 52.5793 38.132 52.4308 38.4115C52.2823 38.6911 52.2064 39.0035 52.21 39.32C52.2041 39.5366 52.2458 39.7519 52.3322 39.9506C52.4186 40.1493 52.5476 40.3266 52.71 40.47C53.2334 40.8529 53.8399 41.1064 54.48 41.21L57.35 41.83C58.7112 42.0487 59.9774 42.6645 60.99 43.6C61.3825 44.0204 61.6879 44.5142 61.8887 45.0531C62.0895 45.592 62.1817 46.1653 62.16 46.74C62.1818 47.4136 62.0613 48.0842 61.8063 48.708C61.5512 49.3317 61.1675 49.8947 60.68 50.36C59.6038 51.3477 58.2554 51.9888 56.81 52.2V53.82C56.814 54.0235 56.7772 54.2257 56.7016 54.4147C56.626 54.6036 56.5132 54.7755 56.37 54.92C56.232 55.0678 56.0646 55.185 55.8786 55.2642C55.6926 55.3434 55.4921 55.3829 55.29 55.38H55.22Z" fill="white"/>
    </g>
    <defs>
        <clipPath id="clip0_202_6">
            <rect width="122.88" height="71.26" fill="white"/>
        </clipPath>
    </defs>
</svg>
