<svg width="123" height="97" viewBox="0 0 123 97" fill="none" xmlns="http://www.w3.org/2000/svg">
    <g clip-path="url(#clip0_202_16)">
        <path fill-rule="evenodd" clip-rule="evenodd" d="M31.96 0C46.04 0 57.99 12.61 62.25 30.11C61.18 31.05 60.13 32.03 59.1 33.06C49.74 42.42 43.99 53.69 42.28 64.32C41.08 71.73 41.84 78.85 44.66 84.86C41.94 86.49 39.02 87.62 35.97 88.15C41.89 64.78 39.03 53.16 34.6 42.4C30.31 31.98 24.49 20.81 31.06 0.01C31.35 0.01 31.66 0 31.96 0ZM115.57 26.95C128.05 39.43 124.16 63.56 106.88 80.84C90.93 96.79 69.15 101.33 56.08 92.13C76.79 79.79 82.98 69.55 87.46 58.81C91.79 48.41 95.58 36.39 114.93 26.34C115.14 26.53 115.36 26.74 115.57 26.95ZM53.98 90.46C53.64 90.16 53.31 89.85 52.99 89.53C40.51 77.05 44.4 52.92 61.68 35.64C77.96 19.36 100.31 14.97 113.28 24.94C92.53 35.42 86.92 44.22 82.36 55.17C78.08 65.43 73.45 78.58 53.98 90.46ZM33.31 88.46C32.86 88.49 32.41 88.5 31.96 88.5C14.31 88.5 0 68.69 0 44.25C0 21.23 12.7 2.31 28.93 0.2C21.66 22.28 23.92 32.47 28.43 43.43C32.66 53.72 38.68 66.29 33.31 88.46Z" fill="#5E361C"/>
    </g>
    <defs>
        <clipPath id="clip0_202_16">
            <rect width="122.88" height="96.84" fill="white"/>
        </clipPath>
    </defs>
</svg>
