<svg width="108" height="123" viewBox="0 0 108 123" fill="none" xmlns="http://www.w3.org/2000/svg">
    <g clip-path="url(#clip0_202_19)">
        <path fill-rule="evenodd" clip-rule="evenodd" d="M88.17 91.59C88.17 91.17 88.17 90.74 88.17 90.32C88.17 89.9 88.17 89.47 88.18 89.04C88.75 89.01 89.22 88.83 89.58 88.49C89.94 88.16 90.13 87.76 90.17 87.29C90.21 86.76 90.04 86.3 89.67 85.89C89.3 85.49 88.7 85.26 87.9 85.2C87.14 85.14 86.55 85.28 86.12 85.62C85.69 85.96 85.42 86.41 85.33 87C85.22 87.73 85.43 88.41 85.98 89.03C85.78 89.71 85.58 90.39 85.38 91.07C84.24 90.77 83.11 90.47 81.99 90.17C80.88 89.87 79.78 89.57 78.68 89.27C78.96 88.15 79.24 87.03 79.52 85.91C79.8 84.79 80.08 83.67 80.35 82.55C81.06 82.6 81.76 82.66 82.47 82.72C82.3 83.52 82.13 84.32 81.96 85.12C81.79 85.92 81.62 86.72 81.45 87.52C82.15 87.71 82.85 87.89 83.56 88.08C83.39 87.49 83.36 86.91 83.47 86.31C83.57 85.75 83.77 85.23 84.04 84.77C84.31 84.31 84.67 83.9 85.1 83.53C85.96 82.81 86.97 82.49 88.13 82.59C89.1 82.67 89.94 83.05 90.67 83.75C91.17 84.22 91.55 84.77 91.79 85.39C92.03 86.01 92.14 86.7 92.11 87.47C92.08 88.08 91.97 88.63 91.79 89.12C91.6 89.61 91.33 90.03 90.98 90.4C90.27 91.12 89.33 91.52 88.17 91.59ZM6.31 0H82.83C84.56 0 86.14 0.71 87.29 1.85C87.33 1.89 87.37 1.93 87.4 1.98C88.47 3.11 89.14 4.64 89.14 6.31V69.49C88.2 69.43 87.26 69.41 86.33 69.41C86.01 69.41 85.69 69.42 85.37 69.42V6.31C85.37 5.65 85.12 5.05 84.7 4.6L84.62 4.53C84.16 4.07 83.53 3.78 82.83 3.78H6.31C5.61 3.78 4.98 4.06 4.52 4.52H4.51C4.06 4.98 3.78 5.61 3.78 6.31V109.79C3.78 110.45 4.03 111.05 4.45 111.5L4.53 111.57C4.99 112.03 5.62 112.32 6.32 112.32H57.8V113.03C57.8 114.08 57.9 115.1 58.09 116.09H6.31C4.58 116.09 3 115.38 1.85 114.24C1.81 114.2 1.77 114.16 1.74 114.11C0.66 112.98 0 111.46 0 109.79V6.31C0 4.58 0.71 3 1.85 1.86L1.86 1.85C3.01 0.71 4.58 0 6.31 0ZM67.1 19.3H69.28V31.06H67.1V19.3ZM15.53 48.97H26.23C27.14 48.97 27.9 49.72 27.9 50.64V59.67C27.9 60.58 27.15 61.34 26.23 61.34H15.53C14.62 61.34 13.86 60.59 13.86 59.67V50.64C13.87 49.71 14.62 48.97 15.53 48.97ZM15.53 91.88H26.23C27.14 91.88 27.9 92.63 27.9 93.55V102.58C27.9 103.5 27.15 104.25 26.23 104.25H15.53C14.62 104.25 13.86 103.5 13.86 102.58V93.55C13.87 92.63 14.62 91.88 15.53 91.88ZM15.53 70.42H26.23C27.14 70.42 27.9 71.17 27.9 72.09V81.12C27.9 82.03 27.15 82.79 26.23 82.79H15.53C14.62 82.79 13.86 82.04 13.86 81.12V72.09C13.87 71.17 14.62 70.42 15.53 70.42ZM62.93 48.97H73.62C74.53 48.97 75.28 49.72 75.28 50.64V59.67C75.28 60.58 74.53 61.34 73.62 61.34H62.93C62.02 61.34 61.26 60.59 61.26 59.67V50.64C61.26 49.71 62.01 48.97 62.93 48.97ZM62.93 70.42H73.62C74.09 70.42 74.52 70.62 74.83 70.94C69.21 72.51 64.34 75.25 61.27 79.1V72.09C61.26 71.17 62.01 70.42 62.93 70.42ZM39.23 48.97H49.93C50.84 48.97 51.6 49.72 51.6 50.64V59.67C51.6 60.58 50.85 61.34 49.93 61.34H39.23C38.32 61.34 37.56 60.59 37.56 59.67V50.64C37.56 49.71 38.31 48.97 39.23 48.97ZM39.23 91.88H49.93C50.84 91.88 51.6 92.63 51.6 93.55V102.58C51.6 103.5 50.85 104.25 49.93 104.25H39.23C38.32 104.25 37.56 103.5 37.56 102.58V93.55C37.56 92.63 38.31 91.88 39.23 91.88ZM39.23 70.42H49.93C50.84 70.42 51.6 71.17 51.6 72.09V81.12C51.6 82.03 50.85 82.79 49.93 82.79H39.23C38.32 82.79 37.56 82.04 37.56 81.12V72.09C37.56 71.17 38.31 70.42 39.23 70.42ZM14.12 12.32H75.01C75.93 12.32 76.77 12.7 77.37 13.3C77.42 13.35 77.46 13.4 77.51 13.45C78.03 14.04 78.35 14.82 78.35 15.66V34.69C78.35 35.61 77.98 36.44 77.37 37.05L77.36 37.06C76.76 37.66 75.92 38.04 75 38.04H14.12C13.2 38.04 12.36 37.66 11.76 37.06C11.71 37.01 11.66 36.96 11.62 36.91C11.1 36.32 10.78 35.54 10.78 34.7V15.66C10.78 14.75 11.16 13.92 11.76 13.31L11.77 13.3C12.38 12.7 13.21 12.32 14.12 12.32ZM74.58 16.1H14.56V34.26H74.58V16.1ZM106.7 108.08C107.34 109.16 107.69 110.3 107.69 111.48C107.69 117.77 97.96 122.87 85.96 122.87C73.96 122.87 64.23 117.77 64.23 111.48C64.23 110.3 64.58 109.15 65.22 108.08C67.98 112.71 76.23 116.07 85.96 116.07C95.7 116.07 103.94 112.72 106.7 108.08ZM85.96 80.11C95.82 80.11 103.82 83.25 103.82 87.11C103.82 90.98 95.82 94.11 85.96 94.11C76.1 94.11 68.1 90.99 68.1 87.12C68.1 83.25 76.1 80.11 85.96 80.11ZM85.96 77.79C97.96 77.79 107.69 82.89 107.69 89.18C107.69 95.47 97.96 100.57 85.96 100.57C73.96 100.56 64.23 95.46 64.23 89.18C64.23 82.89 73.96 77.79 85.96 77.79ZM106.77 96.77C107.36 97.8 107.68 98.91 107.68 100.04C107.68 106.33 97.95 111.43 85.95 111.43C73.95 111.43 64.22 106.33 64.22 100.04C64.22 98.9 64.54 97.81 65.13 96.77C67.82 101.46 76.12 104.89 85.95 104.89C95.79 104.89 104.1 101.47 106.77 96.77Z" fill="#37F9D6"/>
    </g>
    <defs>
        <clipPath id="clip0_202_19">
            <rect width="107.69" height="122.88" fill="white"/>
        </clipPath>
    </defs>
</svg>
