<svg width="512" height="218" viewBox="0 0 512 218" fill="none" xmlns="http://www.w3.org/2000/svg">
 <g clip-path="url(#clip0_202_22)">
  <path d="M0.299962 143.42L16.04 94.2801C16.2 93.6701 16.46 93.0801 16.81 92.5301C18.68 89.6201 22.56 88.7701 25.47 90.6401L91.49 133.15C131.49 140.5 171.97 146.35 213.06 150.21C254.42 154.11 296.48 156.01 339.39 155.45C367.39 150.49 393.7 144.97 418.72 138.65C443.73 132.33 467.52 125.19 490.47 117.01C491.47 116.6 492.6 116.45 493.75 116.62C497.18 117.14 499.54 120.33 499.03 123.76L491.5 173.18C491.16 175.33 489.72 177.25 487.55 178.08C466.98 186.05 441.73 193.03 414.19 199.43C386.83 205.79 357.11 211.6 327.48 217.25C327.12 217.31 326.76 217.34 326.38 217.35C302.78 217.56 279.31 217.32 256.06 216.35C232.62 215.38 209.39 213.68 186.46 210.98L72.42 194.71C71.55 194.58 70.7 194.28 69.92 193.78L2.87996 150.61C0.549962 149.11 -0.590038 146.18 0.299962 143.42Z" fill="#633816"/>
  <path d="M16.09 93.7L46.24 14.67C47.19 12.22 49.52 10.45 52.3 10.36L347.53 0.010016C349.07 -0.069984 350.66 0.380016 351.97 1.40002C378.12 21.66 395.26 22.97 413.35 24.36C429.51 25.6 446.36 26.9 470.05 39.57C478.48 43.06 486.29 47.57 493.2 53.48C500.29 59.54 506.41 67.04 511.25 76.4C512.01 77.88 512.23 79.65 511.72 81.37L499.07 124.08C498.49 126.01 497.07 127.66 495.05 128.44C474.57 136.4 451.05 143.56 425.3 150.13C399.66 156.67 371.61 162.68 342.02 168.33C341.62 168.4 341.22 168.44 340.81 168.44C317.32 168.65 293.97 168.41 270.84 167.45C247.46 166.47 224.32 164.77 201.54 162.09L88.12 145.83C87.19 145.7 86.28 145.37 85.44 144.83L18.99 101.89C16.2 100.27 14.91 96.82 16.09 93.7Z" fill="#572906"/>
  <path fill-rule="evenodd" clip-rule="evenodd" d="M52.51 17.0601L22.37 96.0901L89.06 139.19L202.33 155.42C247.82 160.79 294.1 162.17 340.76 161.74C399.53 150.5 452.38 137.84 492.64 122.19L505.29 79.4801C496.44 62.3701 483.01 52.1301 467.11 45.6101C416.81 18.5901 398.15 45.6601 347.88 6.70007L52.51 17.0601Z" fill="#D9AF87"/>
  <path d="M68.4 36.31L52.23 66.59L64.17 30.64L130.9 28.42L68.4 36.31Z" fill="#572906"/>
  <path fill-rule="evenodd" clip-rule="evenodd" d="M362.55 122.77C358.69 124.25 356.63 126.51 356.29 129.52L450.47 121.14C447.71 117.12 443.14 114.83 435.25 115.72L435.1 115.74C435.71 108.99 435.74 102.6 434.75 96.84C433.72 90.8 431.57 85.44 427.8 81.07C427.6 80.82 427.3 80.66 426.96 80.63C426.3 80.59 425.73 81.08 425.69 81.74C425.25 88.1 425.7 94.49 426.13 100.75L426.22 101.96C426.33 103.6 426.48 104.96 426.62 106.15C426.99 109.37 427.22 111.39 425.99 114.97C423.98 106.94 422.41 98.84 421.33 90.61C420.16 81.8 419.54 72.83 419.47 63.62C419.46 62.96 418.92 62.43 418.25 62.43C417.65 62.44 417.16 62.89 417.08 63.47C416.01 69.22 415.23 75.11 414.78 81.16C414.34 87.23 414.23 93.45 414.48 99.84C414.48 99.89 414.49 99.94 414.49 99.98L415.08 104.7C411.91 96.73 409.08 88.64 407.46 80.5C405.3 69.64 405.27 58.68 409.35 47.76C409.59 47.15 409.27 46.46 408.65 46.23C408.13 46.04 407.56 46.24 407.25 46.68C402.67 53.43 400.07 62.22 399.5 73.09C398.92 83.84 400.32 96.64 403.71 111.51C403.72 111.53 403.72 111.56 403.74 111.58L405.73 118.38L397 119.15L397.93 110.6C397.94 110.57 397.93 110.55 397.94 110.52C398.78 92.32 397.72 76.97 394.79 64.45C391.82 51.82 386.93 42.05 380.14 35.1C379.76 34.72 379.16 34.63 378.68 34.91C378.11 35.25 377.92 35.97 378.26 36.54C385.41 48.57 387.69 61.52 387.44 74.81C387.24 85.34 385.44 96.08 383.21 106.74L382.81 99.24C382.81 99.2 382.8 99.15 382.8 99.1C381.75 91.53 380.3 84.23 378.5 77.19C376.7 70.17 374.54 63.4 372.06 56.87C371.88 56.31 371.32 55.95 370.73 56.06C370.08 56.17 369.64 56.78 369.74 57.44C371.61 68.29 372.78 79.01 373.26 89.63C373.73 99.84 373.58 110 372.86 120.17C369.63 115.31 369.6 112.79 369.55 108.32C369.54 107.13 369.52 105.8 369.44 104.14C369.26 100.21 368.84 96.25 368.24 92.32C367.63 88.25 366.79 84.19 365.79 80.18C365.63 79.54 364.98 79.16 364.34 79.32C364.01 79.4 363.75 79.62 363.59 79.89C360.11 85.79 358.71 92.52 358.78 99.81C358.84 107 360.3 114.73 362.55 122.77Z" fill="#4C8E1E"/>
  <path fill-rule="evenodd" clip-rule="evenodd" d="M428.38 115.37L432.75 115.17C433.32 108.76 433.33 102.69 432.4 97.2399C431.63 92.7499 430.22 88.6699 427.92 85.1699C427.8 90.3099 428.16 95.4899 428.51 100.59L428.6 101.79C428.71 103.38 428.85 104.71 428.99 105.88C429.38 109.35 429.63 111.56 428.38 115.37ZM382.66 119.53L394.67 118.46L395.56 110.32C396.39 92.3799 395.36 77.2699 392.47 64.9799C390.79 57.8499 388.5 51.6699 385.57 46.4399C388.89 55.6199 390.02 65.1499 389.83 74.8499C389.58 88.4299 386.72 102.31 383.66 115.9C383.55 116.41 383.11 116.8 382.56 116.83C381.91 116.87 381.35 116.36 381.31 115.71L380.45 99.3899C379.42 91.9299 377.99 84.7299 376.21 77.7899C375.54 75.1499 374.81 72.5499 374.04 69.9799C374.83 76.5199 375.37 83.0199 375.67 89.5099C376.15 99.7799 376 109.98 375.28 120.18L382.66 119.53ZM364.61 121.23L370.25 120.49C367.27 115.69 367.23 112.96 367.18 108.35C367.17 107.12 367.15 105.73 367.08 104.25C366.9 100.42 366.5 96.5399 365.9 92.6699C365.45 89.7099 364.89 86.7599 364.23 83.8499C362.03 88.6599 361.13 94.0299 361.18 99.7899C361.22 106.49 362.55 113.71 364.61 121.23ZM407.93 117.3L417.81 116.42H417.82L423.76 115.89C421.69 107.67 420.08 99.3599 418.96 90.9099C418.34 86.2699 417.88 81.5999 417.56 76.8699C417.41 78.3499 417.28 79.8399 417.17 81.3299C416.73 87.2999 416.62 93.4199 416.87 99.7099L418.57 113.25C418.65 113.9 418.19 114.5 417.54 114.58C416.99 114.65 416.49 114.34 416.29 113.86C411.76 103.12 407.36 92.1099 405.13 80.9499C403.71 73.7899 403.17 66.5699 404.08 59.3299C402.9 63.4699 402.16 68.0899 401.89 73.1999C401.33 83.7199 402.7 96.2699 406.03 110.89L407.93 117.3Z" fill="#69C229"/>
  <path fill-rule="evenodd" clip-rule="evenodd" d="M105.47 121.22C101.55 121.81 99.15 123.51 98.22 126.26L188.18 137.63C186.41 133.3 182.59 130.22 175.02 129.45L174.87 129.43C176.82 123.24 178.16 117.26 178.4 111.66C178.67 105.79 177.75 100.32 175.11 95.46C174.97 95.19 174.73 94.97 174.41 94.88C173.8 94.71 173.17 95.05 173 95.66C171.29 101.53 170.4 107.6 169.53 113.56L169.36 114.71C169.14 116.27 169 117.57 168.89 118.72C168.58 121.81 168.38 123.76 166.5 126.85C166.25 118.92 166.44 111.01 167.1 103.08C167.81 94.59 169.05 86.05 170.86 77.41C171.15 76.04 169.14 75.46 168.66 76.79C166.48 81.95 164.55 87.31 162.9 92.89C161.24 98.48 159.87 104.29 158.8 110.33C158.79 110.38 158.79 110.42 158.78 110.47L158.37 115.01C157.02 106.89 156.03 98.73 156.17 90.78C156.36 80.16 158.57 69.88 164.62 60.49C165.35 59.37 163.86 58.13 162.87 59.05C157.2 64.44 152.98 72.14 150.22 82.21C147.49 92.16 146.18 104.44 146.33 119.07C146.33 119.09 146.33 119.11 146.34 119.14L146.82 125.91L138.48 124.86L141.1 117.03C141.11 117.01 141.11 116.99 141.12 116.96C145.63 100.08 147.77 85.48 147.57 73.16C147.36 60.72 144.78 50.57 139.83 42.67C139.13 41.54 137.35 42.36 137.78 43.63C142.02 56.36 141.52 68.96 138.57 81.36C136.23 91.18 132.36 100.88 128.09 110.41L129.25 103.31C129.26 103.26 129.26 103.22 129.27 103.17C129.83 95.86 129.96 88.73 129.71 81.77C129.46 74.82 128.81 68.04 127.83 61.41C127.69 60.02 125.62 60.07 125.54 61.47C125.07 72.03 123.98 82.3 122.26 92.35C120.62 102.01 118.41 111.5 115.65 120.88C113.63 115.67 114.11 113.31 114.98 109.11C115.21 107.99 115.46 106.74 115.73 105.17C116.35 101.45 116.77 97.65 117.02 93.85C117.27 89.91 117.32 85.93 117.19 81.98C117.16 80.94 115.87 80.49 115.19 81.26C110.72 86.07 108.05 92.09 106.61 98.94C105.2 105.68 105 113.23 105.47 121.22Z" fill="#4C8E1E"/>
  <path fill-rule="evenodd" clip-rule="evenodd" d="M168.65 127.72L172.79 128.42C174.63 122.53 175.88 116.85 176.12 111.55C176.32 107.18 175.82 103.08 174.38 99.33C173.22 104.12 172.5 109.04 171.79 113.89L171.63 115.04C171.41 116.55 171.27 117.82 171.16 118.95C170.82 122.28 170.61 124.4 168.65 127.72ZM124.97 122.28L136.44 123.73L138.94 116.29C143.38 99.65 145.49 85.28 145.29 73.18C145.18 66.15 144.29 59.89 142.61 54.4C143.84 63.67 142.96 72.84 140.81 81.88C137.79 94.56 132.28 106.98 126.65 119.09C126.44 119.54 125.95 119.82 125.43 119.74C124.81 119.63 124.39 119.05 124.49 118.43L127.01 102.96C127.57 95.76 127.7 88.73 127.45 81.86C127.35 79.25 127.2 76.67 127 74.1C126.41 80.39 125.59 86.59 124.55 92.73C122.9 102.45 120.67 111.98 117.92 121.39L124.97 122.28ZM107.71 120.2L113.15 120.65C111.33 115.55 111.85 112.98 112.75 108.65C112.99 107.49 113.25 106.19 113.49 104.79C114.1 101.16 114.52 97.44 114.75 93.7C114.93 90.83 115.01 87.96 114.98 85.09C111.94 89.15 110.01 94 108.87 99.41C107.55 105.7 107.31 112.73 107.71 120.2ZM149.1 125.35L158.53 126.54H158.55L164.22 127.26C163.95 119.14 164.15 111.02 164.82 102.88C165.19 98.4 165.7 93.93 166.37 89.44C165.93 90.8 165.5 92.16 165.1 93.54C163.47 99.04 162.11 104.75 161.07 110.69L159.89 123.73C159.84 124.36 159.28 124.82 158.65 124.77C158.13 124.71 157.72 124.33 157.64 123.83C155.58 112.84 153.71 101.64 153.9 90.73C154.02 83.72 154.99 76.85 157.32 70.25C155.37 73.89 153.74 78.07 152.44 82.8C149.77 92.54 148.49 104.58 148.63 118.96L149.1 125.35Z" fill="#69C229"/>
  <path fill-rule="evenodd" clip-rule="evenodd" d="M244.39 135.85C240.91 136.84 238.93 138.66 238.41 141.26H321.24C319.15 137.54 315.33 135.18 308.38 135.35H308.25C309.3 129.52 309.83 123.94 309.41 118.84C308.98 113.48 307.52 108.64 304.57 104.53C304.42 104.3 304.17 104.13 303.87 104.09C303.3 104 302.76 104.38 302.68 104.96C301.8 110.47 301.69 116.08 301.58 121.58L301.56 122.64C301.54 124.08 301.56 125.28 301.59 126.33C301.67 129.16 301.71 130.95 300.36 133.97C299.22 126.81 298.49 119.62 298.18 112.35C297.85 104.58 298 96.7 298.65 88.66C298.7 88.08 298.27 87.58 297.69 87.53C297.16 87.49 296.7 87.84 296.58 88.35C295.2 93.27 294.06 98.36 293.2 103.6C292.34 108.86 291.76 114.28 291.49 119.88C291.49 119.92 291.49 119.96 291.49 120L291.63 124.17C289.48 116.96 287.65 109.68 286.87 102.46C285.82 92.81 286.64 83.24 291.06 74.03C291.31 73.52 291.09 72.89 290.57 72.65C290.12 72.44 289.61 72.56 289.31 72.93C284.78 78.46 281.84 85.93 280.49 95.37C279.16 104.71 279.38 115.99 281.18 129.23C281.18 129.25 281.19 129.27 281.2 129.29L282.41 135.37H274.73L276.21 127.98C276.22 127.96 276.22 127.94 276.22 127.91C278.37 112.1 278.64 98.62 277.05 87.47C275.44 76.22 271.94 67.31 266.55 60.72C266.25 60.36 265.73 60.23 265.29 60.44C264.77 60.69 264.55 61.31 264.8 61.83C270.1 72.88 271.09 84.36 269.83 95.94C268.84 105.11 266.44 114.34 263.66 123.47L263.9 116.9C263.9 116.86 263.9 116.81 263.9 116.77C263.57 110.08 262.88 103.6 261.85 97.32C260.83 91.05 259.46 84.98 257.81 79.08C257.7 78.58 257.23 78.23 256.71 78.28C256.13 78.32 255.7 78.82 255.74 79.4C256.53 89.02 256.71 98.46 256.31 107.77C255.93 116.71 255.01 125.56 253.59 134.38C251.15 129.89 251.32 127.7 251.62 123.79C251.71 122.75 251.79 121.59 251.85 120.13C251.99 116.69 251.94 113.2 251.73 109.72C251.5 106.12 251.09 102.52 250.53 98.94C250.44 98.37 249.9 97.99 249.33 98.07C249.04 98.12 248.79 98.29 248.63 98.52C245.13 103.39 243.39 109.16 242.88 115.53C242.37 121.8 243.06 128.67 244.39 135.85Z" fill="#4C8E1E"/>
  <path fill-rule="evenodd" clip-rule="evenodd" d="M302.41 134.51L306.24 134.67C307.23 129.12 307.72 123.83 307.33 119C307 115.02 306.09 111.35 304.35 108.13C303.85 112.59 303.76 117.14 303.67 121.62L303.65 122.68C303.63 124.08 303.65 125.24 303.68 126.28C303.75 129.33 303.8 131.28 302.41 134.51ZM262.19 134.58H272.76L274.17 127.55C276.28 111.96 276.55 98.7 274.99 87.75C274.08 81.4 272.56 75.82 270.41 71.03C272.59 79.3 272.84 87.71 271.92 96.15C270.64 107.99 267.07 119.88 263.35 131.5C263.21 131.94 262.79 132.24 262.32 132.23C261.74 132.2 261.29 131.72 261.31 131.15L261.83 116.84C261.51 110.25 260.82 103.86 259.81 97.66C259.42 95.31 258.99 92.98 258.51 90.68C258.7 96.45 258.67 102.17 258.43 107.85C258.04 116.85 257.12 125.74 255.7 134.58H262.19ZM246.31 134.67L251.29 134.46C249.06 130.04 249.24 127.66 249.55 123.63C249.64 122.55 249.73 121.34 249.78 120.04C249.92 116.69 249.87 113.27 249.66 109.85C249.49 107.23 249.23 104.61 248.88 102.02C246.59 106.05 245.39 110.66 244.98 115.7C244.5 121.55 245.09 127.95 246.31 134.67ZM284.41 134.6H293.1H293.12H298.34C297.17 127.27 296.41 119.9 296.09 112.43C295.91 108.33 295.87 104.22 295.96 100.08C295.71 101.36 295.48 102.65 295.27 103.94C294.42 109.11 293.85 114.44 293.58 119.95L294.01 131.9C294.03 132.48 293.58 132.96 293.01 132.98C292.53 132.99 292.11 132.69 291.98 132.25C288.86 122.52 285.88 112.58 284.8 102.67C284.11 96.31 284.2 89.97 285.56 83.72C284.2 87.24 283.21 91.22 282.57 95.65C281.27 104.79 281.49 115.85 283.25 128.87L284.41 134.6Z" fill="#69C229"/>
 </g>
 <defs>
  <clipPath id="clip0_202_22">
   <rect width="512" height="217.42" fill="white"/>
  </clipPath>
 </defs>
</svg>
