<svg width="467" height="513" viewBox="0 0 467 513" fill="none" xmlns="http://www.w3.org/2000/svg">
    <g clip-path="url(#clip0_202_36)">
        <path d="M216.708 229.969C270.742 230.442 329.783 221.047 401.649 204.026C404.758 203.313 408.077 204.774 409.564 207.748C416.606 221.766 422.39 250.858 426.789 283.889C432.639 327.819 436.181 379.215 436.949 410.71C437.139 418.565 436.736 423.805 436.44 427.642C436.207 430.702 436.066 432.553 436.201 432.872C436.371 433.279 439.244 434.595 446.446 437.888L447.237 438.249C457.076 442.75 463.021 448.695 465.627 457.276C467.998 465.076 467.23 474.589 463.858 486.916C463.488 488.47 462.602 489.852 461.343 490.836C460.085 491.819 458.529 492.346 456.932 492.329L398.698 491.545C355.405 500.33 317.426 507.112 280.416 510.359C242.911 513.651 206.173 513.372 165.644 507.975C145.796 505.336 126.382 502.116 107.811 499.043C92.96 496.587 78.637 494.214 65.22 492.316C56.938 491.148 47.546 491.755 38.354 492.352C28.67 492.979 19.176 493.596 10.424 492.29C9.17732 492.1 8.00382 491.581 7.02454 490.787C6.04526 489.992 5.29565 488.951 4.85302 487.77C-0.98398 472.144 -1.25598 461.087 2.44102 452.979C6.40902 444.283 14.285 439.637 24.504 436.9C30.111 435.399 30.082 435.173 29.763 432.655C29.399 429.776 28.916 426.011 28.745 420.945C27.521 384.562 29.477 339.483 33.85 298.209C37.98 259.209 44.293 223.398 52.148 201.147L52.312 200.733C53.832 197.155 57.972 195.491 61.55 197.01C113.835 219.248 162.935 229.5 216.708 229.969Z" fill="#7E4A27"/>
        <path fill-rule="evenodd" clip-rule="evenodd" d="M403.279 210.893C258.603 245.159 165.116 248.718 58.794 203.491C42.944 248.39 33.424 350.856 35.778 420.727C36.416 439.709 41.73 439.588 26.323 443.713C9.77 448.148 1.211 457.912 11.444 485.313C27.741 487.746 48.409 482.829 66.185 485.34C96.446 489.617 131.36 496.315 166.555 501C246.39 511.632 311.566 502.073 398.049 484.502L457.014 485.297C463.16 462.987 460.123 451.879 444.316 444.646C422.996 434.899 430.597 438.72 429.916 410.872C428.586 356.414 418.916 242.027 403.279 210.893Z" fill="#B58353"/>
        <path d="M125.63 67.183L334.401 74.976L335.199 75.048L339.7 75.725C351.068 77.471 363.77 79.431 375.253 81.643L379.477 82.474C391.319 84.779 401.246 86.778 410.06 95.599C417.183 102.739 423.266 115.052 427.665 128.154C432.701 143.147 435.669 159.56 435.482 170.282C435.295 180.967 433.358 190.268 429.12 197.723C424.586 205.69 417.633 211.412 407.693 214.314C374.34 222.478 339.149 232.665 305.434 238.183C291.227 240.508 276.911 242.107 262.542 242.976C236.903 244.519 210.122 243.701 183.588 240.763C156.695 237.783 129.993 232.612 104.939 225.512L103.153 225.006C83.344 219.415 35.144 205.805 26.31 185.774C21.52 174.907 22.863 160.805 27.143 146.475C32.898 127.222 44.023 107.134 51.991 94.959C56.163 88.584 61.117 82.852 67.433 78.515L67.692 78.348C74.058 74.044 81.634 71.244 90.911 70.732C96.253 70.032 101.997 69.389 107.693 68.818C113.093 68.273 119.157 67.715 124.744 67.209L125.63 67.183Z" fill="#7E4A27"/>
        <path fill-rule="evenodd" clip-rule="evenodd" d="M125.38 74.234L334.152 82.028C346.623 83.955 361.291 86.144 373.926 88.584C386.496 91.124 396.837 92.349 405.054 100.575C418.759 114.311 428.759 151.662 428.43 170.17C428.095 189.224 421.796 202.844 405.73 207.538L345.937 222.166C318.546 229.614 290.462 234.224 262.128 235.924C211.327 238.987 155.877 232.606 106.846 218.71C89.277 213.733 40.524 200.48 32.78 182.924C22.991 160.729 44.818 118.828 57.909 98.829C65.355 87.454 75.289 78.607 91.492 77.77C102.017 76.378 114.724 75.199 125.38 74.234Z" fill="#AA7647"/>
        <path d="M58.346 91.814C58.12 87.934 61.084 84.5949 64.964 84.3679C68.845 84.1419 72.183 87.106 72.41 90.986C72.511 92.631 73.657 94.446 75.814 96.41C78.811 99.141 83.41 101.83 89.559 104.452C105.28 111.166 126.963 116.52 149.647 120.531C178.703 125.672 209.154 128.587 231.023 129.379C249.811 130.055 268.769 129.598 288.886 127.96C308.986 126.325 330.141 123.502 353.343 119.458C368.178 116.871 371.445 112.4 375.147 107.328C379.317 101.613 383.886 95.349 396.817 89.522C398.521 88.7552 400.46 88.6961 402.207 89.3578C403.955 90.0195 405.368 91.3478 406.137 93.051C407.736 96.596 406.153 100.772 402.608 102.371C392.999 106.701 389.602 111.356 386.506 115.601C380.997 123.144 376.149 129.789 355.713 133.351C332.032 137.477 310.461 140.36 289.989 142.024C269.537 143.691 250.057 144.148 230.525 143.442C207.978 142.628 176.772 139.654 147.217 134.424C123.621 130.252 100.878 124.602 84.044 117.413C76.411 114.156 70.486 110.624 66.326 106.829C61.37 102.312 58.688 97.302 58.346 91.814Z" fill="#7E4A27"/>
        <path d="M349.309 134.999C305.26 142.194 261.189 144.059 217.045 140.986C172.905 137.911 128.657 129.901 84.264 117.35C80.518 116.303 78.335 112.413 79.382 108.667C79.7134 107.473 80.356 106.389 81.244 105.526C101.83 82.648 124.544 63.926 148.127 44.489L159.154 35.327C181.01 17.038 203.839 -2.06701 229.914 0.180994C249.88 1.90099 293.117 36.801 312.095 52.118L315.227 54.643C327.625 64.6001 339.64 75.025 351.246 85.895L353.439 87.927C361.156 95.077 368.681 102.204 370.476 114.435C372.741 129.911 366.012 132.642 355.789 134.135L349.309 134.999Z" fill="#7E4A27"/>
        <path fill-rule="evenodd" clip-rule="evenodd" d="M348.18 128.053C261.22 142.261 174.037 135.411 86.165 110.567C107.777 86.475 132.025 66.897 157.159 46.157C179.898 27.388 203.679 4.999 229.338 7.214C248.255 8.847 294.489 47.003 310.816 60.127C323.081 69.9814 334.972 80.2919 346.464 91.037C353.969 98.058 361.897 104.566 363.502 115.456C365.294 127.687 357.622 126.512 348.18 128.053Z" fill="#F8D667"/>
        <path fill-rule="evenodd" clip-rule="evenodd" d="M294.109 110.637C294.798 110.637 295.471 110.842 296.043 111.224C296.616 111.607 297.062 112.151 297.325 112.787C297.589 113.423 297.657 114.123 297.523 114.799C297.389 115.474 297.057 116.094 296.57 116.581C296.083 117.068 295.463 117.4 294.788 117.534C294.112 117.668 293.412 117.6 292.776 117.336C292.14 117.073 291.596 116.627 291.213 116.054C290.831 115.482 290.626 114.809 290.626 114.12C290.625 113.662 290.715 113.209 290.89 112.786C291.065 112.364 291.321 111.979 291.645 111.656C291.969 111.332 292.353 111.076 292.775 110.901C293.198 110.726 293.651 110.636 294.109 110.637ZM209.032 42.296C209.472 42.2883 209.908 42.3683 210.317 42.5312C210.725 42.6942 211.097 42.9368 211.41 43.245C211.724 43.5531 211.973 43.9207 212.143 44.3261C212.313 44.7316 212.401 45.1668 212.401 45.6065C212.401 46.0461 212.313 46.4814 212.143 46.8868C211.973 47.2923 211.724 47.6598 211.41 47.968C211.097 48.2761 210.725 48.5187 210.317 48.6817C209.908 48.8446 209.472 48.9246 209.032 48.917C208.597 48.9174 208.166 48.832 207.764 48.6657C207.362 48.4994 206.997 48.2554 206.689 47.9478C206.382 47.6402 206.138 47.2749 205.971 46.8729C205.805 46.4709 205.72 46.04 205.72 45.605C205.72 45.1702 205.806 44.7396 205.972 44.338C206.139 43.9363 206.383 43.5714 206.69 43.2641C206.998 42.9568 207.363 42.7131 207.765 42.547C208.167 42.3809 208.597 42.2956 209.032 42.296ZM249.9 76.601C250.335 76.6011 250.765 76.6869 251.167 76.8535C251.569 77.0201 251.934 77.2642 252.241 77.5719C252.548 77.8795 252.792 78.2447 252.958 78.6466C253.124 79.0485 253.209 79.4791 253.209 79.914C253.209 80.3485 253.124 80.7789 252.957 81.1804C252.791 81.5819 252.547 81.9468 252.24 82.2541C251.933 82.5614 251.568 82.8051 251.166 82.9713C250.765 83.1376 250.335 83.2231 249.9 83.223C249.022 83.223 248.18 82.8741 247.559 82.2532C246.938 81.6323 246.589 80.7901 246.589 79.912C246.589 79.0338 246.938 78.1917 247.559 77.5707C248.18 76.9498 249.022 76.601 249.9 76.601ZM215.726 95.92C216.358 95.9201 216.983 96.0447 217.567 96.2867C218.151 96.5286 218.681 96.8832 219.128 97.3302C219.574 97.7772 219.928 98.3077 220.17 98.8916C220.411 99.4754 220.535 100.101 220.535 100.733C220.535 101.365 220.411 101.99 220.169 102.574C219.928 103.157 219.574 103.687 219.127 104.134C218.68 104.581 218.15 104.935 217.567 105.176C216.983 105.418 216.358 105.542 215.726 105.542C215.086 105.555 214.45 105.44 213.855 105.204C213.26 104.968 212.717 104.616 212.26 104.168C211.803 103.72 211.44 103.185 211.192 102.595C210.944 102.005 210.816 101.371 210.816 100.731C210.816 100.091 210.944 99.457 211.192 98.8669C211.44 98.2767 211.803 97.7419 212.26 97.2939C212.717 96.8458 213.26 96.4935 213.855 96.2576C214.45 96.0217 215.086 95.9069 215.726 95.92ZM213.973 64.708C214.408 64.7078 214.838 64.7934 215.24 64.9599C215.642 65.1263 216.007 65.3703 216.314 65.6779C216.622 65.9855 216.865 66.3507 217.031 66.7526C217.197 67.1545 217.283 67.5851 217.282 68.02C217.29 68.4595 217.21 68.8963 217.047 69.3046C216.884 69.7129 216.641 70.0847 216.333 70.3983C216.025 70.7119 215.657 70.9609 215.252 71.1309C214.846 71.3009 214.411 71.3885 213.972 71.3885C213.532 71.3885 213.097 71.3009 212.691 71.1309C212.286 70.9609 211.918 70.7119 211.61 70.3983C211.302 70.0847 211.059 69.7129 210.896 69.3046C210.733 68.8963 210.653 68.4595 210.661 68.02C210.66 67.5849 210.746 67.154 210.912 66.7519C211.078 66.3498 211.322 65.9845 211.63 65.6769C211.938 65.3692 212.303 65.1253 212.705 64.959C213.107 64.7927 213.538 64.7074 213.973 64.708ZM188.62 76.28C189.252 76.2797 189.877 76.4039 190.461 76.6455C191.044 76.8871 191.574 77.2413 192.021 77.6879C192.468 78.1345 192.822 78.6648 193.063 79.2483C193.305 79.8319 193.429 80.4574 193.429 81.089C193.43 82.0409 193.148 82.9717 192.619 83.7635C192.091 84.5553 191.339 85.1725 190.46 85.5371C189.58 85.9017 188.613 85.9972 187.679 85.8116C186.745 85.6261 185.888 85.1677 185.214 84.4946C184.541 83.8214 184.083 82.9637 183.897 82.03C183.712 81.0963 183.807 80.1285 184.172 79.2491C184.536 78.3697 185.154 77.6182 185.945 77.0897C186.737 76.5612 187.668 76.2794 188.62 76.28ZM130.745 100.086C131.083 100.086 131.417 100.153 131.729 100.282C132.041 100.412 132.325 100.601 132.563 100.84C132.802 101.079 132.991 101.363 133.12 101.675C133.249 101.988 133.315 102.322 133.315 102.66C133.315 103.342 133.044 103.996 132.562 104.479C132.079 104.961 131.425 105.232 130.743 105.232C130.061 105.232 129.407 104.961 128.924 104.479C128.442 103.996 128.171 103.342 128.171 102.66C128.171 101.977 128.442 101.323 128.925 100.84C129.408 100.357 130.062 100.086 130.745 100.086ZM151.377 96.879C152.015 96.8696 152.648 96.987 153.24 97.2245C153.832 97.462 154.37 97.8148 154.825 98.2624C155.279 98.7099 155.64 99.2433 155.886 99.8316C156.133 100.42 156.26 101.051 156.26 101.689C156.26 102.327 156.133 102.958 155.887 103.547C155.641 104.135 155.281 104.669 154.827 105.116C154.373 105.564 153.834 105.917 153.243 106.155C152.651 106.393 152.018 106.511 151.38 106.502C150.116 106.484 148.91 105.97 148.022 105.07C147.134 104.169 146.636 102.956 146.636 101.692C146.635 100.428 147.133 99.2142 148.02 98.3135C148.907 97.4129 150.113 96.8976 151.377 96.879ZM177.495 106.438C177.93 106.438 178.361 106.523 178.763 106.69C179.165 106.856 179.53 107.1 179.838 107.408C180.145 107.716 180.389 108.081 180.555 108.483C180.722 108.885 180.807 109.316 180.807 109.751C180.807 110.407 180.613 111.047 180.249 111.593C179.885 112.138 179.367 112.563 178.761 112.814C178.156 113.065 177.489 113.13 176.846 113.002C176.203 112.874 175.613 112.559 175.149 112.095C174.686 111.631 174.37 111.041 174.243 110.398C174.115 109.755 174.181 109.088 174.432 108.483C174.683 107.877 175.108 107.36 175.653 106.996C176.198 106.632 176.839 106.438 177.495 106.438ZM161.695 73.125C162.434 73.1248 163.157 73.3438 163.772 73.7543C164.386 74.1649 164.865 74.7485 165.148 75.4314C165.431 76.1143 165.505 76.8658 165.361 77.5908C165.217 78.3158 164.861 78.9817 164.338 79.5044C163.816 80.0271 163.15 80.383 162.425 80.5272C161.7 80.6714 160.948 80.5973 160.265 80.3143C159.583 80.0313 158.999 79.5522 158.588 78.9375C158.178 78.3228 157.959 77.6002 157.959 76.861C157.959 76.3703 158.055 75.8843 158.243 75.431C158.431 74.9776 158.706 74.5656 159.053 74.2186C159.4 73.8717 159.812 73.5965 160.265 73.4088C160.718 73.2212 161.204 73.1247 161.695 73.125ZM242.579 40.96C242.958 40.9593 243.334 41.0335 243.685 41.1782C244.035 41.323 244.354 41.5355 244.622 41.8036C244.891 42.0717 245.103 42.3901 245.249 42.7405C245.394 43.091 245.468 43.4666 245.468 43.846C245.469 44.2255 245.394 44.6013 245.249 44.952C245.104 45.3027 244.891 45.6213 244.623 45.8896C244.355 46.1579 244.036 46.3706 243.685 46.5155C243.334 46.6604 242.958 46.7346 242.579 46.734C241.813 46.734 241.079 46.4298 240.538 45.8884C239.996 45.347 239.692 44.6126 239.692 43.847C239.692 43.0813 239.996 42.347 240.538 41.8056C241.079 41.2641 241.813 40.96 242.579 40.96ZM249.489 108.812C249.827 108.811 250.161 108.878 250.474 109.006C250.786 109.135 251.07 109.325 251.309 109.563C251.548 109.802 251.738 110.085 251.867 110.398C251.996 110.71 252.063 111.044 252.063 111.382C252.063 111.72 251.997 112.055 251.867 112.367C251.738 112.68 251.548 112.963 251.309 113.202C251.07 113.441 250.787 113.631 250.474 113.76C250.162 113.89 249.827 113.956 249.489 113.956C249.151 113.956 248.817 113.889 248.505 113.76C248.193 113.631 247.909 113.441 247.67 113.202C247.432 112.963 247.242 112.679 247.113 112.367C246.985 112.054 246.918 111.72 246.919 111.382C246.919 111.044 246.985 110.71 247.114 110.398C247.243 110.086 247.432 109.803 247.671 109.564C247.91 109.325 248.193 109.136 248.505 109.007C248.817 108.878 249.151 108.812 249.489 108.812ZM294.88 68.762C295.218 68.7616 295.552 68.8278 295.864 68.9569C296.176 69.0859 296.46 69.2753 296.699 69.5141C296.938 69.7529 297.127 70.0365 297.256 70.3486C297.385 70.6607 297.451 70.9952 297.451 71.333C297.451 71.6708 297.385 72.0054 297.256 72.3176C297.127 72.6298 296.938 72.9135 296.699 73.1525C296.46 73.3915 296.177 73.5811 295.865 73.7103C295.552 73.8396 295.218 73.9061 294.88 73.906C294.198 73.906 293.544 73.635 293.061 73.1526C292.579 72.6703 292.308 72.0161 292.308 71.334C292.308 70.6518 292.579 69.9976 293.061 69.5153C293.544 69.0329 294.198 68.762 294.88 68.762ZM269.173 92.946C269.693 92.9458 270.208 93.0482 270.688 93.2471C271.168 93.4461 271.604 93.7377 271.972 94.1054C272.339 94.4731 272.63 94.9096 272.829 95.39C273.028 95.8704 273.13 96.3852 273.129 96.905C273.129 97.4245 273.027 97.9391 272.828 98.4192C272.63 98.8993 272.338 99.3355 271.971 99.7029C271.604 100.07 271.167 100.362 270.687 100.56C270.207 100.759 269.693 100.861 269.173 100.861C268.123 100.861 267.117 100.444 266.375 99.7018C265.632 98.9597 265.216 97.9531 265.216 96.9035C265.216 95.8539 265.632 94.8473 266.375 94.1051C267.117 93.3629 268.123 92.946 269.173 92.946ZM289.457 88.678C290.009 88.6777 290.556 88.7862 291.066 88.9974C291.576 89.2085 292.039 89.5181 292.429 89.9085C292.819 90.2988 293.129 90.7623 293.34 91.2723C293.551 91.7824 293.659 92.329 293.659 92.881C293.66 93.4329 293.551 93.9796 293.34 94.4896C293.129 94.9997 292.82 95.4631 292.429 95.8534C292.039 96.2437 291.576 96.5532 291.066 96.7642C290.556 96.9752 290.009 97.0835 289.457 97.083C288.342 97.083 287.274 96.6402 286.485 95.8521C285.697 95.064 285.255 93.995 285.255 92.8805C285.255 91.7659 285.697 90.697 286.485 89.9088C287.274 89.1207 288.342 88.678 289.457 88.678ZM315.033 101.189C315.872 101.189 316.678 101.522 317.271 102.115C317.865 102.709 318.199 103.514 318.199 104.353C318.199 105.192 317.866 105.998 317.273 106.591C316.679 107.185 315.874 107.519 315.035 107.519C314.196 107.519 313.39 107.186 312.797 106.593C312.203 105.999 311.869 105.194 311.869 104.355C311.869 103.516 312.202 102.71 312.795 102.117C313.389 101.523 314.194 101.189 315.033 101.189ZM310.385 82.408C310.845 82.408 311.3 82.4985 311.724 82.6744C312.149 82.8503 312.535 83.1081 312.86 83.4332C313.184 83.7582 313.442 84.144 313.618 84.5686C313.794 84.9933 313.884 85.4484 313.884 85.908C313.884 86.8361 313.515 87.7262 312.859 88.3825C312.203 89.0388 311.313 89.4075 310.385 89.4075C309.456 89.4075 308.566 89.0388 307.91 88.3825C307.254 87.7262 306.885 86.8361 306.885 85.908C306.885 83.974 308.451 82.408 310.385 82.408Z" fill="#DFC15D"/>
        <path fill-rule="evenodd" clip-rule="evenodd" d="M31.158 160.253C33.699 145.559 38.502 133.167 44.618 122.097L95.022 167.393L31.158 160.253ZM427.864 179.781C429.563 166.729 427.173 151.726 423.865 139.519L364.135 171.529L427.864 179.781ZM429.192 431.802C430.971 420.794 430.591 410.864 428.962 401.551L382.301 421.31L429.192 431.802ZM35.534 431.802C33.755 420.794 34.136 410.864 35.764 401.551L82.425 421.31L35.534 431.802ZM53.586 221.116L56.859 209.35C65.191 212.659 73.069 216.12 85.754 219.882L53.586 221.116ZM408.911 226.04L405.073 214.895C395.241 217.718 387.678 218.191 375.587 222.143L408.911 226.04Z" fill="#98693D"/>
        <path d="M233.495 264.146C262.23 264.146 288.256 275.797 307.089 294.631C325.922 313.464 337.576 339.487 337.576 368.224C337.576 396.965 325.925 422.987 307.089 441.817C288.259 460.654 262.236 472.305 233.495 472.305C204.755 472.305 178.732 460.654 159.902 441.817C141.065 422.987 129.415 396.965 129.415 368.224C129.415 339.487 141.069 313.464 159.902 294.631C178.736 275.797 204.761 264.146 233.495 264.146Z" fill="#7E4A27"/>
        <path fill-rule="evenodd" clip-rule="evenodd" d="M233.495 271.664C286.825 271.664 330.059 314.898 330.059 368.224C330.059 421.553 286.825 464.787 233.495 464.787C180.167 464.787 136.933 421.553 136.933 368.224C136.933 314.898 180.167 271.664 233.495 271.664Z" fill="white"/>
        <path fill-rule="evenodd" clip-rule="evenodd" d="M228.883 360.572L228.919 360.365L260.69 347.844L231.51 364.583C236.355 369.248 242.024 371.704 248.448 372.131C261.698 373.004 273.92 367.108 282.094 356.856C283.643 354.912 284.983 352.749 286.168 350.487C287.602 347.739 292.743 338.498 292.001 336.292C290.915 333.069 275.791 330.849 272.328 330.373C254.351 327.911 232.376 330.892 227.498 352.036C227.262 353.067 227.209 354.121 227.291 355.182L226.277 355.838L225.318 355.139C225.506 354.407 225.593 353.652 225.577 352.896C225.131 334.664 207.545 328.499 192.33 327.491C189.398 327.298 176.572 326.572 175.134 329.044C174.149 330.734 176.822 339.207 177.54 341.712C178.131 343.774 178.87 345.783 179.819 347.644C184.819 357.463 193.882 364.383 204.939 365.9C210.299 366.635 215.381 365.572 220.158 362.548L198.961 343.839L221.848 358.76L221.845 358.921C223.67 365.299 223.355 374.543 221.592 382.264L230.751 385.377C228.834 378.233 226.543 367.719 228.883 360.572Z" fill="#338032"/>
        <path fill-rule="evenodd" clip-rule="evenodd" d="M184.387 403.965C182.09 404.063 180.413 407.315 181.214 409.207H267.841C265.958 404.25 260.94 402.033 258.607 401.896C257.48 390.311 246.143 386.16 237.775 390.616C240.916 381.913 234.254 380.071 229.498 381.372C227.116 378.44 218.035 380.778 217.772 386.063C206.59 378.519 195.975 384.783 197.078 395.444C193.309 393.279 184.102 394.574 184.387 403.965Z" fill="#432A16"/>
    </g>
    <defs>
        <clipPath id="clip0_202_36">
            <rect width="467" height="512.503" fill="white"/>
        </clipPath>
    </defs>
</svg>
