<svg width="123" height="101" viewBox="0 0 123 101" fill="none" xmlns="http://www.w3.org/2000/svg">
    <g clip-path="url(#clip0_202_50)">
        <path d="M76.74 57.4801L76.63 57.6001C76.11 58.1601 75.56 58.7301 74.98 59.3101C64.54 69.7401 52.02 76.1601 40.21 78.1001C28.17 80.0801 16.83 77.4201 9.07002 69.6601C1.31002 61.9001 -1.34998 50.5701 0.630019 38.5201C2.57002 26.7101 8.99002 14.1901 19.43 3.75005L19.54 3.64005C20.08 3.10005 20.61 2.59005 21.14 2.10005C21.77 1.51005 22.35 0.980052 22.88 0.510052C23.7 -0.209948 24.94 -0.169948 25.71 0.600052L78.13 53.0201L122.28 97.1701C123.09 97.9801 123.09 99.29 122.28 100.09C121.47 100.9 120.16 100.9 119.36 100.09L76.74 57.4801ZM67.17 60.8301L60.33 60.7701L60.29 65.8501C62.63 64.3601 64.93 62.6901 67.17 60.8301ZM57.46 67.5401L57.52 60.7501L46.97 60.6601L46.88 71.2101L49.67 71.2301C52.28 70.2201 54.89 68.9901 57.46 67.5401ZM39.97 73.9601L36.85 73.9301L29.66 73.9901V74.4801C32.83 74.7401 36.15 74.5901 39.54 74.0301C39.69 74.0101 39.83 73.9801 39.97 73.9601ZM26.86 74.1301V74.0201L26.27 74.0301C26.46 74.0601 26.66 74.1001 26.86 74.1301ZM13.44 68.0801L13.38 60.7701L7.60002 60.8201C8.76002 62.9801 10.22 64.9701 11.99 66.7401C12.46 67.2101 12.95 67.6501 13.44 68.0801ZM6.30002 58.0301L13.35 57.9701L13.26 47.4201L4.15002 47.5001C4.30002 51.2301 5.01002 54.7901 6.30002 58.0301ZM4.15002 44.6801L13.24 44.6001L13.19 39.1001C13.17 39.0101 13.16 38.9201 13.16 38.8201L13.17 37.4601L13.16 36.1001C13.16 36.0001 13.17 35.9101 13.19 35.8201L13.24 30.3201L7.04002 30.2701C5.96002 33.2601 5.18002 36.2501 4.70002 39.1801C4.39002 41.0401 4.21002 42.8801 4.15002 44.6801ZM8.14002 27.4701L13.27 27.5101L13.35 17.7201C11.27 20.9101 9.53002 24.1801 8.14002 27.4701ZM16.19 13.7101V14.1801L26.74 14.2701L26.8 7.54005L24.17 4.91005L23.96 5.10005C23.44 5.59005 22.93 6.08005 22.45 6.56005L22.35 6.67005C20.1 8.93005 18.04 11.2801 16.19 13.7101ZM29.58 10.3201L29.55 14.2901L33.59 14.3201L29.58 10.3201ZM36.43 17.1701L35.68 17.1801C35.59 17.1801 35.5 17.1701 35.42 17.1601L29.53 17.1101L29.44 27.6601L36.86 27.7201L44.28 27.6601L44.26 24.9901L36.43 17.1701ZM49.68 30.4201L47.11 30.4401L47.15 34.8701C47.18 34.9801 47.19 35.1001 47.19 35.2201L47.17 37.4701L47.19 39.7101C47.19 39.8301 47.18 39.9501 47.15 40.0601L47.11 44.4901L57.66 44.5801L57.71 38.4501L49.68 30.4201ZM60.49 41.2301L60.46 44.6001L63.89 44.6301L60.49 41.2301ZM66.73 47.4701L60.45 47.4201L60.36 57.9701L70.34 58.0601C70.53 57.8801 70.73 57.6901 70.92 57.5101L70.97 51.7101L66.73 47.4701ZM73.74 54.4801V54.6401L73.82 54.5601L73.74 54.4801ZM44.07 71.1901L44.16 60.6401L36.86 60.5801L29.56 60.6401L29.65 71.1901L34.47 71.1501C34.58 71.1201 34.69 71.1101 34.81 71.1101L36.87 71.1301L38.93 71.1101C39.05 71.1101 39.16 71.1201 39.27 71.1501L44.07 71.1901ZM44.18 57.8301L44.27 47.2801L36.85 47.2201L29.43 47.2801L29.52 57.8301L35.41 57.7801C35.5 57.7601 35.58 57.7601 35.67 57.7601L36.84 57.7701L38.01 57.7601C38.1 57.7601 38.19 57.7701 38.27 57.7801L44.18 57.8301ZM44.3 44.4701L44.36 37.4701L44.3 30.4701L37.29 30.5301C37.24 30.5301 37.2 30.5401 37.15 30.5401H36.86H36.57C36.52 30.5401 36.47 30.5401 36.43 30.5301L29.42 30.4701L29.36 37.4701L29.42 44.4701L36.43 44.4101C36.48 44.4101 36.53 44.4001 36.57 44.4001H36.86H37.15C37.2 44.4001 37.25 44.4001 37.29 44.4101L44.3 44.4701ZM47.08 47.3001L46.99 57.8501L57.54 57.9401L57.63 47.3901L47.08 47.3001ZM26.56 40.0601C26.53 39.9501 26.52 39.8301 26.52 39.7101L26.54 37.4701L26.52 35.2201C26.52 35.1001 26.53 34.9801 26.56 34.8701L26.6 30.4401L16.05 30.3501L15.99 37.4701L16.05 44.5901L26.6 44.5001L26.56 40.0601ZM26.63 47.3001L16.08 47.3901L16.17 57.9401L26.72 57.8501L26.63 47.3001ZM26.74 60.6601L16.19 60.7501L16.27 70.1701C16.9 70.5701 17.54 70.9401 18.21 71.2901L26.84 71.2201L26.74 60.6601ZM26.72 17.0801L16.17 16.9901L16.08 27.5401L26.63 27.6301L26.72 17.0801Z" fill="#FFB904"/>
    </g>
    <defs>
        <clipPath id="clip0_202_50">
            <rect width="122.88" height="100.7" fill="white"/>
        </clipPath>
    </defs>
</svg>
