<svg width="512" height="461" viewBox="0 0 512 461" fill="none" xmlns="http://www.w3.org/2000/svg">
    <g clip-path="url(#clip0_202_53)">
        <path fill-rule="evenodd" clip-rule="evenodd" d="M44.28 128.906C27.984 100.655 15.855 70.9169 3.067 39.8379C10.512 69.0909 18.305 97.9989 30.328 126.818L44.28 128.906ZM337.014 370.885C345.026 371.746 353.045 372.416 360.928 371.347C367.188 370.497 373.363 368.551 379.379 364.732C375.551 369.197 371.637 373.586 367.637 377.898C351.092 395.704 330.22 415.915 303.652 408.346C295.843 406.122 289.405 401.196 287.592 392.683C286.028 385.339 289.57 377.51 298.874 372.988C311.156 367.02 324.16 369.507 337.014 370.885ZM450.948 166.711C473.445 143.098 492.243 117.06 512 89.8709C497.867 116.544 483.478 142.799 464.997 167.971L450.948 166.711ZM404.615 135.286C416.536 104.928 430.792 75.0899 447.11 45.7099C428.24 68.8489 412.235 95.2209 397.547 123.079L404.615 135.286ZM426.438 225.534C434.477 226.074 442.516 226.423 450.35 225.038C456.571 223.94 462.663 221.749 468.522 217.692C464.876 222.306 461.14 226.849 457.316 231.317C441.497 249.769 421.449 270.799 394.599 264.299C386.708 262.389 380.078 257.723 377.927 249.289C376.07 242.015 379.296 234.05 388.412 229.16C400.446 222.706 413.539 224.671 426.438 225.534ZM128.678 163.152C134.111 157.203 139.396 151.135 143.197 144.148C146.218 138.599 148.302 132.469 148.784 125.36C150.119 131.087 151.341 136.841 152.45 142.616C157.015 166.489 160.958 195.274 139.136 212.213C132.721 217.192 124.941 219.468 117.006 215.892C110.16 212.807 105.944 205.319 107.804 195.144C110.26 181.711 119.96 172.699 128.678 163.152ZM108.775 109.225C113.905 103.011 118.88 96.6869 122.328 89.5179C125.066 83.8249 126.842 77.5999 126.968 70.4739C128.586 76.1279 130.094 81.8126 131.492 87.5249C137.245 111.14 142.622 139.693 121.673 157.703C115.517 162.996 107.86 165.657 99.756 162.483C92.765 159.745 88.179 152.477 89.528 142.22C91.31 128.682 100.546 119.197 108.775 109.225ZM37.31 138.755C29.526 136.674 21.804 134.412 14.835 130.577C9.3 127.531 4.239 123.494 0 117.765C1.96458 123.308 4.03697 128.813 6.216 134.276C15.244 156.842 27.444 183.211 54.955 185.713C63.041 186.447 70.821 184.169 75.577 176.878C79.679 170.59 79.192 162.009 72.139 154.443C62.828 144.454 49.8 142.095 37.31 138.755ZM54.228 191.85C46.289 190.479 38.394 188.923 31.107 185.73C25.321 183.195 19.917 179.63 15.18 174.307C17.6358 179.65 20.1953 184.945 22.857 190.189C33.88 211.851 48.404 237.015 76.03 237.029C84.148 237.033 91.691 234.063 95.771 226.374C99.291 219.742 98.034 211.24 90.328 204.34C80.155 195.23 66.967 194.052 54.228 191.85ZM73.212 246.221C65.333 244.533 57.508 242.661 50.355 239.179C44.674 236.413 39.418 232.634 34.898 227.126C37.1381 232.563 39.4835 237.957 41.933 243.303C52.077 265.39 65.579 291.116 93.182 292.238C101.295 292.568 108.951 289.903 113.335 282.384C117.119 275.899 116.204 267.354 108.781 260.149C98.981 250.639 85.852 248.933 73.212 246.221ZM89.107 297.925C81.154 296.636 73.243 295.16 65.925 292.044C60.113 289.568 54.672 286.058 49.88 280.784C52.3907 286.102 55.0045 291.371 57.72 296.587C68.965 318.135 83.747 343.148 111.372 342.877C119.49 342.798 127.003 339.75 131.002 332.02C134.453 325.352 133.109 316.864 125.333 310.043C115.067 301.038 101.869 299.997 89.107 297.925ZM106.858 354.189C98.87 353.135 90.92 351.895 83.512 348.997C77.628 346.696 72.086 343.349 67.14 338.22C69.808 343.461 72.5772 348.649 75.446 353.783C87.326 374.987 102.844 399.55 130.448 398.459C138.56 398.139 145.979 394.87 149.748 387.024C152.999 380.257 151.404 371.812 143.429 365.225C132.899 356.529 119.676 355.879 106.858 354.189ZM185.414 324.784C190.848 318.835 196.133 312.767 199.934 305.78C202.953 300.23 205.038 294.101 205.521 286.991C206.854 292.719 208.076 298.472 209.187 304.247C213.751 328.12 217.695 356.905 195.871 373.846C189.458 378.824 181.677 381.1 173.741 377.523C166.897 374.439 162.679 366.951 164.54 356.775C166.997 343.343 176.696 334.331 185.414 324.784ZM166.192 270.988C171.626 265.039 176.911 258.971 180.713 251.984C183.733 246.434 185.818 240.306 186.299 233.196C187.633 238.924 188.855 244.677 189.965 250.452C194.529 274.325 198.473 303.109 176.651 320.05C170.237 325.028 162.456 327.304 154.521 323.728C147.675 320.643 143.459 313.155 145.319 302.98C147.776 289.547 157.475 280.536 166.192 270.988ZM146.971 217.193C152.405 211.244 157.69 205.176 161.492 198.189C164.511 192.639 166.597 186.51 167.078 179.401C168.412 185.129 169.634 190.882 170.744 196.657C175.308 220.53 179.252 249.314 157.429 266.254C151.015 271.233 143.235 273.509 135.3 269.933C128.454 266.848 124.238 259.36 126.097 249.185C128.555 235.752 138.253 226.74 146.971 217.193ZM455.399 177.924C463.454 177.737 471.491 177.361 479.168 175.278C485.266 173.623 491.136 170.893 496.606 166.326C493.389 171.249 490.077 176.109 486.672 180.904C472.578 200.705 454.506 223.454 427.179 219.398C419.148 218.205 412.125 214.157 409.223 205.951C406.718 198.872 409.214 190.649 417.853 184.959C429.257 177.447 442.473 178.225 455.399 177.924ZM392.911 132.377C389.39 125.129 386.047 117.81 384.387 110.031C383.069 103.853 382.811 97.3839 384.368 90.4299C381.462 95.5428 378.656 100.712 375.951 105.934C364.793 127.526 352.835 154.005 368.946 176.447C373.681 183.042 380.495 187.435 389.119 186.26C396.559 185.247 402.728 179.265 403.835 168.981C405.296 155.403 398.557 144.008 392.911 132.377ZM360.855 180.092C356.977 173.029 353.272 165.885 351.224 158.198C349.599 152.094 349.017 145.646 350.226 138.624C347.579 143.875 345.035 149.177 342.595 154.528C332.53 176.653 321.911 203.696 339.124 225.304C344.182 231.654 351.207 235.7 359.763 234.096C367.143 232.712 373.005 226.43 373.597 216.103C374.377 202.469 367.076 191.425 360.855 180.092ZM330.335 228.296C326.456 221.233 322.752 214.09 320.705 206.403C319.079 200.298 318.497 193.85 319.705 186.827C317.059 192.079 314.515 197.382 312.075 202.733C302.01 224.856 291.391 251.9 308.604 273.508C313.663 279.858 320.687 283.904 329.242 282.3C336.622 280.917 342.485 274.633 343.076 264.306C343.856 250.674 336.556 239.629 330.335 228.296ZM395.17 273.897C403.225 274.113 411.271 274.138 419.042 272.441C425.215 271.094 431.214 268.66 436.905 264.373C433.447 269.129 429.896 273.818 426.255 278.436C411.189 297.508 392.001 319.326 364.913 313.908C356.95 312.315 350.138 307.92 347.65 299.58C345.504 292.385 348.408 284.297 357.32 279.045C369.085 272.113 382.246 273.552 395.17 273.897ZM367.532 320.394C375.565 321.016 383.6 321.448 391.447 320.145C397.68 319.109 403.794 316.981 409.694 312.986C406.001 317.562 402.218 322.066 398.349 326.494C382.34 344.784 362.078 365.606 335.296 358.83C327.425 356.838 320.843 352.105 318.778 343.65C316.997 336.356 320.305 328.424 329.47 323.629C341.569 317.299 354.641 319.398 367.532 320.394ZM298.971 276.042C295.094 268.979 291.388 261.836 289.341 254.149C287.715 248.045 287.133 241.596 288.342 234.574C285.696 239.826 283.152 245.128 280.711 250.478C270.646 272.603 260.027 299.646 277.24 321.255C282.299 327.604 289.324 331.65 297.879 330.046C305.259 328.663 311.122 322.381 311.713 312.053C312.493 298.42 305.192 287.375 298.971 276.042ZM267.607 323.788C263.73 316.725 260.025 309.583 257.978 301.896C256.351 295.791 255.771 289.343 256.979 282.32C254.332 287.572 251.788 292.874 249.347 298.225C239.283 320.349 228.663 347.392 245.877 369.001C250.935 375.351 257.961 379.397 266.515 377.793C273.895 376.41 279.758 370.127 280.349 359.8C281.129 346.166 273.828 335.121 267.607 323.788ZM96.716 109.291C92.29 76.9789 85.47 44.6209 76.539 12.2209C89.42 39.1579 98.757 68.5599 106.462 99.0959L96.716 109.291Z" fill="#EDAC45"/>
        <path fill-rule="evenodd" clip-rule="evenodd" d="M493.571 44.406C467.472 92.102 472.108 99.531 456.706 139.279C454.037 146.163 451.384 152.607 446.607 157.154C443.897 159.732 440.503 161.7 436.036 162.792C417.513 167.317 410.095 155.417 410.096 138.938C410.913 133.667 413.725 128.256 418.085 122.969C423.83 116.003 432.266 109.251 442.372 103.313C468.056 88.224 476.105 69.1 493.571 44.406ZM178.373 460.417C173.342 435.067 162.834 416.194 149.732 398.409L184.696 389.432C185.287 409.763 186.584 429.616 190.071 449.179L178.373 460.417ZM242.469 457.258C253.335 433.808 267.998 417.945 284.924 403.75L253.062 386.782C247.694 406.401 241.751 425.389 233.751 443.578L242.469 457.258ZM31.696 0C45.812 52.504 39.556 58.631 45.152 100.89C46.121 108.209 47.182 115.098 50.752 120.641C52.777 123.786 55.612 126.499 59.696 128.613C76.628 137.379 86.644 127.563 90.527 111.549C90.977 106.234 89.521 100.313 86.53 94.147C82.589 86.022 75.983 77.471 67.562 69.318C46.16 48.599 42.848 28.115 31.696 0Z" fill="#D28A32"/>
    </g>
    <defs>
        <clipPath id="clip0_202_53">
            <rect width="512" height="460.417" fill="white"/>
        </clipPath>
    </defs>
</svg>
