<svg width="504" height="448" viewBox="0 0 504 448" fill="none" xmlns="http://www.w3.org/2000/svg">
    <g clip-path="url(#clip0_202_56)">
        <path d="M292.705 286.342L300.114 278.932L278.179 257.017C277.193 256.109 276.529 254.904 276.289 253.585C276.049 252.266 276.246 250.905 276.849 249.708C286.62 230.364 293.113 212.486 296.575 195.97C299.996 179.667 300.469 164.691 298.248 150.94C294.116 125.388 282.621 105.149 266.607 90.214C252.287 76.86 234.301 67.68 214.684 62.663C194.891 57.601 173.482 56.772 152.511 60.162C120.897 65.272 90.2781 79.951 67.6641 104.136C66.8281 105.087 65.72 105.757 64.49 106.057C63.26 106.357 61.9676 106.271 60.788 105.811C59.2663 105.216 58.043 104.041 57.3872 102.545C56.7315 101.048 56.6969 99.3522 57.2911 97.83C67.9131 70.761 86.5381 48.518 109.549 32.119L109.899 31.851C134.375 14.5091 163.81 3.76505 193.829 0.851049C208.996 -0.618951 223.55 -0.156951 237.266 2.03105C269.6 7.19005 297.329 21.9091 317.774 43.4761C338.237 65.0571 351.386 93.472 354.543 125.983C355.856 139.519 355.434 153.765 353.082 168.512C351.197 180.332 348.069 192.328 343.657 204.318L343.489 204.843C339.66 215.165 334.835 225.526 328.996 235.812L336.088 242.958L342.338 236.708C345.794 233.253 351.463 233.253 354.919 236.708L490.211 371.998L490.647 372.472C498.916 380.978 503.055 392.051 503.055 403.105C503.055 414.372 498.771 425.652 490.211 434.212C481.649 442.774 470.371 447.058 459.104 447.058C447.835 447.058 436.56 442.774 428 434.214L292.705 298.922C289.249 295.467 289.249 289.797 292.705 286.342Z" fill="black"/>
        <path fill-rule="evenodd" clip-rule="evenodd" d="M331.735 247.312L321.301 236.799C334.91 213.963 343.353 190.434 347.005 167.549C362.424 70.918 291.984 -2.49902 194.408 6.97498C138.185 12.432 84.119 46.339 63.03 100.072C135.428 22.444 286.307 38.525 304.326 149.976C309.01 178.953 302.378 212.824 282.348 252.482L304.468 274.579L331.735 247.312Z" fill="#7D8F9B"/>
        <path fill-rule="evenodd" clip-rule="evenodd" d="M313.394 265.652L305.947 258.147C319.556 235.311 327.999 211.782 331.651 188.896C347.07 92.265 276.63 18.848 179.054 28.323C138.264 32.282 98.612 51.219 71.863 81.834C68.4564 87.6785 65.5034 93.7757 63.03 100.072C135.428 22.4441 286.307 38.5251 304.326 149.976C309.01 178.953 302.378 212.824 282.348 252.482L304.468 274.579L313.394 265.652Z" fill="#B1BCC2"/>
        <path fill-rule="evenodd" clip-rule="evenodd" d="M298.29 291.927L347.924 242.293C348.111 242.107 348.365 242.003 348.629 242.003C348.892 242.003 349.146 242.107 349.333 242.293L376.891 269.852C376.614 270.065 376.352 270.295 376.105 270.542L325.802 320.848L298.29 293.336C298.104 293.149 298 292.895 298 292.631C298 292.368 298.104 292.114 298.29 291.927ZM387.966 280.927L484.626 377.583C498.662 391.622 498.662 414.588 484.626 428.627C470.588 442.665 447.618 442.665 433.583 428.627L336.972 332.019L387.276 281.713C387.526 281.463 387.757 281.2 387.966 280.927Z" fill="#F6C343"/>
        <path fill-rule="evenodd" clip-rule="evenodd" d="M52.385 155.735C43.875 135.708 27.613 129.879 0 145.208C7.02 155.638 28.787 179.097 52.385 155.735ZM252.917 202.023C252.204 201.882 251.526 201.602 250.921 201.199C250.316 200.796 249.797 200.278 249.393 199.674C248.988 199.07 248.707 198.392 248.564 197.679C248.422 196.967 248.422 196.233 248.563 195.52C249.16 192.509 252.086 190.582 255.073 191.175L273.817 194.858C274.53 194.999 275.207 195.28 275.811 195.683C276.416 196.087 276.934 196.605 277.338 197.209C277.742 197.813 278.023 198.491 278.164 199.203C278.306 199.916 278.306 200.649 278.164 201.362C278.023 202.075 277.743 202.752 277.339 203.356C276.936 203.96 276.417 204.479 275.813 204.882C275.209 205.286 274.532 205.566 273.819 205.708C273.107 205.849 272.373 205.848 271.661 205.706L252.917 202.023Z" fill="#F09418"/>
        <path fill-rule="evenodd" clip-rule="evenodd" d="M115.193 163.434C120.74 143.69 118.286 133.459 88.028 122.574C89.284 141.957 86.304 161.413 115.193 163.434ZM81.016 156.672C86.179 138.269 83.907 128.753 55.712 118.633C56.853 136.664 54.11 154.779 81.016 156.672ZM238.99 199.579C235.898 225.391 228.084 236.181 187.399 234.237C198.226 212.148 204.188 187.939 238.99 199.579ZM194.792 190.797C191.7 216.608 183.887 227.398 143.201 225.454C154.056 203.37 160.018 179.162 194.792 190.797ZM151.514 182.138C148.782 205.098 141.825 214.699 105.644 212.971C115.275 193.331 120.559 171.793 151.514 182.138ZM113.008 174.426C110.585 194.791 104.405 203.306 72.285 201.795C80.857 184.365 85.541 165.248 113.008 174.426ZM78.843 167.607C76.577 186.586 70.839 194.511 40.917 193.082C48.866 176.857 53.263 159.04 78.843 167.607ZM241.225 188.332C248.237 163.299 245.142 150.341 206.806 136.582C208.364 161.133 204.612 185.809 241.225 188.332ZM197.027 179.548C204.039 154.515 200.945 141.558 162.608 127.798C164.194 152.355 160.442 177.032 197.027 179.548ZM153.721 171.031C159.975 148.771 157.218 137.239 123.125 125.002C124.515 146.832 121.163 168.754 153.721 171.031Z" fill="#F6C343"/>
    </g>
    <defs>
        <clipPath id="clip0_202_56">
            <rect width="503.055" height="447.058" fill="white"/>
        </clipPath>
    </defs>
</svg>
