<svg width="425" height="513" viewBox="0 0 425 513" fill="none" xmlns="http://www.w3.org/2000/svg">
    <g clip-path="url(#clip0_202_63)">
        <path fill-rule="evenodd" clip-rule="evenodd" d="M262.66 295.883L262.744 295.407L335.668 266.659L268.687 305.088C279.809 315.798 292.821 321.435 307.569 322.408C337.984 324.409 366.028 310.879 384.795 287.343C388.344 282.894 391.436 277.921 394.149 272.724C397.444 266.429 409.241 245.208 407.541 240.151C405.051 232.753 370.325 227.645 362.387 226.559C325.233 221.469 280.625 226.52 263.943 263.015C260.375 245.399 267.129 220.585 271.507 204.252L243.992 203.205C247.171 217.157 250.059 238.671 249.617 255.395C237.306 230.988 206.328 221.773 178.745 219.949C172.017 219.507 142.573 217.836 139.275 223.506C137.016 227.387 143.153 246.846 144.794 252.586C146.153 257.32 147.856 261.937 150.028 266.204C161.501 288.75 182.316 304.638 207.693 308.113C219.991 309.799 231.655 307.35 242.627 300.42L193.972 257.469L246.505 291.724L246.496 292.095C250.692 306.731 249.963 322.304 245.925 340.025L266.946 347.169C262.55 330.766 257.274 312.275 262.66 295.883Z" fill="#338032"/>
        <path fill-rule="evenodd" clip-rule="evenodd" d="M341.854 366.682C338.938 336.72 321.534 333.097 299.893 344.629C308.017 322.114 275.203 325.136 262.895 328.502C256.737 320.916 217.668 319.18 216.991 332.848C188.065 313.331 164.617 323.332 167.471 350.911C140.262 448.373 310.832 491.099 337.066 397.258C339.654 388 341.353 377.714 341.854 366.682Z" fill="#432A16"/>
        <path d="M261.26 219.114C321.766 219.114 370.816 170.064 370.816 109.557C370.816 49.0503 321.766 0 261.26 0C200.754 0 151.704 49.0503 151.704 109.557C151.704 170.064 200.754 219.114 261.26 219.114Z" fill="#F6CD45"/>
        <path d="M261.26 198.365C310.308 198.365 350.069 158.604 350.069 109.556C350.069 60.5081 310.308 20.7469 261.26 20.7469C212.212 20.7469 172.451 60.5081 172.451 109.556C172.451 158.604 212.212 198.365 261.26 198.365Z" fill="#D19632"/>
        <path d="M283.591 139.093H270.797V131.957C270.421 131.957 265.849 140.288 255.142 140.288C248.964 140.288 244.077 138.103 240.462 133.734C236.862 129.349 235.054 123.439 235.054 115.973C235.054 108.051 237.082 101.67 241.138 96.829C245.193 91.972 250.521 89.551 257.122 89.551C263.472 89.551 267.951 91.893 270.561 96.593H270.797V83.328H255.189V74.667H270.797V67.483H283.591V74.667H290.271V83.328H283.591V139.093ZM270.97 111.415C270.97 108.004 269.932 105.175 267.842 102.927C265.751 100.664 263.126 99.532 259.967 99.532C256.258 99.532 253.334 100.978 251.228 103.839C249.106 106.715 248.038 110.629 248.038 115.611C248.038 120.185 249.043 123.769 251.055 126.362C253.067 128.955 255.865 130.245 259.464 130.245C262.875 130.245 265.657 128.893 267.826 126.174C269.979 123.455 271.032 120.075 270.97 116.02V111.415ZM283.088 154.434H236.768V146.182H283.088V154.434Z" fill="#A87927"/>
        <path d="M280.788 136.29H267.994V129.154C267.618 129.154 263.046 137.485 252.339 137.485C246.161 137.485 241.274 135.3 237.658 130.931C234.059 126.546 232.251 120.635 232.251 113.169C232.251 105.248 234.279 98.8671 238.334 94.0261C242.39 89.1691 247.718 86.7481 254.319 86.7481C260.669 86.7481 265.148 89.0901 267.758 93.7901H267.994V80.5241H252.386V71.8641H267.994V64.6801H280.788V71.8641H287.468V80.5241H280.788V136.29ZM268.166 108.612C268.166 105.201 267.129 102.372 265.039 100.124C262.948 97.8601 260.323 96.729 257.164 96.729C253.454 96.729 250.531 98.1751 248.425 101.036C246.303 103.912 245.235 107.826 245.235 112.808C245.235 117.382 246.24 120.965 248.252 123.559C250.264 126.152 253.062 127.442 256.661 127.442C260.071 127.442 262.854 126.089 265.023 123.37C267.176 120.652 268.229 117.272 268.166 113.217V108.612ZM280.285 151.631H233.965V143.379H280.285V151.631Z" fill="#FCD553"/>
        <path d="M91.381 462.889L91.375 334.204C91.3753 332.965 91.8677 331.776 92.744 330.9C93.6203 330.024 94.8087 329.531 96.048 329.531L108.994 329.523C161.986 329.34 175.627 329.299 228.852 362.683H272.499L273.149 362.727C280.084 363.216 286.096 365.69 290.533 369.339C294.067 372.243 296.635 375.921 297.933 379.99C299.263 384.157 299.257 388.673 297.618 393.134C295.867 397.9 292.243 402.579 286.378 406.598C277.775 412.868 267.906 415.825 257.346 416.94C247.227 418.012 236.487 417.367 225.636 416.402C222.544 416.252 220.584 417.426 219.757 419.012C219.433 419.636 219.257 420.327 219.242 421.03C219.227 421.742 219.371 422.46 219.678 423.126C220.469 424.835 222.496 426.191 225.871 426.203L226.201 426.215C228.946 426.418 231.965 426.118 234.904 425.835C237.285 425.6 239.633 425.368 242.028 425.365C254.818 425.356 266.432 424.147 276.321 420.463C285.769 416.95 293.743 411.097 299.822 401.732L306.422 386.325C306.856 385.299 307.645 384.464 308.646 383.974L375.518 350.816L376.124 350.569C387.796 346.718 398.512 347.901 406.907 352.185C412.421 354.995 416.943 359.167 420.085 364.146C423.24 369.133 425.002 374.95 424.999 381.035C424.996 389.623 421.489 398.695 413.442 406.642L412.909 407.092C388.646 424.755 363.983 440.897 338.959 455.597C314.007 470.256 288.817 483.406 263.41 495.125C225.062 518.338 186.729 517.552 148.419 495.125L93.912 467.032C93.1512 466.639 92.5129 466.045 92.0665 465.315C91.6202 464.584 91.3831 463.745 91.381 462.889Z" fill="#2B1C1C"/>
        <path d="M100.721 338.859V460.052L152.909 486.972C188.191 507.704 223.467 508.466 258.711 487.078L259.303 486.751C284.919 474.94 309.932 461.864 334.251 447.571C358.781 433.162 383.097 417.241 407.171 399.737C413.103 393.764 415.696 387.17 415.696 381.035C415.696 376.759 414.445 372.646 412.206 369.106C409.964 365.552 406.692 362.554 402.675 360.506C396.408 357.307 388.293 356.451 379.289 359.349L314.316 391.562L308.255 405.71L307.89 406.386C300.587 417.832 290.971 424.941 279.569 429.184C268.503 433.306 255.839 434.657 242.028 434.668C240.192 434.668 238.018 434.886 235.816 435.101C232.412 435.43 228.931 435.772 225.506 435.507C218.115 435.366 213.36 431.688 211.209 427.033C210.317 425.09 209.882 422.968 209.938 420.83C209.988 418.718 210.518 416.608 211.512 414.704C213.89 410.147 218.813 406.742 226.071 407.098L226.254 407.116C236.649 408.049 246.915 408.676 256.399 407.672C265.428 406.716 273.788 404.25 280.908 399.057L281.108 398.913C285.251 396.073 287.743 392.966 288.862 389.921C289.762 387.473 289.774 385.025 289.065 382.797C288.323 380.473 286.775 378.304 284.619 376.53C281.617 374.061 277.439 372.378 272.529 372.028H227.539C226.661 372.014 225.804 371.761 225.059 371.296C173.135 338.606 160.23 338.653 108.994 338.827L100.721 338.859Z" fill="#E4B087"/>
        <path d="M13.694 316.108H84.575C86.3729 316.108 88.153 316.464 89.8132 317.153C91.4735 317.843 92.9812 318.854 94.25 320.128C95.5236 321.397 96.5343 322.904 97.2241 324.564C97.9139 326.224 98.2693 328.004 98.27 329.802V467.847C98.27 471.616 96.727 475.044 94.25 477.521C92.9811 478.795 91.4734 479.805 89.8131 480.495C88.1529 481.184 86.3728 481.54 84.575 481.54H13.694C11.8962 481.54 10.1161 481.184 8.45589 480.495C6.79564 479.805 5.28786 478.795 4.019 477.521C2.74555 476.252 1.73504 474.745 1.04537 473.084C0.355712 471.424 0.000465722 469.645 0 467.847L0 329.802C0 326.033 1.542 322.605 4.019 320.128C5.28777 318.854 6.79552 317.843 8.45577 317.153C10.116 316.464 11.8961 316.108 13.694 316.108Z" fill="#2B1C1C"/>
        <path d="M84.572 321.948H13.696C9.35728 321.948 5.84003 325.465 5.84003 329.804V467.842C5.84003 472.181 9.35728 475.698 13.696 475.698H84.572C88.9108 475.698 92.428 472.181 92.428 467.842V329.804C92.428 325.465 88.9108 321.948 84.572 321.948Z" fill="#43494C"/>
        <path fill-rule="evenodd" clip-rule="evenodd" d="M92.428 383.066V467.843C92.428 472.165 88.894 475.699 84.572 475.699H13.697C9.375 475.699 5.841 472.165 5.841 467.843V450.209L92.428 383.066Z" fill="#34393E"/>
    </g>
    <defs>
        <clipPath id="clip0_202_63">
            <rect width="425" height="512.242" fill="white"/>
        </clipPath>
    </defs>
</svg>
