<svg width="32" height="32" viewBox="0 0 32 32" fill="none" xmlns="http://www.w3.org/2000/svg">
    <path fill-rule="evenodd" clip-rule="evenodd" d="M16 2.66669C15.264 2.66669 14.6667 3.26269 14.6667 4.00002V6.66669C14.6667 7.40402 15.264 8.00002 16 8.00002C16.736 8.00002 17.3334 7.40402 17.3334 6.66669V4.00002C17.3334 3.26269 16.736 2.66669 16 2.66669" fill="#EB2030"/>
    <path opacity="0.6" fill-rule="evenodd" clip-rule="evenodd" d="M28 14.6667H25.3333C24.5973 14.6667 24 15.2627 24 16C24 16.7374 24.5973 17.3334 25.3333 17.3334H28C28.736 17.3334 29.3333 16.7374 29.3333 16C29.3333 15.2627 28.736 14.6667 28 14.6667" fill="#009999"/>
    <path opacity="0.6" fill-rule="evenodd" clip-rule="evenodd" d="M8.00002 16C8.00002 15.2627 7.40269 14.6667 6.66669 14.6667H4.00002C3.26402 14.6667 2.66669 15.2627 2.66669 16C2.66669 16.7374 3.26402 17.3334 4.00002 17.3334H6.66669C7.40269 17.3334 8.00002 16.7374 8.00002 16" fill="#EB2030"/>
    <path opacity="0.8" fill-rule="evenodd" clip-rule="evenodd" d="M8.29421 6.70431C7.76488 6.19231 6.92221 6.20965 6.40888 6.73765C5.89688 7.26698 5.91154 8.11231 6.44088 8.62298L8.35954 10.4763C8.61954 10.727 8.95288 10.8496 9.28621 10.8496C9.63554 10.8496 9.98354 10.7136 10.2449 10.443C10.7569 9.91365 10.7422 9.06831 10.2129 8.55765L8.29421 6.70431Z" fill="#EB2030"/>
    <path opacity="0.2" fill-rule="evenodd" clip-rule="evenodd" d="M22.7136 10.8503C23.0469 10.8503 23.3802 10.7263 23.6402 10.4769L25.5589 8.62359C26.0882 8.11159 26.1029 7.26626 25.5909 6.73826C25.0802 6.21026 24.2375 6.19292 23.7055 6.70492L21.7869 8.55692C21.2576 9.06892 21.2429 9.91426 21.7549 10.4423C22.0162 10.7129 22.3642 10.8503 22.7136 10.8503" fill="#009999"/>
    <path fill-rule="evenodd" clip-rule="evenodd" d="M16 24C15.264 24 14.6667 24.596 14.6667 25.3333V28C14.6667 28.7373 15.264 29.3333 16 29.3333C16.736 29.3333 17.3334 28.7373 17.3334 28V25.3333C17.3334 24.596 16.736 24 16 24" fill="#009999"/>
    <path opacity="0.8" fill-rule="evenodd" clip-rule="evenodd" d="M23.6401 21.5234C23.1108 21.0128 22.2668 21.0288 21.7548 21.5568C21.2428 22.0861 21.2574 22.9314 21.7868 23.4421L23.7054 25.2954C23.9654 25.5461 24.2988 25.6688 24.6321 25.6688C24.9814 25.6688 25.3294 25.5328 25.5908 25.2621C26.1028 24.7328 26.0881 23.8874 25.5588 23.3768L23.6401 21.5234Z" fill="#009999"/>
    <path opacity="0.2" fill-rule="evenodd" clip-rule="evenodd" d="M8.36003 21.5234L6.44136 23.3768C5.91203 23.8874 5.89736 24.7328 6.40936 25.2621C6.6707 25.5328 7.0187 25.6688 7.36803 25.6688C7.70136 25.6688 8.0347 25.5461 8.2947 25.2954L10.2134 23.4421C10.7427 22.9314 10.7574 22.0861 10.2454 21.5568C9.7347 21.0288 8.8907 21.0128 8.36003 21.5234" fill="#EB2030"/>
</svg>