<svg width="123" height="116" viewBox="0 0 123 116" fill="none" xmlns="http://www.w3.org/2000/svg">
    <g clip-path="url(#clip0_202_75)">
        <path fill-rule="evenodd" clip-rule="evenodd" d="M25.32 75.3101C26.2721 75.3101 27.1853 75.6883 27.8585 76.3615C28.5318 77.0348 28.91 77.9479 28.91 78.9001C28.91 79.8522 28.5318 80.7653 27.8585 81.4386C27.1853 82.1118 26.2721 82.4901 25.32 82.4901H18.58L9.7 108.07H112.93L103.29 82.4901H97.72C96.7679 82.4901 95.8547 82.1118 95.1815 81.4386C94.5082 80.7653 94.13 79.8522 94.13 78.9001C94.13 77.9479 94.5082 77.0348 95.1815 76.3615C95.8547 75.6883 96.7679 75.3101 97.72 75.3101H108.42L122.88 115.23H0L13.32 75.3101H25.32Z" fill="#212121"/>
        <path fill-rule="evenodd" clip-rule="evenodd" d="M79.06 83.6401C74.5908 88.5556 69.4461 92.8115 63.78 96.2801C63.4284 96.5415 63.0054 96.6892 62.5675 96.7035C62.1297 96.7178 61.6979 96.598 61.33 96.3601C53.2414 91.2498 46.0599 84.8287 40.08 77.3601C32.34 67.6901 27.46 56.9201 25.8 46.5501C24.14 36.1801 25.69 25.9201 30.92 17.6901C33.0471 14.3475 35.721 11.3862 38.83 8.93012C46.21 3.05012 54.64 -0.0598803 63 0.000119652C71.5733 0.124009 79.7852 3.47306 86 9.38012C88.3899 11.5643 90.4542 14.0799 92.13 16.8501C97.76 26.1201 98.97 37.9401 96.5 49.9201C93.7603 62.499 87.7358 74.1271 79.04 83.6201L79.06 83.6401ZM61.44 18.7001C65.0119 18.7001 68.5036 19.7593 71.4736 21.7438C74.4435 23.7282 76.7583 26.5488 78.1253 29.8489C79.4922 33.1489 79.8498 36.7802 79.153 40.2835C78.4561 43.7867 76.7361 47.0047 74.2103 49.5305C71.6846 52.0562 68.4666 53.7762 64.9633 54.4731C61.46 55.1699 57.8288 54.8123 54.5287 53.4454C51.2287 52.0785 48.4081 49.7637 46.4237 46.7937C44.4392 43.8238 43.38 40.332 43.38 36.7601C43.38 31.9703 45.2827 27.3767 48.6696 23.9898C52.0566 20.6029 56.6502 18.7001 61.44 18.7001Z" fill="#F44336"/>
    </g>
    <defs>
        <clipPath id="clip0_202_75">
            <rect width="122.88" height="115.23" fill="white"/>
        </clipPath>
    </defs>
</svg>
