<svg width="512" height="297" viewBox="0 0 512 297" fill="none" xmlns="http://www.w3.org/2000/svg">
    <g clip-path="url(#clip0_202_78)">
        <path fill-rule="evenodd" clip-rule="evenodd" d="M55.708 0H512V253.196L479.729 253.342L481.982 67.544L482.068 65.326C482.087 48.915 468.789 35.591 452.377 35.572L55.708 35.416V0Z" fill="#427D2A"/>
        <path fill-rule="evenodd" clip-rule="evenodd" d="M0 60.0649H456.298V296.938H0V60.0649Z" fill="#427D2A"/>
        <path fill-rule="evenodd" clip-rule="evenodd" d="M382.151 96.8879C381.91 114.508 397.438 130.446 415.715 130.665V224.385C396.463 224.144 380.528 239.672 380.309 260.663H76.733C76.975 241.411 61.443 225.472 43.17 225.253V131.533C62.495 131.752 78.443 116.233 78.662 96.8879H382.151Z" fill="#87CC71"/>
        <path d="M291.07 212.209C309.188 178.172 296.283 135.893 262.246 117.775C228.209 99.6576 185.929 112.563 167.812 146.6C149.694 180.637 162.599 222.916 196.636 241.034C230.673 259.151 272.953 246.246 291.07 212.209Z" fill="#427D2A"/>
    </g>
    <defs>
        <clipPath id="clip0_202_78">
            <rect width="512" height="296.938" fill="white"/>
        </clipPath>
    </defs>
</svg>
