<svg width="22" height="23" viewBox="0 0 22 23" fill="none" xmlns="http://www.w3.org/2000/svg">
    <g clip-path="url(#clip0_204_2)">
        <path fill-rule="evenodd" clip-rule="evenodd" d="M20.1418 6.3995L21.7465 7.05835C21.8486 7.10037 21.9291 7.17955 21.9704 7.27851C22.0117 7.37748 22.0105 7.48813 21.9669 7.58618L21.5769 8.4397L19.2117 7.46452L19.6017 6.611C19.6455 6.51302 19.728 6.43572 19.8311 6.39606C19.9341 6.35641 20.0494 6.35764 20.1516 6.3995H20.1418ZM1.73145 1.47493H3.32837V0.510986C3.33659 0.380567 3.39635 0.258077 3.49546 0.168521C3.59456 0.0789651 3.72554 0.029097 3.86165 0.029097C3.99776 0.029097 4.12874 0.0789651 4.22784 0.168521C4.32695 0.258077 4.38671 0.380567 4.39493 0.510986V1.47493H6.73473V0.510986C6.73473 0.375464 6.79082 0.245493 6.89064 0.149664C6.99047 0.0538359 7.12586 0 7.26704 0C7.40822 0 7.54361 0.0538359 7.64344 0.149664C7.74326 0.245493 7.79934 0.375464 7.79934 0.510986V1.47493H10.1391V0.510986C10.1391 0.375464 10.1952 0.245493 10.2951 0.149664C10.3949 0.0538359 10.5303 0 10.6715 0C10.8126 0 10.948 0.0538359 11.0478 0.149664C11.1477 0.245493 11.2038 0.375464 11.2038 0.510986V1.47493H13.5436V0.510986C13.5436 0.375464 13.5996 0.245493 13.6995 0.149664C13.7993 0.0538359 13.9347 3.04572e-08 14.0759 3.04572e-08C14.217 3.04572e-08 14.3524 0.0538359 14.4523 0.149664C14.5521 0.245493 14.6082 0.375464 14.6082 0.510986V1.47493H16.4157C16.8744 1.47642 17.3139 1.652 17.6383 1.96339C17.9627 2.27478 18.1456 2.69668 18.1471 3.13704V5.34196C18.0071 5.50677 17.8916 5.68945 17.804 5.88477L17.414 6.73828C17.3893 6.80943 17.3691 6.88193 17.3535 6.9554C17.3116 7.02502 17.2738 7.09689 17.2404 7.17065L17.1235 7.4327V3.13704C17.1224 2.95963 17.0486 2.78976 16.9179 2.66431C16.7872 2.53886 16.6102 2.46794 16.4254 2.46696H14.6238V3.43091C14.6238 3.56643 14.5677 3.6964 14.4679 3.79223C14.368 3.88806 14.2326 3.94189 14.0915 3.94189C13.9503 3.94189 13.8149 3.88806 13.7151 3.79223C13.6152 3.6964 13.5592 3.56643 13.5592 3.43091V2.46696H11.2194V3.43091C11.2194 3.56643 11.1633 3.6964 11.0634 3.79223C10.9636 3.88806 10.8282 3.94189 10.6871 3.94189C10.5459 3.94189 10.4105 3.88806 10.3107 3.79223C10.2108 3.6964 10.1547 3.56643 10.1547 3.43091V2.46696H7.79934V3.43091C7.79934 3.56643 7.74326 3.6964 7.64344 3.79223C7.54361 3.88806 7.40822 3.94189 7.26704 3.94189C7.12586 3.94189 6.99047 3.88806 6.89064 3.79223C6.79082 3.6964 6.73473 3.56643 6.73473 3.43091V2.46696H4.39493V3.43091C4.38671 3.56133 4.32695 3.68382 4.22784 3.77337C4.12874 3.86293 3.99776 3.9128 3.86165 3.9128C3.72554 3.9128 3.59456 3.86293 3.49546 3.77337C3.39635 3.68382 3.33659 3.56133 3.32837 3.43091V2.46696H1.73145C1.54632 2.46696 1.36877 2.53756 1.23786 2.66322C1.10696 2.78889 1.03341 2.95933 1.03341 3.13704V20.3571C1.03392 20.5348 1.10757 20.7052 1.23831 20.831C1.36905 20.9569 1.5463 21.0281 1.73145 21.0291H11.5352L11.6444 22.0192H1.73145C1.27274 22.0187 0.832932 21.8437 0.508389 21.5325C0.183846 21.2213 0.00103169 20.7993 0 20.359L0 3.13892C0.00102787 2.69823 0.183717 2.27584 0.508149 1.96405C0.832582 1.65226 1.27238 1.47642 1.73145 1.47493ZM3.96597 17.6599C3.82893 17.6599 3.6975 17.6077 3.6006 17.5146C3.5037 17.4216 3.44926 17.2955 3.44926 17.1639C3.44926 17.0323 3.5037 16.9062 3.6006 16.8132C3.6975 16.7201 3.82893 16.6679 3.96597 16.6679H13.0093L12.5667 17.6599H3.96597ZM3.96597 14.3881C3.82893 14.3881 3.6975 14.3358 3.6006 14.2428C3.5037 14.1498 3.44926 14.0236 3.44926 13.8921C3.44926 13.7605 3.5037 13.6344 3.6006 13.5414C3.6975 13.4483 3.82893 13.3961 3.96597 13.3961H14.1909C14.278 13.3965 14.3635 13.4191 14.4385 13.4616L14.0252 14.3975L3.96597 14.3881ZM3.96597 11.1163C3.82893 11.1163 3.6975 11.064 3.6006 10.971C3.5037 10.878 3.44926 10.7518 3.44926 10.6203C3.44926 10.4887 3.5037 10.3626 3.6006 10.2695C3.6975 10.1765 3.82893 10.1243 3.96597 10.1243H14.1909C14.3279 10.1243 14.4594 10.1765 14.5563 10.2695C14.6532 10.3626 14.7076 10.4887 14.7076 10.6203C14.7076 10.7518 14.6532 10.878 14.5563 10.971C14.4594 11.064 14.3279 11.1163 14.1909 11.1163H3.96597ZM3.96597 7.84448C3.82893 7.84448 3.6975 7.79222 3.6006 7.6992C3.5037 7.60618 3.44926 7.48002 3.44926 7.34847C3.44926 7.21692 3.5037 7.09076 3.6006 6.99774C3.6975 6.90472 3.82893 6.85246 3.96597 6.85246H14.1909C14.3279 6.85246 14.4594 6.90472 14.5563 6.99774C14.6532 7.09076 14.7076 7.21692 14.7076 7.34847C14.7076 7.48002 14.6532 7.60618 14.5563 7.6992C14.4594 7.79222 14.3279 7.84448 14.1909 7.84448H3.96597ZM15.7937 21.4502L14.5867 22.3861C13.6411 23.1198 13.7366 23.3332 13.6118 22.2214L13.4168 20.4731L19.0187 7.89502L21.3936 8.87207L15.7937 21.4502ZM13.8263 20.6435L15.3862 21.2836L14.5887 21.8994C13.9667 22.3823 14.0291 22.5208 13.9491 21.7927L13.8204 20.6435H13.8263Z" fill="#828282"/>
    </g>
    <defs>
        <clipPath id="clip0_204_2">
            <rect width="22" height="23" fill="white"/>
        </clipPath>
    </defs>
</svg>