<svg width="48" height="48" viewBox="0 0 48 48" fill="none" xmlns="http://www.w3.org/2000/svg">
    <g clip-path="url(#clip0_202_85)">
        <path d="M13.72 17.58C6.26003 19.17 0.830032 13.74 2.42003 6.28001C10.33 4.70001 15.27 10.53 13.72 17.58Z" fill="#9DCC6B"/>
        <path d="M13.9999 15.8299C7.99994 16.2399 3.75994 11.9999 4.16994 5.9999C9.82994 5.5399 14.4099 9.6499 13.9999 15.8299Z" fill="#B5E08C"/>
        <path d="M14.28 20.78C12.66 13.29 18.21 7.87003 25.58 9.47003C27.17 16.94 21.74 22.36 14.28 20.78Z" fill="#9DCC6B"/>
        <path d="M14 18.9999C13.58 12.9999 17.84 8.77993 23.8 9.19993C24.24 15.1999 20 19.4399 14 18.9999Z" fill="#B5E08C"/>
        <path d="M13 26V14C13 13.7348 13.1054 13.4804 13.2929 13.2929C13.4804 13.1054 13.7348 13 14 13C14.2652 13 14.5196 13.1054 14.7071 13.2929C14.8946 13.4804 15 13.7348 15 14V26C15 26.2652 14.8946 26.5196 14.7071 26.7071C14.5196 26.8946 14.2652 27 14 27C13.7348 27 13.4804 26.8946 13.2929 26.7071C13.1054 26.5196 13 26.2652 13 26Z" fill="#BE927C"/>
        <path d="M14 19.1301C13.42 19.1301 13.81 19.3501 6.55995 12.1301C6.36767 11.9391 6.25912 11.6796 6.25818 11.4086C6.25725 11.1376 6.364 10.8774 6.55495 10.6851C6.74591 10.4928 7.00543 10.3842 7.27642 10.3833C7.54741 10.3824 7.80767 10.4891 7.99995 10.6801L14.74 17.4201C14.883 17.5617 14.98 17.7432 15.0182 17.9409C15.0565 18.1385 15.0341 18.3431 14.9542 18.5279C14.8742 18.7127 14.7404 18.869 14.5701 18.9764C14.3999 19.0839 14.2011 19.1374 14 19.1301Z" fill="#BE927C"/>
        <path d="M14 21.8201C13.8013 21.8213 13.6069 21.7632 13.4413 21.6534C13.2758 21.5436 13.1468 21.387 13.0706 21.2036C12.9944 21.0201 12.9746 20.8182 13.0137 20.6234C13.0527 20.4287 13.1489 20.25 13.29 20.1101L20 13.3801C20.1913 13.2163 20.4373 13.1307 20.689 13.1404C20.9407 13.1501 21.1794 13.2544 21.3575 13.4325C21.5356 13.6106 21.6399 13.8494 21.6497 14.1011C21.6594 14.3527 21.5738 14.5988 21.41 14.7901C14 22.2901 14.57 21.8201 14 21.8201Z" fill="#BE927C"/>
        <path d="M27 26H1V32H27V26Z" fill="#F16F39"/>
        <path d="M27 26V30H8C6.93913 30 5.92172 29.5786 5.17157 28.8284C4.42143 28.0783 4 27.0609 4 26H27Z" fill="#F8834B"/>
        <path d="M25 32C23 47.28 23.36 44.36 23 47H5L3 32H25Z" fill="#F16F39"/>
        <path d="M25 32L23.27 45H21.11C17.4827 44.9937 13.9805 43.6732 11.2521 41.283C8.52359 38.8928 6.75366 35.5949 6.27002 32H25Z" fill="#F8834B"/>
        <path d="M43 33C43 44 43.12 43.59 42.64 44.64C42.2619 45.4698 41.6117 46.1456 40.797 46.5553C39.9823 46.965 39.052 47.084 38.1604 46.8926C37.2688 46.7012 36.4694 46.2109 35.8946 45.5029C35.3198 44.795 35.0042 43.9119 35 43V33C35 32.4696 35.2107 31.9609 35.5858 31.5858C35.9609 31.2107 36.4696 31 37 31H41C41.5304 31 42.0391 31.2107 42.4142 31.5858C42.7893 31.9609 43 32.4696 43 33Z" fill="#A87E6B"/>
        <path d="M43 33C43 44 43.12 43.59 42.64 44.64C42.0315 44.9135 41.3642 45.0305 40.6989 44.9803C40.0337 44.9301 39.3915 44.7143 38.8309 44.3525C38.2704 43.9907 37.8092 43.4945 37.4894 42.9089C37.1696 42.3234 37.0014 41.6672 37 41V31H41C41.5304 31 42.0391 31.2107 42.4142 31.5858C42.7893 31.9609 43 32.4696 43 33Z" fill="#BE927C"/>
        <path d="M43 33V35H35V33C35 32.4696 35.2107 31.9609 35.5858 31.5858C35.9609 31.2107 36.4696 31 37 31H41C41.5304 31 42.0391 31.2107 42.4142 31.5858C42.7893 31.9609 43 32.4696 43 33Z" fill="#A87E6B"/>
        <path d="M43 33H39C38.4696 33 37.9609 32.7893 37.5858 32.4142C37.2107 32.0391 37 31.5304 37 31H41C41.5304 31 42.0391 31.2107 42.4142 31.5858C42.7893 31.9609 43 32.4696 43 33Z" fill="#BE927C"/>
        <path d="M41 24H37V31H41V24Z" fill="#DAD7E5"/>
        <path d="M41 24V29C40.4696 29 39.9609 28.7893 39.5858 28.4142C39.2107 28.0391 39 27.5304 39 27V24H41Z" fill="#EDEBF2"/>
        <path d="M47 13.94V24H31V13.94C31.0005 11.253 31.7492 8.61927 33.1622 6.33381C34.5752 4.04834 36.5966 2.20143 39 1C41.4034 2.20143 43.4248 4.04834 44.8378 6.33381C46.2508 8.61927 46.9995 11.253 47 13.94Z" fill="#DAD7E5"/>
        <path d="M47 13.94V22H44.06C41.3919 22 38.8331 20.9401 36.9465 19.0535C35.0599 17.1669 34 14.6081 34 11.94C34.0008 9.86468 34.4476 7.81378 35.3103 5.92626C36.173 4.03873 37.4313 2.3587 39 1C41.4034 2.20143 43.4248 4.04834 44.8378 6.33381C46.2508 8.61927 46.9995 11.253 47 13.94Z" fill="#EDEBF2"/>
        <path d="M27 24.9999H15V21.9099C22.91 23.0299 28.19 16.9099 26.56 9.2699C26.5198 9.08088 26.4257 8.90755 26.289 8.7709C26.1523 8.63425 25.979 8.54012 25.79 8.4999C21.5 7.5899 17.16 8.7499 14.69 12.4499C13.47 7.2399 8.51 3.9999 2.21 5.2999C2.02097 5.34012 1.84765 5.43425 1.711 5.5709C1.57435 5.70755 1.48022 5.88088 1.44 6.0699C-0.18 13.7299 5.08 19.8299 13 18.7099V24.9999H1C0.734784 24.9999 0.48043 25.1053 0.292893 25.2928C0.105357 25.4803 0 25.7347 0 25.9999L0 31.9999C0 32.2651 0.105357 32.5195 0.292893 32.707C0.48043 32.8945 0.734784 32.9999 1 32.9999H2.12L4 47.1299C4.03173 47.372 4.15094 47.5941 4.33515 47.7544C4.51936 47.9146 4.75584 48.002 5 47.9999H23C23.2442 48.002 23.4806 47.9146 23.6648 47.7544C23.8491 47.5941 23.9683 47.372 24 47.1299L25.88 32.9999H27C27.2652 32.9999 27.5196 32.8945 27.7071 32.707C27.8946 32.5195 28 32.2651 28 31.9999V25.9999C28 25.7347 27.8946 25.4803 27.7071 25.2928C27.5196 25.1053 27.2652 24.9999 27 24.9999ZM24.73 10.3299C25.62 16.1299 21.87 20.3299 16.2 20.0399L21.44 14.7899C21.627 14.5989 21.7304 14.3415 21.7276 14.0743C21.7248 13.8071 21.616 13.5519 21.425 13.3649C21.234 13.1779 20.9766 13.0745 20.7094 13.0773C20.4422 13.0801 20.187 13.1889 20 13.3799L15 18.3799C15 12.8499 19.21 9.4799 24.73 10.3299ZM3.27 7.1299C9.08 6.2299 13.32 9.9999 13 15.6899L8 10.6899C7.81302 10.4989 7.55785 10.3901 7.29061 10.3873C7.02337 10.3845 6.76596 10.4879 6.575 10.6749C6.38404 10.8619 6.27519 11.1171 6.27237 11.3843C6.26956 11.6515 6.37302 11.9089 6.56 12.0999L11.3 16.8399C5.78 16.8999 2.42 12.6499 3.27 7.1299ZM22.12 45.9999H5.88L4.14 32.9999H23.86L22.12 45.9999ZM26 30.9999H2V26.9999H26V30.9999ZM39.45 0.109901C39.3104 0.0395668 39.1563 0.00292969 39 0.00292969C38.8437 0.00292969 38.6896 0.0395668 38.55 0.109901C35.9751 1.38611 33.8092 3.35824 32.298 5.80268C30.7868 8.24712 29.9907 11.0661 30 13.9399V23.9999C30 24.2651 30.1054 24.5195 30.2929 24.707C30.4804 24.8945 30.7348 24.9999 31 24.9999H36V30.1799C35.4165 30.3862 34.911 30.768 34.5529 31.2728C34.1949 31.7777 34.0017 32.381 34 32.9999V42.9999C34 44.326 34.5268 45.5978 35.4645 46.5354C36.4021 47.4731 37.6739 47.9999 39 47.9999C40.3261 47.9999 41.5979 47.4731 42.5355 46.5354C43.4732 45.5978 44 44.326 44 42.9999V32.9999C43.9983 32.381 43.8051 31.7777 43.4471 31.2728C43.089 30.768 42.5835 30.3862 42 30.1799V24.9999H47C47.2652 24.9999 47.5196 24.8945 47.7071 24.707C47.8946 24.5195 48 24.2651 48 23.9999V13.9399C48.0093 11.0661 47.2132 8.24712 45.702 5.80268C44.1908 3.35824 42.0249 1.38611 39.45 0.109901ZM37 31.9999H41C41.2652 31.9999 41.5196 32.1053 41.7071 32.2928C41.8946 32.4803 42 32.7347 42 32.9999V33.9999H36V32.9999C36 32.7347 36.1054 32.4803 36.2929 32.2928C36.4804 32.1053 36.7348 31.9999 37 31.9999ZM39 45.9999C38.2044 45.9999 37.4413 45.6838 36.8787 45.1212C36.3161 44.5586 36 43.7956 36 42.9999V35.9999H42V42.9999C42 43.7956 41.6839 44.5586 41.1213 45.1212C40.5587 45.6838 39.7956 45.9999 39 45.9999ZM40 29.9999H38V24.9999H40V29.9999ZM46 22.9999H32V13.9399C31.9933 11.5231 32.6404 9.14943 33.8727 7.07036C35.105 4.99129 36.8766 3.2842 39 2.1299C41.1234 3.2842 42.895 4.99129 44.1273 7.07036C45.3596 9.14943 46.0067 11.5231 46 13.9399V22.9999Z" fill="black"/>
    </g>
    <defs>
        <clipPath id="clip0_202_85">
            <rect width="48" height="48" fill="white"/>
        </clipPath>
    </defs>
</svg>
