<svg width="123" height="86" viewBox="0 0 123 86" fill="none" xmlns="http://www.w3.org/2000/svg">
    <g clip-path="url(#clip0_202_106)">
        <path fill-rule="evenodd" clip-rule="evenodd" d="M56.6 35V34.78L90 21.61L59.36 39.17C64.1173 43.8843 70.4335 46.6974 77.12 47.08C91.02 48 103.84 41.81 112.41 31.08C114.043 28.9948 115.473 26.758 116.68 24.4C118.19 21.52 123.58 11.83 122.8 9.51003C121.66 6.13003 105.8 3.80003 102.17 3.31003C83.31 0.700028 60.27 3.83003 55.15 26C54.9066 27.082 54.8324 28.1953 54.93 29.3L53.87 30L52.87 29.27C53.0644 28.5022 53.1552 27.7119 53.14 26.92C52.67 7.79003 34.22 1.32003 18.26 0.260028C15.19 0.0600282 1.73001 -0.699972 0.230015 1.89003C-0.809985 3.66003 2.00001 12.55 2.75001 15.18C3.34855 17.3242 4.14879 19.4068 5.14001 21.4C7.6381 26.4983 11.345 30.9085 15.9376 34.2462C20.5303 37.584 25.8695 39.7481 31.49 40.55C37.0742 41.3689 42.7651 40.1169 47.49 37.03L25.22 17.41L49.22 33.06V33.23C51.13 39.92 50.8 49.61 48.95 57.71L58.56 61C56.56 53.5 54.15 42.47 56.56 35H56.6Z" fill="#338032"/>
        <path fill-rule="evenodd" clip-rule="evenodd" d="M9.93 80.47C7.52 80.58 5.76 84 6.6 86H97.46C96.6531 83.99 95.3357 82.2252 93.6381 80.8801C91.9405 79.535 89.9213 78.656 87.78 78.33C86.6 66.15 74.7 61.8 65.93 66.47C69.22 57.34 62.23 55.41 57.25 56.78C54.75 53.7 45.25 56.15 44.95 61.7C33.22 53.78 22.08 60.35 23.24 71.54C19.29 69.26 9.63 70.62 9.93 80.47Z" fill="#432A16"/>
    </g>
    <defs>
        <clipPath id="clip0_202_106">
            <rect width="122.88" height="85.97" fill="white"/>
        </clipPath>
    </defs>
</svg>
