<svg width="123" height="101" viewBox="0 0 123 101" fill="none" xmlns="http://www.w3.org/2000/svg">
    <g clip-path="url(#clip0_202_109)">
        <path fill-rule="evenodd" clip-rule="evenodd" d="M69.54 45.79L72.66 44.79C79.45 47.12 85.21 65.1 76 69.94C64.66 75.94 62.31 61.54 51.62 68.44L46 71.54L43.76 62.44C48.31 60.38 55.55 55.92 60.44 56.69C63.34 57.15 66.3 59.07 69.05 60.33C71.63 61.46 74.8 59.97 73.15 55.6L69.5 45.79H69.54Z" fill="#51B53C"/>
        <path fill-rule="evenodd" clip-rule="evenodd" d="M29.33 28.41C29.88 26.41 39.09 24.47 41.2 24.05C52.14 21.88 65.75 22.91 69.52 35.71C69.9094 37.4707 69.7879 39.306 69.17 41L49 34.35L67.53 43.56C64.9115 46.4895 61.3122 48.3603 57.41 48.82C53.4765 49.2952 49.4865 48.801 45.7878 47.3804C42.0891 45.9599 38.7941 43.6561 36.19 40.67C35.1625 39.504 34.2452 38.2453 33.45 36.91C32.45 35.27 28.98 29.79 29.35 28.41H29.33Z" fill="#1F8E5B"/>
        <path fill-rule="evenodd" clip-rule="evenodd" d="M122.56 1.42993C120.85 -1.14007 107.05 0.42993 103.91 0.85993C87.55 2.92993 69 10.7099 69.67 30.4099C69.75 32.9999 71 35.3199 72.6 37.5799L97.8 18.9199L76.13 40.4699C81.1689 43.3503 87.087 44.2892 92.77 43.1099C98.5018 41.9408 103.861 39.388 108.38 35.6738C112.9 31.9596 116.443 27.1966 118.7 21.7999C119.599 19.6882 120.292 17.4947 120.77 15.2499C121.39 12.4999 123.77 3.18993 122.56 1.42993Z" fill="#1F8E5B"/>
        <path fill-rule="evenodd" clip-rule="evenodd" d="M18.2 64.16C28.2 58.36 38.91 56.8 45.97 59.42L45.45 67.5L53.9 69.63C54.33 77.7 47.23 87.86 35.72 94.5C21.64 102.63 6.31 102.42 1.47 94C-3.37 85.58 4.12 72.28 18.2 64.16Z" fill="#8C5D0F"/>
        <path d="M43.44 58.46C43.3267 58.1718 43.2735 57.8635 43.2838 57.554C43.2941 57.2445 43.3676 56.9404 43.4998 56.6604C43.632 56.3803 43.8201 56.1303 44.0525 55.9256C44.2849 55.721 44.5568 55.5661 44.8513 55.4704C45.1458 55.3747 45.4568 55.3404 45.7651 55.3693C46.0734 55.3983 46.3725 55.4901 46.6441 55.639C46.9156 55.7879 47.1538 55.9908 47.344 56.2352C47.5342 56.4796 47.6723 56.7603 47.75 57.06C48.3496 58.8651 48.6403 60.7583 48.61 62.66C48.5898 63.6201 48.4895 64.5767 48.31 65.52C49.5772 65.7276 50.8202 66.0626 52.02 66.52C54.0221 67.275 55.8443 68.4399 57.37 69.94C57.7983 70.3604 58.0421 70.9337 58.0477 71.5338C58.0534 72.1339 57.8204 72.7117 57.4 73.14C56.9796 73.5684 56.4063 73.8122 55.8062 73.8178C55.2061 73.8234 54.6283 73.5904 54.2 73.17C53.1205 72.104 51.8293 71.2761 50.41 70.74C48.8064 70.1453 47.119 69.8078 45.41 69.74C45.0544 69.732 44.7058 69.6397 44.3928 69.4708C44.0797 69.3019 43.8112 69.0612 43.6092 68.7685C43.4072 68.4757 43.2775 68.1392 43.2307 67.7866C43.1839 67.434 43.2214 67.0754 43.34 66.74C43.8205 65.4043 44.0806 63.9993 44.11 62.58C44.1354 61.1768 43.9189 59.7797 43.47 58.45L43.44 58.46Z" fill="#AF7311"/>
    </g>
    <defs>
        <clipPath id="clip0_202_109">
            <rect width="122.88" height="100.47" fill="white"/>
        </clipPath>
    </defs>
</svg>
