<svg width="511" height="512" viewBox="0 0 511 512" fill="none" xmlns="http://www.w3.org/2000/svg">
    <g clip-path="url(#clip0_202_115)">
        <path d="M270.095 327.935L278.581 319.449L253.459 294.351C252.329 293.311 251.57 291.931 251.295 290.421C251.02 288.91 251.245 287.351 251.936 285.98C263.127 263.827 270.563 243.351 274.528 224.437C278.445 205.765 278.987 188.613 276.444 172.865C271.711 143.601 258.547 120.422 240.207 103.319C223.806 88.024 203.207 77.51 180.742 71.765C158.072 65.967 133.555 65.019 109.536 68.901C73.331 74.752 38.264 91.564 12.365 119.262C11.4077 120.351 10.1386 121.119 8.72989 121.462C7.32117 121.806 5.84095 121.707 4.48998 121.181C2.74726 120.499 1.3465 119.153 0.595516 117.439C-0.155464 115.725 -0.195222 113.783 0.48498 112.04C12.65 81.04 33.981 55.565 60.335 36.784L60.735 36.476C88.767 16.615 122.477 4.31097 156.857 0.973974C174.227 -0.709026 190.895 -0.180026 206.604 2.32597C243.635 8.23397 275.391 25.091 298.805 49.791C322.241 74.507 337.301 107.049 340.916 144.283C342.42 159.785 341.936 176.1 339.243 192.99C337.084 206.526 333.501 220.265 328.448 233.997L328.256 234.598C323.871 246.419 318.346 258.285 311.658 270.066L319.78 278.25L326.939 271.092C330.896 267.134 337.389 267.134 341.346 271.092L496.291 426.034L496.791 426.577C506.26 436.319 511 449 511 461.66C511 474.562 506.095 487.482 496.291 497.285C486.485 507.091 473.568 511.997 460.666 511.997C447.76 511.997 434.846 507.091 425.043 497.288L270.095 342.343C266.138 338.385 266.138 331.893 270.095 327.935Z" fill="black"/>
        <path fill-rule="evenodd" clip-rule="evenodd" d="M314.795 283.236L302.846 271.196C318.431 245.043 328.101 218.096 332.283 191.886C349.942 81.2189 269.27 -2.86306 157.52 7.98794C93.13 14.2379 31.21 53.0689 7.05798 114.608C89.972 25.7029 262.768 44.1209 283.404 171.761C288.77 204.947 281.173 243.739 258.234 289.157L283.567 314.463L314.795 283.236Z" fill="#7D8F9B"/>
        <path fill-rule="evenodd" clip-rule="evenodd" d="M293.79 304.24L285.261 295.644C300.847 269.491 310.517 242.544 314.699 216.335C332.358 105.667 251.685 21.586 139.935 32.437C93.221 36.971 47.808 58.659 17.174 93.721C13.2726 100.414 9.89072 107.397 7.05798 114.608C89.972 25.703 262.768 44.121 283.404 171.761C288.77 204.947 281.173 243.739 258.234 289.157L283.567 314.463L293.79 304.24Z" fill="#B1BCC2"/>
        <path fill-rule="evenodd" clip-rule="evenodd" d="M276.492 334.332L333.335 277.488C333.55 277.275 333.84 277.156 334.142 277.156C334.444 277.156 334.734 277.275 334.949 277.488L366.511 309.05C366.198 309.29 365.896 309.555 365.61 309.841L308 367.454L276.492 335.946C276.279 335.732 276.159 335.442 276.159 335.139C276.159 334.837 276.279 334.546 276.492 334.332ZM379.194 321.734L489.894 432.431C505.969 448.508 505.969 474.811 489.894 490.888C473.817 506.965 447.511 506.965 431.437 490.888L320.793 380.247L378.404 322.634C378.689 322.348 378.954 322.046 379.194 321.734Z" fill="#F6C343"/>
    </g>
    <defs>
        <clipPath id="clip0_202_115">
            <rect width="511" height="511.997" fill="white"/>
        </clipPath>
    </defs>
</svg>
