<svg width="512" height="400" viewBox="0 0 512 400" fill="none" xmlns="http://www.w3.org/2000/svg">
    <g clip-path="url(#clip0_202_120)">
        <path fill-rule="evenodd" clip-rule="evenodd" d="M206.368 165.609C249.829 202.845 263.317 260.159 246.155 313.748H363.031C371.744 276.01 405.561 247.878 445.946 247.878C456.279 247.867 466.528 249.744 476.187 253.415L488.266 182.397C490.862 167.134 475.599 154.25 460.121 154.25H275.234C288.073 93.549 273.069 72.835 264.434 11.093C261.014 2.239 254.314 0.248 246.792 0H90.499C82.656 0.071 77.218 3.962 74.366 12.102L63.78 114.194L42.679 139.134C33.447 149.8 36.142 147.327 44.618 160.077C46.0623 159.009 47.5369 157.983 49.04 156.999C93.459 127.9 164.573 133.16 206.368 165.609ZM120.095 33.767H220.653C230.225 33.767 236.178 41.795 238.053 51.166L249.395 107.906C251.269 117.28 240.848 128.915 231.999 125.302C193.455 109.567 153.607 101.641 112.534 101.103C102.974 100.974 92.967 93.023 95.133 83.702L102.696 51.166C104.863 41.843 110.524 33.767 120.095 33.767Z" fill="#EA3E26"/>
        <path fill-rule="evenodd" clip-rule="evenodd" d="M120.093 33.767H220.655C230.224 33.767 236.18 41.795 238.053 51.164L249.395 107.906C251.269 117.28 240.847 128.915 231.997 125.303C193.454 109.57 153.607 101.641 112.532 101.1C102.974 100.974 92.967 93.023 95.134 83.702L102.696 51.164C104.862 41.843 110.524 33.767 120.093 33.767Z" fill="#BEEDF6"/>
        <path fill-rule="evenodd" clip-rule="evenodd" d="M249.615 110.112C249.666 118.986 240.162 128.636 231.997 125.303C225.73 122.745 219.386 120.378 212.975 118.207L102.004 54.14L102.696 51.164C104.674 42.652 109.567 35.18 117.69 33.947L249.615 110.112ZM148.669 33.767H173.999L242.477 73.303L245.783 89.835L148.669 33.767Z" fill="white"/>
        <path fill-rule="evenodd" clip-rule="evenodd" d="M112.971 161.534C175.364 161.534 225.944 212.113 225.944 274.505C225.944 336.897 175.364 387.476 112.971 387.476C50.579 387.476 0 336.897 0 274.505C0 212.113 50.579 161.534 112.971 161.534ZM445.944 266.914C482.426 266.914 512 296.487 512 332.968C512 369.451 482.426 399.025 445.944 399.025C409.463 399.025 379.888 369.451 379.888 332.968C379.888 296.487 409.463 266.914 445.944 266.914Z" fill="#182C3D"/>
        <path d="M353.333 21.97C353.627 21.6884 354.019 21.5318 354.426 21.5333C354.833 21.5348 355.224 21.6943 355.516 21.9781C355.808 22.2619 355.978 22.648 355.992 23.0549C356.005 23.4619 355.859 23.8581 355.586 24.16C354.393 25.384 354.851 27.131 355.279 28.763C355.999 31.506 356.669 34.058 353.351 35.956C352.99 36.1519 352.566 36.1986 352.171 36.0862C351.775 35.9738 351.439 35.7111 351.235 35.3544C351.031 34.9977 350.974 34.5752 351.077 34.1773C351.18 33.7794 351.435 33.4376 351.787 33.225C353.017 32.522 352.643 31.095 352.242 29.564C351.595 27.098 350.902 24.463 353.333 21.97ZM364.701 76.13C369.983 76.373 374.228 80.775 374.228 86.108V154.25H342.312V86.108C342.312 80.865 346.407 76.531 351.557 76.147V40.914H364.701V76.13ZM362.845 21.97C363.139 21.6884 363.531 21.5318 363.938 21.5333C364.345 21.5348 364.736 21.6943 365.028 21.9781C365.32 22.2619 365.49 22.648 365.504 23.0549C365.517 23.4619 365.371 23.8581 365.098 24.16C363.907 25.384 364.363 27.129 364.791 28.762C365.511 31.506 366.181 34.058 362.862 35.956C362.501 36.1519 362.077 36.1986 361.682 36.0862C361.286 35.9738 360.95 35.7111 360.746 35.3544C360.542 34.9977 360.485 34.5752 360.588 34.1773C360.691 33.7794 360.946 33.4376 361.298 33.225C362.529 32.522 362.155 31.095 361.753 29.562C361.106 27.097 360.417 24.463 362.845 21.97Z" fill="#182C3D"/>
        <path fill-rule="evenodd" clip-rule="evenodd" d="M367.348 187.298H434.124L432.62 195.001H366.032L367.348 187.298ZM343.904 228.873H434.124L432.62 236.575H342.59L343.904 228.873ZM352.223 208.085H434.124L432.62 215.788H350.907L352.223 208.085Z" fill="#A1321E"/>
        <path fill-rule="evenodd" clip-rule="evenodd" d="M445.944 294.222C467.344 294.222 484.692 311.57 484.692 332.968C484.692 354.369 467.344 371.716 445.944 371.716C424.545 371.716 407.197 354.369 407.197 332.968C407.197 311.57 424.545 294.222 445.944 294.222Z" fill="#D2D8D3"/>
        <path d="M163.128 32.114C163.128 20.721 180.451 20.721 180.451 32.114V114.684C180.451 126.078 163.128 126.078 163.128 114.684V32.114Z" fill="#EA3E26"/>
        <path fill-rule="evenodd" clip-rule="evenodd" d="M112.972 206.315C150.632 206.315 181.16 236.845 181.16 274.505C181.16 312.164 150.632 342.694 112.972 342.694C75.312 342.694 44.783 312.164 44.783 274.505C44.783 236.845 75.312 206.315 112.972 206.315Z" fill="#D2D8D3"/>
        <path d="M112.972 308.015C131.479 308.015 146.482 293.012 146.482 274.505C146.482 255.998 131.479 240.995 112.972 240.995C94.4649 240.995 79.462 255.998 79.462 274.505C79.462 293.012 94.4649 308.015 112.972 308.015Z" fill="white"/>
        <path d="M445.944 349.095C454.85 349.095 462.07 341.875 462.07 332.969C462.07 324.063 454.85 316.843 445.944 316.843C437.038 316.843 429.818 324.063 429.818 332.969C429.818 341.875 437.038 349.095 445.944 349.095Z" fill="white"/>
        <path d="M112.972 288.201C120.536 288.201 126.667 282.07 126.667 274.506C126.667 266.943 120.536 260.811 112.972 260.811C105.408 260.811 99.277 266.943 99.277 274.506C99.277 282.07 105.408 288.201 112.972 288.201Z" fill="black"/>
        <path d="M112.973 230.882C114.29 230.882 115.358 229.814 115.358 228.497C115.358 227.18 114.29 226.112 112.973 226.112C111.656 226.112 110.588 227.18 110.588 228.497C110.588 229.814 111.656 230.882 112.973 230.882Z" fill="black"/>
        <path d="M134.785 236.724C135.924 237.382 137.381 236.991 138.039 235.852C138.697 234.713 138.307 233.256 137.167 232.598C136.028 231.94 134.571 232.33 133.913 233.47C133.255 234.609 133.645 236.066 134.785 236.724Z" fill="black"/>
        <path d="M150.753 252.692C151.411 253.831 152.868 254.222 154.007 253.564C155.147 252.906 155.537 251.449 154.879 250.309C154.221 249.17 152.764 248.78 151.625 249.438C150.486 250.095 150.095 251.552 150.753 252.692Z" fill="black"/>
        <path d="M156.598 274.506C156.598 275.822 157.664 276.888 158.98 276.888C160.296 276.888 161.362 275.822 161.362 274.506C161.362 273.19 160.296 272.124 158.98 272.124C157.664 272.124 156.598 273.19 156.598 274.506Z" fill="black"/>
        <path d="M150.754 296.318C150.096 297.457 150.486 298.914 151.626 299.572C152.765 300.23 154.222 299.84 154.88 298.7C155.538 297.561 155.148 296.104 154.008 295.446C152.869 294.788 151.412 295.179 150.754 296.318Z" fill="black"/>
        <path d="M134.784 312.284C133.645 312.942 133.254 314.399 133.912 315.539C134.57 316.678 136.027 317.069 137.166 316.411C138.306 315.753 138.696 314.296 138.038 313.156C137.38 312.017 135.923 311.626 134.784 312.284Z" fill="black"/>
        <path d="M112.973 322.898C114.29 322.898 115.358 321.83 115.358 320.513C115.358 319.196 114.29 318.128 112.973 318.128C111.656 318.128 110.588 319.196 110.588 320.513C110.588 321.83 111.656 322.898 112.973 322.898Z" fill="black"/>
        <path d="M91.1601 312.284C90.0207 311.626 88.5637 312.017 87.9058 313.156C87.2479 314.296 87.6383 315.753 88.7778 316.41C89.9172 317.068 91.3742 316.678 92.0321 315.538C92.69 314.399 92.2996 312.942 91.1601 312.284Z" fill="black"/>
        <path d="M75.1922 296.318C74.5344 295.178 73.0774 294.788 71.9379 295.446C70.7985 296.104 70.4081 297.561 71.0659 298.7C71.7238 299.84 73.1808 300.23 74.3202 299.572C75.4597 298.914 75.8501 297.457 75.1922 296.318Z" fill="black"/>
        <path d="M69.3473 274.505C69.3473 273.189 68.2807 272.123 66.965 272.123C65.6492 272.123 64.5826 273.189 64.5826 274.505C64.5826 275.821 65.6492 276.887 66.965 276.887C68.2807 276.887 69.3473 275.821 69.3473 274.505Z" fill="black"/>
        <path d="M75.1917 252.691C75.8496 251.552 75.4592 250.095 74.3198 249.437C73.1803 248.779 71.7233 249.17 71.0654 250.309C70.4076 251.449 70.798 252.906 71.9374 253.563C73.0769 254.221 74.5339 253.831 75.1917 252.691Z" fill="black"/>
        <path d="M91.1597 236.724C92.2992 236.066 92.6896 234.609 92.0317 233.47C91.3739 232.33 89.9168 231.94 88.7774 232.598C87.6379 233.256 87.2475 234.713 87.9054 235.852C88.5633 236.992 90.0203 237.382 91.1597 236.724Z" fill="black"/>
        <path d="M445.944 338.841C449.188 338.841 451.817 336.212 451.817 332.968C451.817 329.724 449.188 327.095 445.944 327.095C442.7 327.095 440.071 329.724 440.071 332.968C440.071 336.212 442.7 338.841 445.944 338.841Z" fill="black"/>
        <path d="M445.944 310.001C446.923 310.001 447.716 309.208 447.716 308.229C447.716 307.25 446.923 306.457 445.944 306.457C444.965 306.457 444.172 307.25 444.172 308.229C444.172 309.208 444.965 310.001 445.944 310.001Z" fill="black"/>
        <path d="M462.187 316.727C462.878 317.418 463.999 317.418 464.69 316.727C465.381 316.035 465.381 314.915 464.69 314.224C463.999 313.532 462.878 313.532 462.187 314.224C461.496 314.915 461.496 316.035 462.187 316.727Z" fill="black"/>
        <path d="M468.914 332.968C468.914 333.946 469.706 334.738 470.684 334.738C471.661 334.738 472.454 333.946 472.454 332.968C472.454 331.991 471.661 331.198 470.684 331.198C469.706 331.198 468.914 331.991 468.914 332.968Z" fill="black"/>
        <path d="M462.187 349.21C461.495 349.901 461.495 351.022 462.187 351.713C462.878 352.404 463.998 352.404 464.69 351.713C465.381 351.022 465.381 349.901 464.69 349.21C463.998 348.519 462.878 348.519 462.187 349.21Z" fill="black"/>
        <path d="M445.944 359.48C446.923 359.48 447.716 358.687 447.716 357.708C447.716 356.729 446.923 355.936 445.944 355.936C444.965 355.936 444.172 356.729 444.172 357.708C444.172 358.687 444.965 359.48 445.944 359.48Z" fill="black"/>
        <path d="M429.703 349.211C429.012 348.52 427.891 348.52 427.2 349.211C426.509 349.902 426.509 351.023 427.2 351.714C427.891 352.405 429.012 352.405 429.703 351.714C430.394 351.023 430.394 349.902 429.703 349.211Z" fill="black"/>
        <path d="M422.974 332.968C422.974 331.99 422.181 331.198 421.204 331.198C420.226 331.198 419.434 331.99 419.434 332.968C419.434 333.945 420.226 334.738 421.204 334.738C422.181 334.738 422.974 333.945 422.974 332.968Z" fill="black"/>
        <path d="M429.703 316.726C430.394 316.035 430.394 314.914 429.703 314.223C429.011 313.532 427.891 313.532 427.2 314.223C426.508 314.914 426.508 316.035 427.2 316.726C427.891 317.417 429.011 317.417 429.703 316.726Z" fill="black"/>
    </g>
    <defs>
        <clipPath id="clip0_202_120">
            <rect width="512" height="399.025" fill="white"/>
        </clipPath>
    </defs>
</svg>
