<svg width="32" height="64" viewBox="0 0 32 64" fill="none" xmlns="http://www.w3.org/2000/svg">
    <path opacity="0.3" d="M16.5 59C20.6421 59 24 57.2091 24 55C24 52.7909 20.6421 51 16.5 51C12.3579 51 9 52.7909 9 55C9 57.2091 12.3579 59 16.5 59Z" fill="black"/>
    <path d="M18 31V55C18 55.6 17.3 56 16.5 56C15.7 56 15 55.6 15 55V31H18Z" fill="#825012"/>
    <path d="M25.5 36C29.0899 36 32 33.0899 32 29.5C32 25.9101 29.0899 23 25.5 23C21.9101 23 19 25.9101 19 29.5C19 33.0899 21.9101 36 25.5 36Z" fill="#539B00"/>
    <path d="M22 30C26.9706 30 31 25.9706 31 21C31 16.0294 26.9706 12 22 12C17.0294 12 13 16.0294 13 21C13 25.9706 17.0294 30 22 30Z" fill="#539B00"/>
    <path d="M16 43.4C13.4 43.4 13 42.5 13 40V32H12V42C12 43.7 13.3 45 15 45H16V43.4ZM17 44.8C18.7 44.8 20 44.4 20 42.7V33H21V43C21 44.7 19.7 46 18 46H17V44.8Z" fill="#825012"/>
    <path d="M13 41.8C11.3 41.8 11 40.5 11 39.7V30H10V40C10 41.7 11.3 43 13 43V41.8Z" fill="#825012"/>
    <path d="M12 40C16.9706 40 21 35.9706 21 31C21 26.0294 16.9706 22 12 22C7.02944 22 3 26.0294 3 31C3 35.9706 7.02944 40 12 40Z" fill="#539B00"/>
    <path d="M7 33C10.3137 33 13 30.3137 13 27C13 23.6863 10.3137 21 7 21C3.68629 21 1 23.6863 1 27C1 30.3137 3.68629 33 7 33Z" fill="#539B00"/>
    <path d="M12 30.8C10.3 30.8 9 30.4 9 28.7V26H8V29C8 30.7 9.3 32 11 32H12V30.8Z" fill="#825012"/>
    <path d="M11 27C15.4183 27 19 23.4183 19 19C19 14.5817 15.4183 11 11 11C6.58172 11 3 14.5817 3 19C3 23.4183 6.58172 27 11 27Z" fill="#539B00"/>
    <path d="M15 23C19.4183 23 23 19.4183 23 15C23 10.5817 19.4183 7 15 7C10.5817 7 7 10.5817 7 15C7 19.4183 10.5817 23 15 23Z" fill="#539B00"/>
    <path d="M21.5 17C23.9853 17 26 14.9853 26 12.5C26 10.0147 23.9853 8 21.5 8C19.0147 8 17 10.0147 17 12.5C17 14.9853 19.0147 17 21.5 17Z" fill="#539B00"/>
    <path opacity="0.2" d="M7.09998 21C9.29998 21 11.2 22.3 12 24.1C12.3 24 12.7 24 13.1 24C14.9 24 16.5 24.9 17.5 26.2C17.1 24.4 15.5 23 13.6 23H13.5C13 20.7 11 19 8.59998 19C6.59998 19 4.89998 20.2 4.09998 21.9C4.89998 21.3 5.99998 21 7.09998 21Z" fill="white"/>
    <path d="M15 18.4C15.2 18.6 15.5 18.8 15.7 19H16V16C15.7 16 15.3 15.9 15 15.8V18.4Z" fill="#825012"/>
    <path opacity="0.2" d="M15.5 11C17.9 11 19.8 12.9 20 15.2C20.5 15.1 21 15 21.5 15C24 15 26.1 16.6 26.8 18.9C26.9 18.5 27 18 27 17.5C27 15 25 13 22.5 13C22 13 21.5 13.1 21 13.3C20.9 11.5 19.4 10 17.5 10C16.5 10 15.6 10.4 15 11H15.5Z" fill="white"/>
    <path opacity="0.3" d="M30.9 22.4001C29.2 24.3001 26.8 25.5001 24.1 25.5001H23.5C24.5 26.6001 25.1 27.9001 25.2 29.4001C28.1 28.3001 30.4 25.6001 30.9 22.4001ZM28.5 32.7001C28.8 33.4001 28.9 34.2001 29 35.0001C30.7 33.9001 31.9 32.1001 32 30.0001C31.2 31.3001 29.9 32.2001 28.5 32.7001ZM6.7 21.0001C5.1 19.6001 4 17.5001 4 15.1001C3.4 16.2001 3 17.6001 3 19.0001C3 20.1001 3.2 21.1001 3.6 22.1001C4.5 21.4001 5.6 21.1001 6.7 21.0001Z" fill="black"/>
    <path d="M22 22.6C22 24.3001 20.7 24.7001 19 24.7001V26H20C21.7 26 23 24.7 23 23V21C22.7 21 22.3 20.9 22 20.8V22.6Z" fill="#825012"/>
    <path d="M19.8 43.1C24.9362 43.1 29.1 38.9362 29.1 33.8C29.1 28.6638 24.9362 24.5 19.8 24.5C14.6638 24.5 10.5 28.6638 10.5 33.8C10.5 38.9362 14.6638 43.1 19.8 43.1Z" fill="#539B00"/>
    <path opacity="0.2" d="M16 31C17.2 31 18.3 31.3 19.3 31.8C20.5 30.7 22.2 30 24 30C25.6 30 27.1 30.5 28.2 31.4C27.1 29.4 24.9 28 22.5 28C20.9 28 19.4 28.6 18.3 29.6C17.6 29.2 16.8 29 16 29C13.6 29 11.6 30.7 11.1 33C12.4 31.8 14.1 31 16 31Z" fill="white"/>
    <path opacity="0.3" d="M20.8 41.0001C17 41.0001 13.8 39.0001 12 36.0001H11.1C7.59998 36.0001 4.59998 34.0001 3.09998 31.1001C3.09998 36.0001 7.09998 40.0001 12 40.0001H12.9C14.6 41.9001 17 43.0001 19.7 43.0001C23.3 43.0001 26.3 41.0001 27.9 38.1001C26.1 39.9001 23.5 41.0001 20.8 41.0001Z" fill="black"/>
</svg>
