<svg width="102" height="123" viewBox="0 0 102 123" fill="none" xmlns="http://www.w3.org/2000/svg">
    <g clip-path="url(#clip0_202_175)">
        <path fill-rule="evenodd" clip-rule="evenodd" d="M63.94 10.12C71.59 42.87 101.76 66.68 101.76 86C101.76 132.84 33.15 135.07 26.66 92.64C24.8263 92.4123 23.0138 92.0378 21.24 91.52C17.5351 90.4576 14.0619 88.7109 11 86.37C3.92 80.9 0.68 74.41 0.1 67.56C-0.58 59.62 2.39 51.32 7 43.6C8.76 40.66 10.37 38.11 12 35.49C18.34 25.49 25.49 14.25 28.28 2.18001C28.4253 1.56377 28.7745 1.01467 29.2709 0.621688C29.7673 0.22871 30.3819 0.0148926 31.015 0.0148926C31.6481 0.0148926 32.2627 0.22871 32.7591 0.621688C33.2555 1.01467 33.6047 1.56377 33.75 2.18001C36.56 14.18 43.7 25.45 50.03 35.43L51.85 38.3C57 29.7 61.58 20.37 63.94 10.12ZM26.19 86.9C26.19 86.6 26.19 86.31 26.19 86C26.19 73.9 37.91 60.18 48.58 43.6C47.58 41.98 46.46 40.22 45.33 38.43C40.28 30.48 34.74 21.74 31.07 12.25C27.38 21.8 21.82 30.54 16.77 38.5C14.9 41.43 13.11 44.25 11.77 46.5C7.77 53.29 5.11 60.5 5.68 67.14C6.14 72.48 8.73 77.58 14.44 81.98C16.9443 83.8805 19.7787 85.301 22.8 86.17C23.906 86.4973 25.0316 86.7545 26.17 86.94L26.19 86.9Z" fill="#42BDFF"/>
        <path fill-rule="evenodd" clip-rule="evenodd" d="M40.93 80.4799C40.8887 79.4943 41.2282 78.5307 41.8782 77.7887C42.5282 77.0467 43.4388 76.5833 44.4212 76.4946C45.4037 76.4059 46.3826 76.6986 47.155 77.3121C47.9274 77.9256 48.4341 78.8129 48.57 79.7899C48.8929 84.6021 50.1567 89.3043 52.29 93.6299C54.4643 97.7594 57.7745 101.181 61.83 103.49C62.6292 104.035 63.1925 104.862 63.407 105.805C63.6215 106.748 63.4712 107.738 62.9862 108.574C62.5013 109.411 61.7177 110.034 60.7928 110.317C59.8679 110.6 58.8702 110.522 58 110.1C52.6823 107.088 48.3432 102.61 45.5 97.1999C42.8977 91.9791 41.345 86.2985 40.93 80.4799Z" fill="white"/>
    </g>
    <defs>
        <clipPath id="clip0_202_175">
            <rect width="101.76" height="122.88" fill="white"/>
        </clipPath>
    </defs>
</svg>
