<svg width="512" height="284" viewBox="0 0 512 284" fill="none" xmlns="http://www.w3.org/2000/svg">
    <g clip-path="url(#clip0_202_178)">
        <path fill-rule="evenodd" clip-rule="evenodd" d="M288.921 241.108L261.477 177.832L200.213 155.51C195.925 153.949 196.876 154.522 194.973 150.318L179.692 116.556C175.962 108.319 175.749 104.073 167.985 99.172C163.605 96.41 158.86 94.524 153.329 94.521L115.13 206.347C118.77 208.559 122.669 210.25 127.152 210.738C134.844 211.572 139.125 208.185 145.856 204.911C158.705 198.661 171.551 192.409 184.4 186.158C186.198 185.283 185.725 185.137 187.442 186.069L288.921 241.108ZM385.152 28.716L385.633 28.476L406.418 18.597C407.03 18.2526 407.667 17.9541 408.324 17.704C420.795 12.098 434.425 11.922 446.458 16.2C458.504 20.483 468.978 29.227 475.139 41.45C475.496 42.065 475.802 42.702 476.06 43.352L507.054 108.558C513.109 121.294 513.409 135.333 509.018 147.685C504.611 160.081 495.479 170.816 482.693 176.895L471.132 182.389L457.259 157.585C457.736 157.286 458.235 157.011 458.756 156.766L470.55 151.16C476.178 148.485 480.211 143.725 482.169 138.217C484.143 132.667 484.019 126.377 481.32 120.701L449.931 54.668C447.256 49.04 442.498 45.006 436.989 43.049C431.45 41.079 425.178 41.199 419.509 43.879L399.09 53.586L385.743 29.722C385.553 29.3829 385.355 29.0475 385.152 28.716ZM353.67 8.27599C346.077 0.937986 335.992 -2.54701 326.187 2.11499L245.897 40.281C236.082 44.946 231.967 55.131 233.086 65.594L353.67 8.27599Z" fill="#331A11"/>
        <path d="M2.27594 120.357C-3.24706 125.143 2.16294 134.124 9.11094 131.239C9.71037 130.976 10.2674 130.625 10.7639 130.198C13.7769 127.568 17.1009 125.08 20.4469 122.887C26.5139 118.883 22.4199 109.335 15.1749 111.179C14.5185 111.363 13.8938 111.645 13.3219 112.016C9.46794 114.597 5.77194 117.303 2.27594 120.357ZM14.2729 196.608C8.95194 201.566 14.6529 210.32 21.4459 207.256C22.0632 206.966 22.632 206.582 23.1319 206.118C26.0449 203.406 29.3119 200.563 32.5429 198.246C34.7829 196.566 35.6659 193.777 34.8739 191.105C33.5199 186.805 28.4209 185.165 24.7869 187.815C21.0979 190.641 17.6749 193.432 14.2729 196.608ZM48.5579 174.051C41.8499 176.979 44.2579 187.035 51.6749 186.504C52.3538 186.441 53.019 186.275 53.6469 186.009C57.3594 184.419 61.1755 183.082 65.0689 182.009C67.3749 181.373 69.0719 179.61 69.6699 177.303C69.942 176.204 69.922 175.052 69.612 173.963C69.3021 172.873 68.7128 171.884 67.9027 171.093C67.0927 170.301 66.0898 169.735 64.9936 169.45C63.8973 169.166 62.7458 169.173 61.6529 169.47C57.1896 170.7 52.8146 172.23 48.5579 174.051ZM89.4289 166.356C82.1099 165.99 79.8619 176.183 86.7389 178.908C87.3762 179.151 88.047 179.294 88.7279 179.333C92.1649 179.333 97.0569 180.222 100.432 181.008C107.627 182.621 111.554 173.037 105.301 169.129C104.717 168.777 104.082 168.517 103.419 168.36C99.4169 167.417 93.5079 166.356 89.4289 166.356ZM2.55194 164.757C0.863942 166.705 0.489942 169.394 1.54694 171.737C2.0005 172.723 2.69393 173.581 3.56393 174.23C4.43393 174.88 5.45279 175.301 6.52747 175.456C7.60215 175.61 8.69842 175.493 9.71619 175.115C10.734 174.737 11.6408 174.11 12.3539 173.291L12.7289 172.866C14.0379 171.394 14.5879 169.496 14.3059 167.552C13.4149 162.106 6.74194 160.131 3.03594 164.207L2.55194 164.757ZM24.7119 146.725C22.9979 147.767 21.9059 149.43 21.6189 151.41C20.9269 156.85 26.6819 160.642 31.3979 157.869C34.9242 155.766 38.5534 153.84 42.2719 152.099C49.2009 148.763 45.7389 138.366 38.1879 139.85C37.7054 139.955 37.2357 140.112 36.7869 140.318C32.655 142.246 28.6247 144.384 24.7119 146.725ZM62.5189 131.336C61.3677 131.611 60.3134 132.195 59.47 133.026C58.6265 133.856 58.0259 134.901 57.7329 136.048C56.5299 140.772 60.7949 145.121 65.5389 143.976C69.5179 143.021 73.5379 142.286 77.5979 141.777C79.9669 141.455 81.9119 140 82.8259 137.78C84.6869 133.172 80.9449 128.291 76.0169 128.876C71.4766 129.452 66.9707 130.274 62.5189 131.336ZM103.91 129.398C97.1259 128.133 93.2059 136.971 99.0279 141.146C99.7677 141.65 100.603 141.996 101.482 142.164C105.28 142.862 108.957 143.934 112.501 145.474C113.56 145.939 114.725 146.112 115.874 145.977C117.023 145.841 118.115 145.4 119.037 144.701C122.982 141.72 122.251 135.548 117.722 133.572C113.297 131.642 108.656 130.27 103.91 129.398ZM37.7319 99.646C31.0019 102.169 32.7859 112.354 40.2429 112.223C40.9507 112.196 41.6496 112.056 42.3129 111.808C46.1628 110.361 50.0819 109.105 54.0559 108.045C55.5759 107.626 56.8769 106.739 57.7609 105.426C61.1239 100.435 56.5539 93.975 50.7319 95.481C46.333 96.6556 41.9944 98.0456 37.7319 99.646ZM77.7539 91.292C70.3109 91.664 69.1879 102.239 76.5189 104.106C77.1249 104.246 77.6849 104.298 78.3069 104.277C82.3439 104.094 86.4679 104.13 90.4969 104.452C97.9529 104.949 100.329 94.674 93.2889 91.885C92.7246 91.6781 92.135 91.5479 91.5359 91.498C86.9789 91.133 82.3209 91.086 77.7539 91.292ZM118.695 97.57C115.743 96.41 112.368 97.516 110.731 100.243C108.661 103.695 110.155 108.152 113.889 109.645C117.566 111.084 121.051 112.865 124.397 114.958C126.384 116.204 128.912 116.312 130.975 115.175C135.332 112.775 135.53 106.652 131.344 103.974C127.313 101.456 123.123 99.302 118.695 97.57Z" fill="#55A8DD"/>
        <path fill-rule="evenodd" clip-rule="evenodd" d="M329.934 281.166L461.988 218.395C473.921 212.722 479.818 197.92 473.37 186.388L385.742 29.7231C379.294 18.1911 365.666 12.6701 353.736 18.3411L243.147 70.9091C231.216 76.5801 226.895 90.6371 231.765 102.915L297.927 269.784C302.798 282.064 318.001 286.838 329.934 281.166Z" fill="#7D3F27"/>
    </g>
    <defs>
        <clipPath id="clip0_202_178">
            <rect width="512" height="283.538" fill="white"/>
        </clipPath>
    </defs>
</svg>
