<svg width="102" height="34" viewBox="0 0 102 34" fill="none" xmlns="http://www.w3.org/2000/svg">
<g filter="url(#filter0_d_143_5370)">
<path d="M8.83301 8.04688V18H7.53418V8.04688H8.83301ZM12.0322 8.04688V9.12695H4.3418V8.04688H12.0322ZM14.342 7.5V18H13.0774V7.5H14.342ZM14.0413 14.0215L13.5149 14.001C13.5194 13.4951 13.5946 13.028 13.7405 12.5996C13.8863 12.1667 14.0914 11.7907 14.3557 11.4717C14.62 11.1527 14.9345 10.9066 15.2991 10.7334C15.6682 10.5557 16.0761 10.4668 16.5227 10.4668C16.8873 10.4668 17.2154 10.5169 17.5071 10.6172C17.7987 10.7129 18.0471 10.8678 18.2522 11.082C18.4618 11.2962 18.6213 11.5742 18.7307 11.916C18.8401 12.2533 18.8948 12.6657 18.8948 13.1533V18H17.6233V13.1396C17.6233 12.7523 17.5663 12.4424 17.4524 12.21C17.3385 11.973 17.1721 11.8021 16.9534 11.6973C16.7346 11.5879 16.4657 11.5332 16.1467 11.5332C15.8323 11.5332 15.5452 11.5993 15.2854 11.7314C15.0302 11.8636 14.8092 12.0459 14.6223 12.2783C14.44 12.5107 14.2965 12.7773 14.1916 13.0781C14.0914 13.3743 14.0413 13.6888 14.0413 14.0215ZM23.6177 18.1367C23.1027 18.1367 22.6356 18.0501 22.2163 17.877C21.8016 17.6992 21.4438 17.4508 21.143 17.1318C20.8468 16.8128 20.619 16.4346 20.4595 15.9971C20.2999 15.5596 20.2202 15.0811 20.2202 14.5615V14.2744C20.2202 13.6729 20.3091 13.1374 20.4868 12.668C20.6645 12.194 20.9061 11.793 21.2114 11.4648C21.5167 11.1367 21.8631 10.8883 22.2505 10.7197C22.6378 10.5511 23.0389 10.4668 23.4536 10.4668C23.9822 10.4668 24.438 10.5579 24.8208 10.7402C25.2082 10.9225 25.5249 11.1777 25.771 11.5059C26.0171 11.8294 26.1994 12.2122 26.3179 12.6543C26.4363 13.0918 26.4956 13.5703 26.4956 14.0898V14.6572H20.9721V13.625H25.2309V13.5293C25.2127 13.2012 25.1443 12.8822 25.0259 12.5723C24.9119 12.2624 24.7296 12.0072 24.479 11.8066C24.2283 11.6061 23.8865 11.5059 23.4536 11.5059C23.1665 11.5059 22.9022 11.5674 22.6606 11.6904C22.4191 11.8089 22.2117 11.9867 22.0386 12.2236C21.8654 12.4606 21.7309 12.75 21.6352 13.0918C21.5395 13.4336 21.4917 13.8278 21.4917 14.2744V14.5615C21.4917 14.9124 21.5395 15.2428 21.6352 15.5527C21.7355 15.8581 21.879 16.127 22.0659 16.3594C22.2573 16.5918 22.4874 16.7741 22.7563 16.9062C23.0298 17.0384 23.3397 17.1045 23.686 17.1045C24.1326 17.1045 24.5109 17.0133 24.8208 16.8311C25.1307 16.6488 25.4018 16.4049 25.6343 16.0996L26.3999 16.708C26.2404 16.9495 26.0376 17.1797 25.7915 17.3984C25.5454 17.6172 25.2423 17.7949 24.8823 17.9316C24.5268 18.0684 24.1053 18.1367 23.6177 18.1367ZM23.8296 7.5L25.5249 9.36621V9.43457H24.4721L23.4468 8.2793L22.4282 9.43457H21.3891V9.35938L23.0639 7.5H23.8296ZM28.99 12.0732V18H27.7185V10.6035H28.9216L28.99 12.0732ZM28.7302 14.0215L28.1423 14.001C28.1469 13.4951 28.2129 13.028 28.3405 12.5996C28.4682 12.1667 28.6573 11.7907 28.9079 11.4717C29.1586 11.1527 29.4708 10.9066 29.8445 10.7334C30.2182 10.5557 30.6511 10.4668 31.1433 10.4668C31.4896 10.4668 31.8086 10.5169 32.1003 10.6172C32.392 10.7129 32.6449 10.8656 32.8591 11.0752C33.0733 11.2848 33.2396 11.5537 33.3581 11.8818C33.4766 12.21 33.5359 12.6064 33.5359 13.0713V18H32.2712V13.1328C32.2712 12.7454 32.2051 12.4355 32.073 12.2031C31.9454 11.9707 31.7631 11.8021 31.5261 11.6973C31.2891 11.5879 31.0111 11.5332 30.6921 11.5332C30.3184 11.5332 30.0062 11.5993 29.7556 11.7314C29.5049 11.8636 29.3044 12.0459 29.154 12.2783C29.0036 12.5107 28.8943 12.7773 28.8259 13.0781C28.7621 13.3743 28.7302 13.6888 28.7302 14.0215ZM33.5222 13.3242L32.6745 13.584C32.6791 13.1784 32.7452 12.7887 32.8728 12.415C33.0049 12.0413 33.1941 11.7087 33.4402 11.417C33.6908 11.1253 33.9984 10.8952 34.363 10.7266C34.7276 10.5534 35.1446 10.4668 35.614 10.4668C36.0105 10.4668 36.3614 10.5192 36.6667 10.624C36.9766 10.7288 37.2364 10.8906 37.446 11.1094C37.6602 11.3236 37.822 11.5993 37.9314 11.9365C38.0407 12.2738 38.0954 12.6748 38.0954 13.1396V18H36.8239V13.126C36.8239 12.7113 36.7579 12.39 36.6257 12.1621C36.4981 11.9297 36.3158 11.7679 36.0788 11.6768C35.8464 11.5811 35.5684 11.5332 35.2448 11.5332C34.9668 11.5332 34.7208 11.5811 34.5066 11.6768C34.2924 11.7725 34.1124 11.9046 33.9665 12.0732C33.8207 12.2373 33.709 12.4264 33.6316 12.6406C33.5586 12.8548 33.5222 13.0827 33.5222 13.3242ZM44.26 12.0732V18H42.9885V10.6035H44.1916L44.26 12.0732ZM44.0002 14.0215L43.4123 14.001C43.4169 13.4951 43.4829 13.028 43.6105 12.5996C43.7382 12.1667 43.9273 11.7907 44.1779 11.4717C44.4286 11.1527 44.7408 10.9066 45.1145 10.7334C45.4882 10.5557 45.9211 10.4668 46.4133 10.4668C46.7596 10.4668 47.0786 10.5169 47.3703 10.6172C47.662 10.7129 47.9149 10.8656 48.1291 11.0752C48.3433 11.2848 48.5096 11.5537 48.6281 11.8818C48.7466 12.21 48.8059 12.6064 48.8059 13.0713V18H47.5412V13.1328C47.5412 12.7454 47.4751 12.4355 47.343 12.2031C47.2154 11.9707 47.0331 11.8021 46.7961 11.6973C46.5591 11.5879 46.2811 11.5332 45.9621 11.5332C45.5884 11.5332 45.2762 11.5993 45.0256 11.7314C44.7749 11.8636 44.5744 12.0459 44.424 12.2783C44.2736 12.5107 44.1643 12.7773 44.0959 13.0781C44.0321 13.3743 44.0002 13.6888 44.0002 14.0215ZM48.7922 13.3242L47.9445 13.584C47.9491 13.1784 48.0152 12.7887 48.1428 12.415C48.2749 12.0413 48.4641 11.7087 48.7102 11.417C48.9608 11.1253 49.2684 10.8952 49.633 10.7266C49.9976 10.5534 50.4146 10.4668 50.884 10.4668C51.2805 10.4668 51.6314 10.5192 51.9367 10.624C52.2466 10.7288 52.5064 10.8906 52.716 11.1094C52.9302 11.3236 53.092 11.5993 53.2014 11.9365C53.3107 12.2738 53.3654 12.6748 53.3654 13.1396V18H52.0939V13.126C52.0939 12.7113 52.0279 12.39 51.8957 12.1621C51.7681 11.9297 51.5858 11.7679 51.3488 11.6768C51.1164 11.5811 50.8384 11.5332 50.5148 11.5332C50.2368 11.5332 49.9908 11.5811 49.7766 11.6768C49.5624 11.7725 49.3824 11.9046 49.2365 12.0732C49.0907 12.2373 48.979 12.4264 48.9016 12.6406C48.8286 12.8548 48.7922 13.0827 48.7922 13.3242ZM61.3286 9.79004H62.3471C62.3471 10.2913 62.2788 10.7243 62.142 11.0889C62.0053 11.4489 61.7774 11.7269 61.4584 11.9229C61.1394 12.1188 60.7065 12.2168 60.1596 12.2168V11.4238C60.5014 11.4238 60.7543 11.3555 60.9184 11.2188C61.087 11.082 61.1964 10.8906 61.2465 10.6445C61.3012 10.3984 61.3286 10.1136 61.3286 9.79004ZM54.7045 14.3838V14.2266C54.7045 13.6934 54.782 13.1989 54.937 12.7432C55.0919 12.2829 55.3152 11.8841 55.6069 11.5469C55.8985 11.2051 56.2517 10.9408 56.6664 10.7539C57.0812 10.5625 57.546 10.4668 58.061 10.4668C58.5805 10.4668 59.0476 10.5625 59.4623 10.7539C59.8816 10.9408 60.2371 11.2051 60.5288 11.5469C60.8204 11.8841 61.0437 12.2829 61.1987 12.7432C61.3536 13.1989 61.4311 13.6934 61.4311 14.2266V14.3838C61.4311 14.917 61.3536 15.4115 61.1987 15.8672C61.0437 16.3229 60.8204 16.7217 60.5288 17.0635C60.2371 17.4007 59.8839 17.665 59.4692 17.8564C59.059 18.0433 58.5942 18.1367 58.0746 18.1367C57.5551 18.1367 57.088 18.0433 56.6733 17.8564C56.2586 17.665 55.9031 17.4007 55.6069 17.0635C55.3152 16.7217 55.0919 16.3229 54.937 15.8672C54.782 15.4115 54.7045 14.917 54.7045 14.3838ZM55.9692 14.2266V14.3838C55.9692 14.7529 56.0125 15.1016 56.0991 15.4297C56.1857 15.7533 56.3155 16.0404 56.4887 16.291C56.6664 16.5417 56.8875 16.7399 57.1518 16.8857C57.4161 17.027 57.7237 17.0977 58.0746 17.0977C58.421 17.0977 58.7241 17.027 58.9838 16.8857C59.2482 16.7399 59.4669 16.5417 59.6401 16.291C59.8133 16.0404 59.9431 15.7533 60.0297 15.4297C60.1209 15.1016 60.1664 14.7529 60.1664 14.3838V14.2266C60.1664 13.862 60.1209 13.5179 60.0297 13.1943C59.9431 12.8662 59.811 12.5768 59.6332 12.3262C59.4601 12.071 59.2413 11.8704 58.977 11.7246C58.7172 11.5788 58.4119 11.5059 58.061 11.5059C57.7146 11.5059 57.4093 11.5788 57.145 11.7246C56.8852 11.8704 56.6664 12.071 56.4887 12.3262C56.3155 12.5768 56.1857 12.8662 56.0991 13.1943C56.0125 13.5179 55.9692 13.862 55.9692 14.2266ZM57.3569 9.50977L58.683 7.5H60.2075L58.3754 9.50977H57.3569ZM64.1852 10.6035V18H62.9137V10.6035H64.1852ZM62.818 8.6416C62.818 8.43652 62.8796 8.26335 63.0026 8.12207C63.1302 7.98079 63.3171 7.91016 63.5632 7.91016C63.8047 7.91016 63.9893 7.98079 64.1169 8.12207C64.249 8.26335 64.3151 8.43652 64.3151 8.6416C64.3151 8.83757 64.249 9.00618 64.1169 9.14746C63.9893 9.28418 63.8047 9.35254 63.5632 9.35254C63.3171 9.35254 63.1302 9.28418 63.0026 9.14746C62.8796 9.00618 62.818 8.83757 62.818 8.6416Z" fill="#238AD4"/>
<path d="M4 19.3672H65.2516V20.0508H4V19.3672Z" fill="#238AD4"/>
<g clip-path="url(#clip0_143_5370)">
<path d="M85 24.375C81.9832 24.375 79.0899 23.1766 76.9567 21.0433C74.8234 18.9101 73.625 16.0168 73.625 13C73.625 9.98316 74.8234 7.08989 76.9567 4.95666C79.0899 2.82343 81.9832 1.625 85 1.625C88.0168 1.625 90.9101 2.82343 93.0433 4.95666C95.1766 7.08989 96.375 9.98316 96.375 13C96.375 16.0168 95.1766 18.9101 93.0433 21.0433C90.9101 23.1766 88.0168 24.375 85 24.375ZM85 26C88.4478 26 91.7544 24.6304 94.1924 22.1924C96.6304 19.7544 98 16.4478 98 13C98 9.55219 96.6304 6.24558 94.1924 3.80761C91.7544 1.36964 88.4478 0 85 0C81.5522 0 78.2456 1.36964 75.8076 3.80761C73.3696 6.24558 72 9.55219 72 13C72 16.4478 73.3696 19.7544 75.8076 22.1924C78.2456 24.6304 81.5522 26 85 26Z" fill="#238AD4"/>
<path d="M85 6.5C85.2155 6.5 85.4222 6.5856 85.5745 6.73798C85.7269 6.89035 85.8125 7.09701 85.8125 7.3125V12.1875H90.6875C90.903 12.1875 91.1097 12.2731 91.262 12.4255C91.4144 12.5778 91.5 12.7845 91.5 13C91.5 13.2155 91.4144 13.4222 91.262 13.5745C91.1097 13.7269 90.903 13.8125 90.6875 13.8125H85.8125V18.6875C85.8125 18.903 85.7269 19.1097 85.5745 19.262C85.4222 19.4144 85.2155 19.5 85 19.5C84.7845 19.5 84.5778 19.4144 84.4255 19.262C84.2731 19.1097 84.1875 18.903 84.1875 18.6875V13.8125H79.3125C79.097 13.8125 78.8903 13.7269 78.738 13.5745C78.5856 13.4222 78.5 13.2155 78.5 13C78.5 12.7845 78.5856 12.5778 78.738 12.4255C78.8903 12.2731 79.097 12.1875 79.3125 12.1875H84.1875V7.3125C84.1875 7.09701 84.2731 6.89035 84.4255 6.73798C84.5778 6.5856 84.7845 6.5 85 6.5Z" fill="#238AD4"/>
</g>
</g>
<defs>
<filter id="filter0_d_143_5370" x="0.341797" y="0" width="101.658" height="34" filterUnits="userSpaceOnUse" color-interpolation-filters="sRGB">
<feFlood flood-opacity="0" result="BackgroundImageFix"/>
<feColorMatrix in="SourceAlpha" type="matrix" values="0 0 0 0 0 0 0 0 0 0 0 0 0 0 0 0 0 0 127 0" result="hardAlpha"/>
<feOffset dy="4"/>
<feGaussianBlur stdDeviation="2"/>
<feComposite in2="hardAlpha" operator="out"/>
<feColorMatrix type="matrix" values="0 0 0 0 0 0 0 0 0 0 0 0 0 0 0 0 0 0 0.25 0"/>
<feBlend mode="normal" in2="BackgroundImageFix" result="effect1_dropShadow_143_5370"/>
<feBlend mode="normal" in="SourceGraphic" in2="effect1_dropShadow_143_5370" result="shape"/>
</filter>
<clipPath id="clip0_143_5370">
<rect width="26" height="26" fill="white" transform="translate(72)"/>
</clipPath>
</defs>
</svg>
