<!--<svg width="16" height="16" viewBox="0 0 16 16" fill="none" xmlns="http://www.w3.org/2000/svg">-->
<!--<path d="M10.6986 13.1226C10.7534 13.1775 10.7312 13.2735 10.6569 13.2975C6.25682 14.7066 1.49561 12.4386 0.03159 8.18768C-0.00955343 8.06768 -0.00955343 7.93397 0.03159 7.81339C0.456167 6.58081 1.16875 5.50079 2.0819 4.62878C2.11676 4.59564 2.17219 4.59678 2.2059 4.63049L4.66422 7.08881C4.68137 7.10596 4.68765 7.12996 4.68194 7.15338C4.04421 9.63627 6.36653 11.9506 8.83971 11.3214C8.86771 11.314 8.89399 11.3192 8.91457 11.3397C9.11914 11.5437 10.3117 12.7357 10.6986 13.1226Z" fill="#F15B25"/>-->
<!--<path d="M12.9603 12.1523C14.3352 11.1854 15.4066 9.82142 15.9695 8.18597C16.0106 8.06597 16.0106 7.93454 15.9695 7.81453C14.8312 4.50763 11.6289 2.28589 8.00025 2.28589C6.58366 2.28589 5.23393 2.62704 4.04534 3.23733L0.975585 0.167574C0.752153 -0.0558579 0.391005 -0.0558579 0.167574 0.167574C-0.0558579 0.391005 -0.0558579 0.752153 0.167574 0.975585L15.0249 15.8329C15.2483 16.0564 15.6095 16.0564 15.8329 15.8329C16.0564 15.6095 16.0564 15.2483 15.8329 15.0249L12.9603 12.1523ZM8.00025 4.57163C9.89113 4.57163 11.4289 6.10937 11.4289 8.00025C11.4289 8.73969 11.1911 9.42313 10.7917 9.98371L6.0168 5.20878C6.57737 4.80935 7.26081 4.57163 8.00025 4.57163Z" fill="#F15B25"/>-->
<!--</svg>-->
<svg width="16" height="16" viewBox="0 0 16 16" fill="none" xmlns="http://www.w3.org/2000/svg">
    <path d="M11.9603 11.9603C10.8207 12.829 9.43306 13.3102 8.00033 13.3337C3.33366 13.3337 0.666992 8.00033 0.666992 8.00033C1.49625 6.45492 2.64642 5.10473 4.04033 4.04033M6.60033 2.82699C7.05921 2.71958 7.52904 2.66588 8.00033 2.66699C12.667 2.66699 15.3337 8.00033 15.3337 8.00033C14.929 8.7574 14.4464 9.47015 13.8937 10.127M9.41366 9.41366C9.23056 9.61016 9.00976 9.76776 8.76443 9.87707C8.5191 9.98639 8.25426 10.0452 7.98572 10.0499C7.71718 10.0546 7.45043 10.0052 7.2014 9.90465C6.95236 9.80406 6.72614 9.65434 6.53622 9.46443C6.34631 9.27451 6.19659 9.04829 6.096 8.79925C5.99541 8.55022 5.94601 8.28347 5.95075 8.01493C5.95549 7.74639 6.01426 7.48156 6.12358 7.23622C6.23289 6.99089 6.39049 6.77009 6.58699 6.58699M0.666992 0.666992L15.3337 15.3337" stroke="black" stroke-opacity="0.6" stroke-linecap="round" stroke-linejoin="round"/>
</svg>
