<svg width="96" height="96" viewBox="0 0 96 96" fill="none" xmlns="http://www.w3.org/2000/svg">
    <rect width="96" height="96" rx="48" fill="#F4511E"/>
    <path d="M66.3846 26.6711V23.4734C66.3846 21.7985 65.6154 20.2758 64.3077 19.2099C63 18.144 61.3077 17.7633 59.6923 18.144L33.6154 24.2348C29.9231 24.3109 27 27.2802 27 31.0108V67.224C27 70.9546 30.0769 74 33.8462 74H61.1538C64.9231 74 68 70.9546 68 67.224V31.0108C68 29.3359 67.3846 27.8131 66.3846 26.6711ZM60.1538 20.0473C61.2308 19.8189 62.3077 20.0473 63.2308 20.7326C64.0769 21.4178 64.6154 22.4075 64.6154 23.5496V25.1484C63.6154 24.6155 62.4615 24.2348 61.2308 24.2348H42L60.1538 20.0473ZM43.0769 54.6062C41.7692 54.6062 40.7692 53.6164 40.7692 52.3221V52.246C40.6923 50.9517 41.6923 49.8858 43 49.8858H43.0769C44.3846 49.8858 45.4615 50.9517 45.4615 52.3221C45.4615 53.5403 44.3846 54.53 43.0769 54.6062ZM50 57.5755C49.9231 57.4232 49.9231 57.2709 49.8462 57.1186L43.8462 43.797C43.7692 43.6448 43.6923 43.5686 43.5385 43.4925C43.3846 43.4164 43.2308 43.4164 43.0769 43.4164C42.9231 43.4164 42.7692 43.4164 42.6923 43.4925C42.5385 43.5686 42.4615 43.7209 42.3846 43.797L36.4615 57.1186C36.3846 57.2709 36.3077 57.4232 36.2308 57.5755H31.3077C31.3077 57.4993 31.3846 57.347 31.4615 57.2709C31.5385 57.1948 31.5385 57.0425 31.6154 56.9664L38.3077 41.9677C39.3846 40.445 40.3077 39.4553 42.9231 39.4553C44.9375 39.4553 46.8462 40.2927 47.7692 42.0438L54.6154 56.9664C54.6923 57.0425 54.7692 57.1948 54.7692 57.2709C54.8462 57.347 54.8462 57.4993 54.9231 57.5755H50ZM60.0769 57.5755C60 57.5755 59.9231 57.5755 59.8462 57.5755C58.6923 57.5755 57.7692 56.738 57.7692 55.5959C57.7692 55.5198 57.7692 55.4437 57.7692 55.3675C57.7692 50.7233 57.7692 46.3074 57.7692 41.6632C57.6923 40.5211 58.6154 39.5314 59.7692 39.4553C60.8462 39.4553 61.7692 40.3689 61.7692 41.5109C61.7692 41.587 61.7692 41.587 61.7692 41.6632C61.7692 44.0234 61.7692 46.3074 61.7692 48.6676C61.7692 51.0278 61.7692 53.0835 61.7692 55.4437C61.9231 56.4334 61.1538 57.4232 60.0769 57.5755Z" fill="white"/>
    <path d="M60.1538 20.0473C61.2308 19.8189 62.3077 20.0473 63.2308 20.7326C64.0769 21.4178 64.6154 22.4075 64.6154 23.5496V25.1484C63.6154 24.6155 62.4615 24.2348 61.2308 24.2348H42L60.1538 20.0473Z" fill="#F4511E"/>
    <path d="M50 57.5755C49.9231 57.4232 49.9231 57.2709 49.8462 57.1186L43.8462 43.797C43.7692 43.6448 43.6923 43.5686 43.5385 43.4925C43.3846 43.4164 43.2308 43.4164 43.0769 43.4164C42.9231 43.4164 42.7692 43.4164 42.6923 43.4925C42.5385 43.5686 42.4615 43.7209 42.3846 43.797L36.4615 57.1186L36.2308 57.5755H31.3077C31.3077 57.4993 31.3846 57.347 31.4615 57.2709C31.5385 57.1948 31.5385 57.0425 31.6154 56.9664L38.3077 41.9677C39.3846 40.445 40.3077 39.4553 42.9231 39.4553C44.9375 39.4553 46.8462 40.2927 47.7692 42.0438L54.6154 56.9664C54.6923 57.0425 54.7692 57.1948 54.7692 57.2709C54.8462 57.347 54.8462 57.4993 54.9231 57.5755H50Z" fill="#F4511E"/>
    <path d="M60.0769 57.5755H59.8462C58.6923 57.5755 57.7692 56.738 57.7692 55.5959V55.3675V41.6632C57.6923 40.5211 58.6154 39.5314 59.7692 39.4553C60.8462 39.4553 61.7692 40.3689 61.7692 41.5109V41.6632V48.6676V55.4437C61.9231 56.4334 61.1538 57.4232 60.0769 57.5755Z" fill="#F4511E"/>
    <path d="M43.0769 54.6062C41.7692 54.6062 40.7692 53.6164 40.7692 52.3221V52.246C40.6923 50.9517 41.6923 49.8858 43 49.8858H43.0769C44.3846 49.8858 45.4615 50.9517 45.4615 52.3221C45.4615 53.5403 44.3846 54.53 43.0769 54.6062Z" fill="#F4511E"/>
</svg>
