<svg width="360" height="365" viewBox="0 0 360 365" fill="none" xmlns="http://www.w3.org/2000/svg">
    <g clip-path="url(#clip0_2154_718)">
        <path d="M159.821 177.788L26.5799 142.263L167.152 110.006L186.085 193.667L182.455 206.207L159.821 177.788Z" fill="#D9D9D9"/>
        <path d="M181.992 276.688C180.497 277.115 178.825 276.795 177.579 275.694C175.622 273.953 175.408 270.969 177.152 268.979L185.159 259.921C186.903 257.967 189.893 257.754 191.886 259.494C192.953 260.418 193.487 261.732 193.487 263.082L193.523 263.047L198.968 267.878L198.932 267.807L191.458 235.409L191.352 234.982C190.035 257.896 171.743 276.759 148.219 278.251C122.809 279.85 100.887 260.596 99.2859 235.195C97.6844 209.831 116.973 187.947 142.418 186.349C160.711 185.177 177.188 194.839 185.586 209.795L185.48 209.333L162.098 107.91L21.5264 140.167L65.6198 331.574L206.192 299.318L205.694 297.222L181.992 276.688Z" fill="white" stroke="#666666" stroke-width="1.50294" stroke-miterlimit="10" stroke-linecap="round" stroke-linejoin="round"/>
        <g opacity="0.6">
            <path d="M68.1441 170.251L47.8946 178.492C52.4498 189.647 65.2259 195.011 76.4005 190.464C82.5572 187.942 86.9345 182.969 88.8919 177.107L68.1441 170.251Z" fill="#00BFA5"/>
        </g>
        <path d="M68.5713 167.838L89.319 174.304C90.4222 168.726 89.3546 162.758 85.867 157.714C82.3794 152.669 77.1479 149.117 70.8489 148.513L68.5713 167.838Z" fill="#D9D9D9"/>
        <path d="M65.9323 167.694L68.0319 148.582C64.6511 148.084 60.3806 148.439 56.9997 149.825C46.786 153.981 41.8748 165.633 46.0386 175.829L65.9323 167.694Z" fill="#00BFA5"/>
        <path d="M95.2277 138.994L151.314 126.134" stroke="#666666" stroke-width="1.50294" stroke-miterlimit="10" stroke-linecap="round" stroke-linejoin="round"/>
        <path d="M98.6455 153.738L154.696 140.878" stroke="#666666" stroke-width="1.50294" stroke-miterlimit="10" stroke-linecap="round" stroke-linejoin="round"/>
        <path d="M102.026 168.445L158.077 155.585" stroke="#666666" stroke-width="1.50294" stroke-miterlimit="10" stroke-linecap="round" stroke-linejoin="round"/>
        <path d="M105.405 183.187L161.456 170.327" stroke="#666666" stroke-width="1.50294" stroke-miterlimit="10" stroke-linecap="round" stroke-linejoin="round"/>
        <path d="M155.229 187.237L164.873 185.034" stroke="#666666" stroke-width="1.50294" stroke-miterlimit="10" stroke-linecap="round" stroke-linejoin="round"/>
        <path d="M54.9795 210.258L116.831 196.083" stroke="#666666" stroke-width="1.50294" stroke-miterlimit="10" stroke-linecap="round" stroke-linejoin="round"/>
        <path d="M58.3945 224.999L102.666 214.804" stroke="#666666" stroke-width="1.50294" stroke-miterlimit="10" stroke-linecap="round" stroke-linejoin="round"/>
        <path d="M111.919 228.197L171.457 214.52" stroke="#666666" stroke-width="1.50294" stroke-miterlimit="10" stroke-linecap="round" stroke-linejoin="round"/>
        <path d="M61.7744 239.707L99.1773 231.145" stroke="#666666" stroke-width="1.50294" stroke-miterlimit="10" stroke-linecap="round" stroke-linejoin="round"/>
        <path d="M113.414 243.366L175.124 229.192" stroke="#666666" stroke-width="1.50294" stroke-miterlimit="10" stroke-linecap="round" stroke-linejoin="round"/>
        <path d="M65.1565 254.449L101.243 246.136" stroke="#666666" stroke-width="1.50294" stroke-miterlimit="10" stroke-linecap="round" stroke-linejoin="round"/>
        <path d="M122.453 256.866L176.333 244.503" stroke="#666666" stroke-width="1.50294" stroke-miterlimit="10" stroke-linecap="round" stroke-linejoin="round"/>
        <path d="M68.5732 269.229L108.503 260.063" stroke="#666666" stroke-width="1.50294" stroke-miterlimit="10" stroke-linecap="round" stroke-linejoin="round"/>
        <path d="M71.9541 283.899L121.777 272.46" stroke="#666666" stroke-width="1.50294" stroke-miterlimit="10" stroke-linecap="round" stroke-linejoin="round"/>
        <path d="M75.333 298.607L177.043 275.268" stroke="#666666" stroke-width="1.50294" stroke-miterlimit="10" stroke-linecap="round" stroke-linejoin="round"/>
        <path d="M200.39 183.652C199.216 179.744 199.251 175.445 200.782 171.325C204.483 161.235 215.693 156.084 225.8 159.779C235.907 163.474 241.067 174.664 237.366 184.753C235.978 188.518 233.558 191.574 230.533 193.776L200.39 183.652Z" fill="#D9D9D9"/>
        <path opacity="0.3" d="M227.547 192.817C232.885 189.123 236.373 182.941 236.373 175.943C236.373 164.611 227.156 155.41 215.803 155.41C204.451 155.41 195.233 164.611 195.233 175.943C195.233 178.146 195.589 180.277 196.23 182.266L227.547 192.817Z" fill="#00BFA5"/>
        <path d="M201.677 183.931C200.324 181.586 199.577 178.851 199.577 175.938C199.577 166.986 206.837 159.739 215.805 159.739C224.773 159.739 232.033 166.986 232.033 175.938C232.033 182.652 227.941 188.407 222.14 190.858L201.677 183.931Z" fill="white" stroke="#666666" stroke-width="1.50294" stroke-miterlimit="10" stroke-linecap="round" stroke-linejoin="round"/>
        <path d="M214.663 187.983V185.532C213.098 185.497 211.496 185.07 210.393 184.466C210.108 184.289 209.966 183.969 210.073 183.649L210.357 182.868C210.5 182.477 210.962 182.299 211.318 182.512C212.35 183.045 213.703 183.436 215.09 183.436C217.297 183.436 218.792 182.157 218.792 180.381C218.792 178.676 217.582 177.61 215.268 176.686C212.101 175.443 210.144 174.022 210.144 171.322C210.144 168.764 211.994 166.811 214.841 166.313V163.862C214.841 163.471 215.162 163.187 215.517 163.187H216.087C216.478 163.187 216.763 163.507 216.763 163.862V166.171C218.293 166.207 219.397 166.562 220.251 166.953C220.571 167.095 220.713 167.486 220.571 167.805L220.286 168.551C220.144 168.942 219.717 169.084 219.361 168.942C218.649 168.587 217.546 168.232 216.122 168.232C213.738 168.232 212.813 169.653 212.813 170.896C212.813 172.495 213.952 173.312 216.656 174.448C219.859 175.763 221.461 177.361 221.461 180.132C221.461 182.584 219.752 184.893 216.55 185.39V187.912C216.55 188.303 216.229 188.587 215.873 188.587H215.304C214.984 188.694 214.663 188.374 214.663 187.983Z" fill="#666666"/>
        <path d="M183.56 201.091L190.499 180.38L305.448 218.854L249.291 386.069L134.342 347.595L145.908 313.172" stroke="#666666" stroke-width="1.50294" stroke-miterlimit="10" stroke-linecap="round" stroke-linejoin="round"/>
        <path d="M303.349 225.035L306.979 226.243L250.821 392.996L134.342 347.595L249.291 385.607L303.349 225.035Z" fill="#D9D9D9"/>
        <path d="M196.194 254.059L273.776 280.027" stroke="#666666" stroke-width="1.50294" stroke-miterlimit="10" stroke-linecap="round" stroke-linejoin="round"/>
        <path d="M200.891 269.938L269.433 292.886" stroke="#666666" stroke-width="1.50294" stroke-miterlimit="10" stroke-linecap="round" stroke-linejoin="round"/>
        <path d="M228.009 293.313L265.127 305.747" stroke="#666666" stroke-width="1.50294" stroke-miterlimit="10" stroke-linecap="round" stroke-linejoin="round"/>
        <path d="M228.578 307.842L260.785 318.606" stroke="#666666" stroke-width="1.50294" stroke-miterlimit="10" stroke-linecap="round" stroke-linejoin="round"/>
        <path d="M206.202 235.297C208.042 234.28 208.707 231.967 207.689 230.13C206.67 228.294 204.353 227.629 202.513 228.646C200.673 229.663 200.007 231.976 201.026 233.813C202.045 235.649 204.362 236.314 206.202 235.297Z" stroke="#666666" stroke-width="1.50294" stroke-miterlimit="10" stroke-linecap="round" stroke-linejoin="round"/>
        <path d="M237.097 253.103C238.955 252.119 239.661 249.818 238.674 247.964C237.688 246.109 235.383 245.405 233.525 246.389C231.668 247.374 230.962 249.675 231.948 251.529C232.934 253.383 235.24 254.088 237.097 253.103Z" stroke="#666666" stroke-width="1.50294" stroke-miterlimit="10" stroke-linecap="round" stroke-linejoin="round"/>
        <path d="M274.88 229.376C276.802 228.965 278.03 227.092 277.622 225.192C277.214 223.293 275.325 222.087 273.403 222.498C271.482 222.909 270.254 224.782 270.662 226.682C271.07 228.581 272.959 229.787 274.88 229.376Z" stroke="#666666" stroke-width="1.50294" stroke-miterlimit="10" stroke-linecap="round" stroke-linejoin="round"/>
        <path d="M221.495 216.9C221.068 218.96 222.349 220.985 224.413 221.447C226.477 221.873 228.506 220.594 228.969 218.534C229.396 216.473 228.114 214.448 226.05 213.987C223.986 213.525 221.958 214.839 221.495 216.9Z" stroke="#666666" stroke-width="1.50294" stroke-miterlimit="10" stroke-linecap="round" stroke-linejoin="round"/>
        <path d="M207.508 229.048L222.526 220.38" stroke="#666666" stroke-width="1.50294" stroke-miterlimit="10" stroke-linecap="round" stroke-linejoin="round"/>
        <path d="M226.62 221.233L235.233 245.923" stroke="#666666" stroke-width="1.50294" stroke-miterlimit="10" stroke-linecap="round" stroke-linejoin="round"/>
        <path d="M238.292 247.379L271.282 228.089" stroke="#666666" stroke-width="1.50294" stroke-miterlimit="10" stroke-linecap="round" stroke-linejoin="round"/>
        <path d="M143.774 344.15L244.915 377.756" stroke="#666666" stroke-width="1.50294" stroke-miterlimit="10" stroke-linecap="round" stroke-linejoin="round"/>
        <path opacity="0.3" d="M173.235 324.135L160.438 319.881L151.486 346.711L164.283 350.965L173.235 324.135Z" fill="#00BFA5"/>
        <path opacity="0.3" d="M212.123 330.756L199.326 326.502L188.485 358.994L201.282 363.249L212.123 330.756Z" fill="#00BFA5"/>
        <path opacity="0.3" d="M228.61 340.912L215.812 336.658L206.377 364.937L219.175 369.191L228.61 340.912Z" fill="#00BFA5"/>
        <path opacity="0.3" d="M248.275 342.1L235.478 337.845L224.423 370.978L237.22 375.233L248.275 342.1Z" fill="#00BFA5"/>
        <path opacity="0.3" d="M195.371 317.996L182.574 313.741L169.574 352.705L182.371 356.96L195.371 317.996Z" fill="#00BFA5"/>
        <path d="M169.194 256.146C182.397 242.967 182.397 221.599 169.194 208.419C155.992 195.24 134.585 195.24 121.382 208.419C108.18 221.599 108.18 242.967 121.382 256.146C134.585 269.326 155.992 269.326 169.194 256.146Z" stroke="#666666" stroke-width="1.50294" stroke-miterlimit="10" stroke-linecap="round" stroke-linejoin="round"/>
        <path d="M177.902 264.838C195.913 246.858 195.913 217.708 177.902 199.728C159.89 181.748 130.688 181.748 112.676 199.728C94.6647 217.708 94.6647 246.858 112.676 264.838C130.688 282.817 159.89 282.817 177.902 264.838Z" stroke="#666666" stroke-width="1.50294" stroke-miterlimit="10" stroke-linecap="round" stroke-linejoin="round"/>
        <path d="M193.454 263.046C193.418 261.767 192.884 260.453 191.817 259.494C189.859 257.753 186.834 257.966 185.091 259.92L177.083 268.979C175.34 270.933 175.553 273.952 177.51 275.693C178.756 276.794 180.429 277.114 181.923 276.688L221.248 310.72C227.938 310.294 233.027 304.539 232.6 297.86V297.612L193.454 263.046Z" fill="#00BFA5" stroke="#666666" stroke-width="1.50294" stroke-miterlimit="10" stroke-linecap="round" stroke-linejoin="round"/>
        <path d="M201.283 376.583L59.8567 410.154L13.6992 216.331L37.7566 210.647" stroke="#666666" stroke-width="1.50294" stroke-miterlimit="10" stroke-linecap="round" stroke-linejoin="round"/>
        <path d="M40.3783 222.442L24.3855 226.251L25.8805 232.506L41.8733 228.697L40.3783 222.442Z" stroke="#666666" stroke-width="1.50294" stroke-miterlimit="10" stroke-linecap="round" stroke-linejoin="round"/>
        <path d="M44.9332 241.311L28.9404 245.12L30.4355 251.375L46.4282 247.565L44.9332 241.311Z" stroke="#666666" stroke-width="1.50294" stroke-miterlimit="10" stroke-linecap="round" stroke-linejoin="round"/>
        <path d="M51.5162 270.05L35.5234 273.86L37.0185 280.114L53.0112 276.305L51.5162 270.05Z" stroke="#666666" stroke-width="1.50294" stroke-miterlimit="10" stroke-linecap="round" stroke-linejoin="round"/>
        <path d="M56.0709 288.917L40.0781 292.726L41.5732 298.981L57.5659 295.171L56.0709 288.917Z" stroke="#666666" stroke-width="1.50294" stroke-miterlimit="10" stroke-linecap="round" stroke-linejoin="round"/>
        <path d="M64.0787 325.472L48.0859 329.281L49.581 335.536L65.5738 331.726L64.0787 325.472Z" stroke="#666666" stroke-width="1.50294" stroke-miterlimit="10" stroke-linecap="round" stroke-linejoin="round"/>
        <path d="M138.682 334.239L54.1607 354.381L52.666 348.129L141.28 326.92L138.682 334.239Z" stroke="#666666" stroke-width="1.50294" stroke-miterlimit="10" stroke-linecap="round" stroke-linejoin="round"/>
        <path opacity="0.3" d="M306 372.5L365.374 372.43L365.221 260.01L306 372.5Z" fill="#00BFA5"/>
        <path d="M291.055 325.918L287.864 335.304L303.94 340.75L307.131 331.364L291.055 325.918Z" fill="#D9D9D9"/>
        <path d="M288.331 335.481C287.477 338.856 289.363 342.373 292.708 343.51L295.021 344.291C298.366 345.428 301.996 343.794 303.384 340.597L288.331 335.481Z" fill="#D9D9D9"/>
        <path d="M319.113 280.524L319.362 284.396C319.397 285.036 320.216 285.32 320.643 284.823L324.38 280.595L322.885 258.605L308.294 275.16L308.685 280.773C308.721 281.412 309.539 281.696 309.966 281.199L312.529 278.286C312.956 277.789 313.739 278.073 313.81 278.712L314.059 282.585C314.095 283.224 314.913 283.508 315.34 283.011L317.903 280.098C318.258 279.601 319.077 279.885 319.113 280.524Z" fill="#D9D9D9"/>
        <path d="M319.363 284.397L319.114 280.525C319.078 279.885 318.26 279.601 317.833 280.098L315.27 283.011C314.843 283.509 314.06 283.225 313.989 282.585L313.74 278.713C313.705 278.074 312.886 277.789 312.459 278.287L309.897 281.2C309.47 281.697 308.687 281.413 308.616 280.773L308.224 275.196L290.964 325.961L307.05 331.396L324.31 280.631L320.573 284.859C320.217 285.285 319.399 285.036 319.363 284.397Z" fill="#D9D9D9"/>
        <path d="M323.384 265.923L322.886 258.605L318.01 264.111L323.384 265.923Z" fill="#D9D9D9"/>
        <path d="M288.028 322.909L284.837 332.296L300.912 337.742L304.104 328.356L288.028 322.909Z" fill="white" stroke="#666666" stroke-width="1.50294" stroke-miterlimit="10" stroke-linecap="round" stroke-linejoin="round"/>
        <path d="M285.305 332.462C284.451 335.837 286.337 339.354 289.682 340.49L291.996 341.272C295.341 342.409 298.971 340.775 300.359 337.577L285.305 332.462Z" fill="white" stroke="#666666" stroke-width="1.50294" stroke-miterlimit="10" stroke-linecap="round" stroke-linejoin="round"/>
        <path d="M316.088 277.505L316.337 281.377C316.373 282.017 317.191 282.301 317.618 281.804L321.355 277.576L319.86 255.586L305.269 272.141L305.661 277.754C305.696 278.393 306.515 278.677 306.942 278.18L309.504 275.267C309.931 274.77 310.714 275.054 310.785 275.693L311.035 279.565C311.07 280.205 311.889 280.489 312.316 279.992L314.878 277.079C315.269 276.617 316.052 276.866 316.088 277.505Z" fill="white" stroke="#666666" stroke-width="1.50294" stroke-miterlimit="10" stroke-linecap="round" stroke-linejoin="round"/>
        <path opacity="0.6" d="M316.337 281.378L316.088 277.505C316.053 276.866 315.234 276.582 314.807 277.079L312.245 279.992C311.818 280.489 311.035 280.205 310.964 279.566L310.714 275.694C310.679 275.054 309.86 274.77 309.433 275.267L306.871 278.18C306.444 278.678 305.661 278.393 305.59 277.754L305.198 272.177L287.938 322.941L304.024 328.377L321.284 277.612L317.547 281.839C317.191 282.301 316.409 282.017 316.337 281.378Z" fill="#00BFA5" stroke="#666666" stroke-width="1.50294" stroke-miterlimit="10" stroke-linecap="round" stroke-linejoin="round"/>
        <path d="M320.36 262.94L319.862 255.586L314.986 261.093L320.36 262.94Z" fill="white" stroke="#666666" stroke-width="1.50294" stroke-miterlimit="10" stroke-linecap="round" stroke-linejoin="round"/>
        <path d="M334.037 66.3212L287.488 50.0864C284.107 48.914 280.406 50.6903 279.232 54.0651L256.206 119.857C255.032 123.232 256.811 126.926 260.192 128.099L306.741 144.334C310.122 145.506 313.823 143.73 314.998 140.355L338.023 74.5629C339.197 71.1881 337.418 67.4935 334.037 66.3212Z" fill="#D9D9D9"/>
        <path opacity="0.6" d="M303.896 140.608L257.347 124.374C253.967 123.201 252.187 119.507 253.362 116.132L276.387 50.34C277.561 46.9652 281.263 45.1889 284.643 46.3613L331.192 62.5961C334.573 63.7684 336.353 67.463 335.178 70.8378L312.153 136.63C310.943 140.005 307.277 141.816 303.896 140.608Z" fill="#00BFA5"/>
        <path d="M319.3 85.0107L280.047 71.3336C278.837 70.9074 278.196 69.5929 278.623 68.3496L282.182 58.1895C282.609 56.9816 283.926 56.3422 285.172 56.7685L324.389 70.4811C325.599 70.9074 326.24 72.2218 325.813 73.4651L322.254 83.6252C321.827 84.7975 320.51 85.437 319.3 85.0107Z" fill="white" stroke="#666666" stroke-width="1.50294" stroke-miterlimit="10" stroke-linecap="round" stroke-linejoin="round"/>
        <path d="M280.649 88.4583L274.172 86.1847C273.247 85.8649 272.784 84.8702 273.104 83.9466L275.382 77.4811C275.702 76.5575 276.699 76.0956 277.624 76.4154L284.101 78.6889C285.026 79.0087 285.489 80.0034 285.169 80.927L282.891 87.3925C282.606 88.3162 281.574 88.778 280.649 88.4583Z" fill="white" stroke="#666666" stroke-width="1.50294" stroke-miterlimit="10" stroke-linecap="round" stroke-linejoin="round"/>
        <path d="M297.591 94.3884L291.114 92.1148C290.189 91.7951 289.726 90.8004 290.047 89.8768L292.324 83.4113C292.645 82.4876 293.641 82.0258 294.566 82.3455L301.043 84.6191C301.969 84.9388 302.431 85.9335 302.111 86.8572L299.833 93.3227C299.513 94.2108 298.517 94.7082 297.591 94.3884Z" fill="white" stroke="#666666" stroke-width="1.50294" stroke-miterlimit="10" stroke-linecap="round" stroke-linejoin="round"/>
        <path d="M314.535 100.287L308.058 98.0133C307.132 97.6936 306.67 96.6988 306.99 95.7752L309.268 89.3097C309.588 88.3861 310.584 87.9242 311.51 88.244L317.987 90.5175C318.912 90.8373 319.375 91.8319 319.054 92.7556L316.777 99.2211C316.456 100.109 315.46 100.607 314.535 100.287Z" fill="white" stroke="#666666" stroke-width="1.50294" stroke-miterlimit="10" stroke-linecap="round" stroke-linejoin="round"/>
        <path d="M275.388 103.522L268.911 101.248C267.986 100.928 267.523 99.9336 267.843 99.01L270.121 92.5445C270.441 91.6208 271.438 91.159 272.363 91.4787L278.84 93.7523C279.765 94.0721 280.228 95.0667 279.908 95.9904L277.63 102.456C277.31 103.38 276.278 103.841 275.388 103.522Z" fill="white" stroke="#666666" stroke-width="1.50294" stroke-miterlimit="10" stroke-linecap="round" stroke-linejoin="round"/>
        <path d="M292.29 109.452L285.813 107.178C284.888 106.858 284.425 105.864 284.746 104.94L287.023 98.4747C287.344 97.551 288.34 97.0892 289.265 97.4089L295.742 99.6825C296.668 100.002 297.13 100.997 296.81 101.921L294.532 108.386C294.212 109.274 293.216 109.772 292.29 109.452Z" fill="white" stroke="#666666" stroke-width="1.50294" stroke-miterlimit="10" stroke-linecap="round" stroke-linejoin="round"/>
        <path d="M309.232 115.351L302.755 113.078C301.83 112.758 301.367 111.763 301.687 110.84L303.965 104.374C304.285 103.451 305.282 102.989 306.207 103.308L312.684 105.582C313.609 105.902 314.072 106.896 313.752 107.82L311.474 114.286C311.154 115.209 310.157 115.671 309.232 115.351Z" fill="white" stroke="#666666" stroke-width="1.50294" stroke-miterlimit="10" stroke-linecap="round" stroke-linejoin="round"/>
        <path d="M270.08 118.581L263.603 116.308C262.678 115.988 262.215 114.993 262.536 114.07L264.813 107.604C265.134 106.68 266.13 106.219 267.055 106.538L273.532 108.812C274.458 109.132 274.92 110.126 274.6 111.05L272.322 117.515C272.002 118.439 271.006 118.936 270.08 118.581Z" fill="white" stroke="#666666" stroke-width="1.50294" stroke-miterlimit="10" stroke-linecap="round" stroke-linejoin="round"/>
        <path d="M286.985 124.512L280.508 122.238C279.582 121.919 279.12 120.924 279.44 120L281.718 113.535C282.038 112.611 283.034 112.149 283.96 112.469L290.437 114.743C291.362 115.062 291.825 116.057 291.504 116.981L289.227 123.446C288.942 124.334 287.91 124.832 286.985 124.512Z" fill="white" stroke="#666666" stroke-width="1.50294" stroke-miterlimit="10" stroke-linecap="round" stroke-linejoin="round"/>
        <path d="M303.926 130.41L297.449 128.137C296.524 127.817 296.061 126.822 296.381 125.899L298.659 119.433C298.979 118.51 299.976 118.048 300.901 118.368L307.378 120.641C308.303 120.961 308.766 121.956 308.446 122.879L306.168 129.345C305.848 130.268 304.851 130.73 303.926 130.41Z" fill="white" stroke="#666666" stroke-width="1.50294" stroke-miterlimit="10" stroke-linecap="round" stroke-linejoin="round"/>
        <path d="M160.177 80.1289H183.522" stroke="#666666" stroke-width="1.50294" stroke-miterlimit="10" stroke-linecap="round" stroke-linejoin="round"/>
        <path d="M191.14 80.1289H201.638" stroke="#666666" stroke-width="1.50294" stroke-miterlimit="10" stroke-linecap="round" stroke-linejoin="round"/>
        <path d="M188.79 70.2169H150.675" stroke="#666666" stroke-width="1.50294" stroke-miterlimit="10" stroke-linecap="round" stroke-linejoin="round"/>
        <path d="M143.096 70.2169H132.562" stroke="#666666" stroke-width="1.50294" stroke-miterlimit="10" stroke-linecap="round" stroke-linejoin="round"/>
        <path d="M199.326 116.222V118.993" stroke="#666666" stroke-width="1.50294" stroke-miterlimit="10" stroke-linecap="round" stroke-linejoin="round"/>
        <path d="M192.671 122.867H195.447" stroke="#666666" stroke-width="1.50294" stroke-miterlimit="10" stroke-linecap="round" stroke-linejoin="round"/>
        <path d="M199.36 129.509V126.738" stroke="#666666" stroke-width="1.50294" stroke-miterlimit="10" stroke-linecap="round" stroke-linejoin="round"/>
        <path d="M205.981 122.829L203.241 122.865" stroke="#666666" stroke-width="1.50294" stroke-miterlimit="10" stroke-linecap="round" stroke-linejoin="round"/>
        <path d="M337.12 19.9854V22.1154" stroke="#666666" stroke-width="1.50294" stroke-miterlimit="10" stroke-linecap="round" stroke-linejoin="round"/>
        <path d="M331.926 25.1715H334.095" stroke="#666666" stroke-width="1.50294" stroke-miterlimit="10" stroke-linecap="round" stroke-linejoin="round"/>
        <path d="M337.12 30.3219V28.1919" stroke="#666666" stroke-width="1.50294" stroke-miterlimit="10" stroke-linecap="round" stroke-linejoin="round"/>
        <path d="M342.315 25.1361H340.146" stroke="#666666" stroke-width="1.50294" stroke-miterlimit="10" stroke-linecap="round" stroke-linejoin="round"/>
        <path d="M232.851 89.6147V91.7448" stroke="#666666" stroke-width="1.50294" stroke-miterlimit="10" stroke-linecap="round" stroke-linejoin="round"/>
        <path d="M227.653 94.801H229.823" stroke="#666666" stroke-width="1.50294" stroke-miterlimit="10" stroke-linecap="round" stroke-linejoin="round"/>
        <path d="M232.851 99.9518V97.8218" stroke="#666666" stroke-width="1.50294" stroke-miterlimit="10" stroke-linecap="round" stroke-linejoin="round"/>
        <path d="M238.043 94.7656H235.873" stroke="#666666" stroke-width="1.50294" stroke-miterlimit="10" stroke-linecap="round" stroke-linejoin="round"/>
        <path d="M345.909 196.009V199.669" stroke="#666666" stroke-width="1.50294" stroke-miterlimit="10" stroke-linecap="round" stroke-linejoin="round"/>
        <path d="M337.083 204.819H340.749" stroke="#666666" stroke-width="1.50294" stroke-miterlimit="10" stroke-linecap="round" stroke-linejoin="round"/>
        <path d="M345.909 213.629V209.97" stroke="#666666" stroke-width="1.50294" stroke-miterlimit="10" stroke-linecap="round" stroke-linejoin="round"/>
        <path d="M354.733 204.82H351.068" stroke="#666666" stroke-width="1.50294" stroke-miterlimit="10" stroke-linecap="round" stroke-linejoin="round"/>
        <path d="M81.5624 50.4997V53.5903" stroke="#666666" stroke-width="1.50294" stroke-miterlimit="10" stroke-linecap="round" stroke-linejoin="round"/>
        <path d="M74.0908 57.995L77.1869 57.9595" stroke="#666666" stroke-width="1.50294" stroke-miterlimit="10" stroke-linecap="round" stroke-linejoin="round"/>
        <path d="M81.5624 65.4556V62.3294" stroke="#666666" stroke-width="1.50294" stroke-miterlimit="10" stroke-linecap="round" stroke-linejoin="round"/>
        <path d="M89.0377 57.9595H85.9415" stroke="#666666" stroke-width="1.50294" stroke-miterlimit="10" stroke-linecap="round" stroke-linejoin="round"/>
        <path d="M8.97943 99.0004L9.01501 101.487" stroke="#666666" stroke-width="1.50294" stroke-miterlimit="10" stroke-linecap="round" stroke-linejoin="round"/>
        <path d="M3.00012 105.005H5.49127" stroke="#666666" stroke-width="1.50294" stroke-miterlimit="10" stroke-linecap="round" stroke-linejoin="round"/>
        <path d="M9.01379 110.973V108.487" stroke="#666666" stroke-width="1.50294" stroke-miterlimit="10" stroke-linecap="round" stroke-linejoin="round"/>
        <path d="M14.9934 104.969L12.5023 105.005" stroke="#666666" stroke-width="1.50294" stroke-miterlimit="10" stroke-linecap="round" stroke-linejoin="round"/>
        <path d="M17.9798 320V322.487" stroke="#666666" stroke-width="1.50294" stroke-miterlimit="10" stroke-linecap="round" stroke-linejoin="round"/>
        <path d="M12.0001 326.004H14.4913" stroke="#666666" stroke-width="1.50294" stroke-miterlimit="10" stroke-linecap="round" stroke-linejoin="round"/>
        <path d="M18.015 331.972V329.486" stroke="#666666" stroke-width="1.50294" stroke-miterlimit="10" stroke-linecap="round" stroke-linejoin="round"/>
        <path d="M23.9934 325.969L21.5023 326.004" stroke="#666666" stroke-width="1.50294" stroke-miterlimit="10" stroke-linecap="round" stroke-linejoin="round"/>
        <path d="M267.967 151V154.73" stroke="#666666" stroke-width="1.50294" stroke-miterlimit="10" stroke-linecap="round" stroke-linejoin="round"/>
        <path d="M259 159.952H262.737" stroke="#666666" stroke-width="1.50294" stroke-miterlimit="10" stroke-linecap="round" stroke-linejoin="round"/>
        <path d="M268.002 168.905L267.967 165.175" stroke="#666666" stroke-width="1.50294" stroke-miterlimit="10" stroke-linecap="round" stroke-linejoin="round"/>
        <path d="M276.936 159.952H273.234" stroke="#666666" stroke-width="1.50294" stroke-miterlimit="10" stroke-linecap="round" stroke-linejoin="round"/>
        <path d="M47.4044 93.2324C55.7677 89.1359 59.2206 79.0472 55.1168 70.6988C51.013 62.3504 40.9064 58.9036 32.5431 63.0002C24.1799 67.0967 20.727 77.1854 24.8308 85.5338C28.9346 93.8822 39.0412 97.329 47.4044 93.2324Z" fill="#D9D9D9"/>
        <path opacity="0.3" d="M43.1994 92.0301C51.8645 88.6142 56.115 78.8332 52.6931 70.1835C49.2712 61.5338 39.4728 57.2908 30.8077 60.7066C22.1426 64.1224 17.8921 73.9035 21.314 82.5532C24.7359 91.2029 34.5343 95.4459 43.1994 92.0301Z" fill="#00BFA5"/>
        <path d="M44.8487 87.0982C50.7867 82.7733 52.0882 74.4621 47.7556 68.5346C43.423 62.6071 35.0971 61.308 29.1591 65.6329C23.2211 69.9578 21.9196 78.269 26.2522 84.1964C30.5848 90.1239 38.9107 91.4231 44.8487 87.0982Z" fill="white" stroke="#666666" stroke-width="1.50294" stroke-miterlimit="10" stroke-linecap="round" stroke-linejoin="round"/>
        <path d="M40.7434 85.5269L39.8181 83.7506C38.6793 84.319 37.3625 84.6032 36.3305 84.6032C36.0458 84.6032 35.8323 84.3901 35.7967 84.1059L35.6899 83.4309C35.6543 83.0757 35.9035 82.7915 36.2593 82.7915C37.2202 82.7915 38.3234 82.5783 39.3555 82.0455C40.9569 81.1929 41.5619 79.7363 40.8858 78.4219C40.2452 77.1786 38.964 76.8588 36.9355 77.072C34.1596 77.3562 32.2023 77.072 31.1703 75.1181C30.2094 73.2353 30.7788 71.1393 32.7006 69.7184L31.7753 67.9421C31.6329 67.6579 31.7397 67.3382 32.0244 67.1961L32.4158 66.983C32.7005 66.8409 33.0208 66.9474 33.1632 67.2316L34.0529 68.9368C35.1561 68.4039 36.117 68.2263 36.8999 68.1908C37.1846 68.1908 37.4337 68.4039 37.4693 68.6881L37.5405 69.3631C37.5761 69.6828 37.327 69.967 37.0067 70.0026C36.3661 70.0381 35.4408 70.1802 34.3732 70.7131C32.6294 71.6012 32.5226 72.9866 32.9853 73.9103C33.5902 75.0826 34.7291 75.2247 37.1134 75.0115C39.9249 74.7629 41.7399 75.2957 42.7719 77.3207C43.6972 79.0969 43.3413 81.406 41.206 83.0046L42.1669 84.8519C42.3093 85.1361 42.2025 85.4558 41.9178 85.5979L41.4907 85.8111C41.2416 85.9177 40.8858 85.8111 40.7434 85.5269Z" fill="#666666"/>
        <path d="M27.7105 154.353C35.0501 150.968 38.2512 142.285 34.8603 134.958C31.4694 127.632 22.7707 124.436 15.4311 127.821C8.09152 131.206 4.89043 139.889 8.28129 147.216C11.6722 154.542 20.3709 157.738 27.7105 154.353Z" fill="#D9D9D9"/>
        <path opacity="0.3" d="M22.7556 153.383C30.7274 152.038 36.0979 144.497 34.751 136.54C33.404 128.582 25.8496 123.221 17.8778 124.566C9.90592 125.91 4.53541 133.451 5.88238 141.409C7.22934 149.367 14.7837 154.728 22.7556 153.383Z" fill="#00BFA5"/>
        <path d="M25.2702 149.415C31.0384 146.694 33.5052 139.821 30.78 134.063C28.0547 128.305 21.1694 125.843 15.4013 128.563C9.63306 131.284 7.16628 138.157 9.89153 143.915C12.6168 149.673 19.5021 152.135 25.2702 149.415Z" fill="white" stroke="#666666" stroke-width="1.50294" stroke-miterlimit="10" stroke-linecap="round" stroke-linejoin="round"/>
        <path d="M16.6121 146.745L17.2298 145.111C16.2106 144.711 15.2223 144.032 14.6355 143.354C14.4811 143.169 14.4811 142.922 14.6355 142.737L15.0061 142.275C15.1914 142.059 15.5312 142.059 15.7474 142.275C16.3033 142.892 17.1063 143.477 18.0328 143.817C19.5153 144.371 20.8124 143.878 21.2448 142.707C21.6772 141.566 21.1213 140.579 19.7932 139.377C17.971 137.774 17.0136 136.325 17.6931 134.537C18.3417 132.81 20.0403 131.947 22.0478 132.348L22.6655 130.714C22.7581 130.467 23.0361 130.344 23.2832 130.436L23.6538 130.56C23.9009 130.652 24.0244 130.93 23.9318 131.176L23.3449 132.718C24.3332 133.119 25.0127 133.612 25.476 134.105C25.6613 134.29 25.6613 134.568 25.476 134.753L25.1054 135.184C24.9201 135.4 24.5803 135.4 24.395 135.215C23.9935 134.814 23.3758 134.29 22.3875 133.951C20.7815 133.365 19.8241 134.105 19.5153 134.938C19.1138 136.017 19.7006 136.849 21.2139 138.236C23.0361 139.901 23.7156 141.35 23.0361 143.2C22.4184 144.834 20.7198 145.944 18.4652 145.512L17.8475 147.208C17.7549 147.454 17.4769 147.578 17.2298 147.485L16.8283 147.331C16.643 147.269 16.5195 146.992 16.6121 146.745Z" fill="#666666"/>
        <path d="M335.75 247.533C337.642 246.617 338.432 244.343 337.514 242.454C336.596 240.565 334.318 239.777 332.426 240.693C330.534 241.609 329.744 243.883 330.662 245.772C331.58 247.66 333.857 248.449 335.75 247.533Z" fill="white" stroke="#666666" stroke-width="1.50294" stroke-miterlimit="10" stroke-linecap="round" stroke-linejoin="round"/>
        <path d="M351.281 229.006C350.854 231.066 352.135 233.091 354.199 233.553C356.263 233.979 358.292 232.7 358.755 230.64C359.182 228.579 357.901 226.555 355.836 226.093C353.737 225.631 351.708 226.945 351.281 229.006Z" fill="white" stroke="#666666" stroke-width="1.50294" stroke-miterlimit="10" stroke-linecap="round" stroke-linejoin="round"/>
        <path d="M337.262 241.154L351.675 231.669" stroke="#666666" stroke-width="1.50294" stroke-miterlimit="10" stroke-linecap="round" stroke-linejoin="round"/>
        <path d="M356.372 233.376L360.821 246.058" stroke="#666666" stroke-width="1.50294" stroke-miterlimit="10" stroke-linecap="round" stroke-linejoin="round"/>
    </g>
    <defs>
        <clipPath id="clip0_2154_718">
            <rect width="360" height="365" fill="white"/>
        </clipPath>
    </defs>
</svg>
