<svg width="18" height="18" viewBox="0 0 18 18" fill="none" xmlns="http://www.w3.org/2000/svg">
<path d="M3 4.5H4.5V13.5H3V4.5ZM5.25 4.5H6V13.5H5.25V4.5ZM6.75 4.5H9V13.5H6.75V4.5ZM9.75 4.5H10.5V13.5H9.75V4.5ZM12 4.5H13.5V13.5H12V4.5ZM14.25 4.5H15V13.5H14.25V4.5ZM1.5 3V6H0V3C0 2.60218 0.158035 2.22064 0.43934 1.93934C0.720644 1.65804 1.10218 1.5 1.5 1.5H4.5V3H1.5ZM16.5 1.5C16.8978 1.5 17.2794 1.65804 17.5607 1.93934C17.842 2.22064 18 2.60218 18 3V6H16.5V3H13.5V1.5H16.5ZM1.5 12V15H4.5V16.5H1.5C1.10218 16.5 0.720644 16.342 0.43934 16.0607C0.158035 15.7794 0 15.3978 0 15V12H1.5ZM16.5 15V12H18V15C18 15.3978 17.842 15.7794 17.5607 16.0607C17.2794 16.342 16.8978 16.5 16.5 16.5H13.5V15H16.5Z" fill="white"/>
</svg>
