<svg width="24" height="24" viewBox="0 0 24 24" fill="none" xmlns="http://www.w3.org/2000/svg">
    <path d="M21.75 16.875H23.375V23.375H21.75V16.875ZM18.5 13.625H20.125V23.375H18.5V13.625ZM15.25 20.125H16.875V23.375H15.25V20.125ZM6.3125 12C5.18762 12 4.088 12.3336 3.1527 12.9585C2.21739 13.5835 1.48841 14.4717 1.05794 15.511C0.627464 16.5502 0.514833 17.6938 0.734286 18.7971C0.95374 19.9003 1.49542 20.9138 2.29083 21.7092C3.08624 22.5046 4.09966 23.0463 5.20293 23.2657C6.30619 23.4852 7.44976 23.3725 8.48901 22.9421C9.52827 22.5116 10.4165 21.7826 11.0415 20.8473C11.6664 19.912 12 18.8124 12 17.6875C11.9983 16.1796 11.3985 14.734 10.3323 13.6677C9.26603 12.6015 7.82039 12.0017 6.3125 12ZM10.2929 16.875H7.125V13.7071C7.90485 13.8677 8.62052 14.2534 9.18355 14.8165C9.74657 15.3795 10.1323 16.0951 10.2929 16.875ZM6.3125 21.75C5.30574 21.75 4.33483 21.3762 3.58801 20.7011C2.8412 20.0259 2.37168 19.0975 2.27049 18.0958C2.1693 17.0942 2.44365 16.0906 3.04035 15.2797C3.63704 14.4688 4.51357 13.9084 5.5 13.7071V16.875C5.5 17.306 5.67121 17.7193 5.97595 18.024C6.2807 18.3288 6.69403 18.5 7.125 18.5H10.2929C10.1045 19.4169 9.60575 20.2408 8.88067 20.8328C8.15559 21.4249 7.24857 21.7488 6.3125 21.75ZM17.3097 8.75L20.5597 3.875H23.375V2.25H19.6903L16.4403 7.125H13.625V0.625H12V10.375C12 10.806 12.1712 11.2193 12.476 11.524C12.7807 11.8288 13.194 12 13.625 12H23.375V10.375H13.625V8.75H17.3097Z" fill="#238AD4"/>
</svg>
