<svg width="29" height="21" viewBox="0 0 29 21" fill="none" xmlns="http://www.w3.org/2000/svg">
    <path d="M3.84375 0.8125C2.25016 0.8125 0.9375 2.12516 0.9375 3.71875V17.2812C0.9375 18.8748 2.25016 20.1875 3.84375 20.1875H25.1562C26.7498 20.1875 28.0625 18.8748 28.0625 17.2812V3.71875C28.0625 2.12516 26.7498 0.8125 25.1562 0.8125H3.84375ZM3.84375 2.75H25.1562C25.7036 2.75 26.125 3.17141 26.125 3.71875V5.65625H3.84375V7.59375H26.125V17.2812C26.125 17.8286 25.7036 18.25 25.1562 18.25H3.84375C3.29641 18.25 2.875 17.8286 2.875 17.2812V3.71875C2.875 3.17141 3.29641 2.75 3.84375 2.75Z" fill="#238AD4"/>
</svg>