<svg width="26" height="26" viewBox="0 0 26 26" fill="none" xmlns="http://www.w3.org/2000/svg">
    <path d="M20.584 7.04183C18.7965 7.04183 17.334 6.55433 17.334 5.9585V7.04183C17.334 7.63766 18.7965 8.12516 20.584 8.12516C22.3715 8.12516 23.834 7.63766 23.834 7.04183V5.9585C23.834 6.55433 22.3715 7.04183 20.584 7.04183Z" fill="#238AD4"/>
    <path d="M20.584 5.41683C18.7965 5.41683 17.334 4.92933 17.334 4.3335V5.41683C17.334 6.01266 18.7965 6.50016 20.584 6.50016C22.3715 6.50016 23.834 6.01266 23.834 5.41683V4.3335C23.834 4.92933 22.3715 5.41683 20.584 5.41683ZM20.584 8.66683C18.7965 8.66683 17.334 8.17933 17.334 7.5835V8.66683C17.334 9.26266 18.7965 9.75016 20.584 9.75016C22.3715 9.75016 23.834 9.26266 23.834 8.66683V7.5835C23.834 8.17933 22.3715 8.66683 20.584 8.66683Z" fill="#238AD4"/>
    <path d="M20.584 10.2918C18.7965 10.2918 17.334 9.80433 17.334 9.2085V10.2918C17.334 10.8877 18.7965 11.3752 20.584 11.3752C22.3715 11.3752 23.834 10.8877 23.834 10.2918V9.2085C23.834 9.80433 22.3715 10.2918 20.584 10.2918Z" fill="#238AD4"/>
    <path d="M20.584 11.9168C18.7965 11.9168 17.334 11.4293 17.334 10.8335V11.9168C17.334 12.5127 18.7965 13.0002 20.584 13.0002C22.3715 13.0002 23.834 12.5127 23.834 11.9168V10.8335C23.834 11.4293 22.3715 11.9168 20.584 11.9168Z" fill="#238AD4"/>
    <path d="M20.584 13.5418C18.7965 13.5418 17.334 13.0543 17.334 12.4585V13.5418C17.334 14.1377 18.7965 14.6252 20.584 14.6252C22.3715 14.6252 23.834 14.1377 23.834 13.5418V12.4585C23.834 13.0543 22.3715 13.5418 20.584 13.5418Z" fill="#238AD4"/>
    <path d="M20.584 15.1668C18.7965 15.1668 17.334 14.6793 17.334 14.0835V15.1668C17.334 15.7627 18.7965 16.2502 20.584 16.2502C22.3715 16.2502 23.834 15.7627 23.834 15.1668V14.0835C23.834 14.6793 22.3715 15.1668 20.584 15.1668Z" fill="#238AD4"/>
    <path d="M20.584 16.7918C18.7965 16.7918 17.334 16.3043 17.334 15.7085V16.7918C17.334 17.3877 18.7965 17.8752 20.584 17.8752C22.3715 17.8752 23.834 17.3877 23.834 16.7918V15.7085C23.834 16.3043 22.3715 16.7918 20.584 16.7918Z" fill="#238AD4"/>
    <path d="M20.584 18.4168C18.7965 18.4168 17.334 17.9293 17.334 17.3335V18.4168C17.334 19.0127 18.7965 19.5002 20.584 19.5002C22.3715 19.5002 23.834 19.0127 23.834 18.4168V17.3335C23.834 17.9293 22.3715 18.4168 20.584 18.4168Z" fill="#238AD4"/>
    <path d="M20.584 20.0418C18.7965 20.0418 17.334 19.5543 17.334 18.9585V20.0418C17.334 20.6377 18.7965 21.1252 20.584 21.1252C22.3715 21.1252 23.834 20.6377 23.834 20.0418V18.9585C23.834 19.5543 22.3715 20.0418 20.584 20.0418Z" fill="#238AD4"/>
    <path d="M20.584 21.6668C18.7965 21.6668 17.334 21.1793 17.334 20.5835V21.6668C17.334 22.2627 18.7965 22.7502 20.584 22.7502C22.3715 22.7502 23.834 22.2627 23.834 21.6668V20.5835C23.834 21.1793 22.3715 21.6668 20.584 21.6668Z" fill="#238AD4"/>
    <path d="M20.584 5.41667C22.3789 5.41667 23.834 4.93164 23.834 4.33333C23.834 3.73502 22.3789 3.25 20.584 3.25C18.7891 3.25 17.334 3.73502 17.334 4.33333C17.334 4.93164 18.7891 5.41667 20.584 5.41667Z" fill="#86C9FA"/>
    <path d="M20.584 6.5C19.0673 6.5 17.8215 6.175 17.4423 5.6875C17.3882 5.79583 17.334 5.85 17.334 5.95833C17.334 6.55417 18.7965 7.04167 20.584 7.04167C22.3715 7.04167 23.834 6.55417 23.834 5.95833C23.834 5.85 23.7798 5.79583 23.7257 5.6875C23.3465 6.175 22.1007 6.5 20.584 6.5ZM20.584 8.125C19.0673 8.125 17.8215 7.8 17.4423 7.3125C17.3882 7.42083 17.334 7.475 17.334 7.58333C17.334 8.17917 18.7965 8.66667 20.584 8.66667C22.3715 8.66667 23.834 8.17917 23.834 7.58333C23.834 7.475 23.7798 7.42083 23.7257 7.3125C23.3465 7.8 22.1007 8.125 20.584 8.125ZM20.584 9.75C19.0673 9.75 17.8215 9.425 17.4423 8.9375C17.3882 9.04583 17.334 9.1 17.334 9.20833C17.334 9.80417 18.7965 10.2917 20.584 10.2917C22.3715 10.2917 23.834 9.80417 23.834 9.20833C23.834 9.1 23.7798 9.04583 23.7257 8.9375C23.3465 9.425 22.1007 9.75 20.584 9.75ZM20.584 11.375C19.0673 11.375 17.8215 11.05 17.4423 10.5625C17.3882 10.6708 17.334 10.725 17.334 10.8333C17.334 11.4292 18.7965 11.9167 20.584 11.9167C22.3715 11.9167 23.834 11.4292 23.834 10.8333C23.834 10.725 23.7798 10.6708 23.7257 10.5625C23.3465 11.05 22.1007 11.375 20.584 11.375ZM20.584 13C19.0673 13 17.8215 12.675 17.4423 12.1875C17.3882 12.2958 17.334 12.35 17.334 12.4583C17.334 13.0542 18.7965 13.5417 20.584 13.5417C22.3715 13.5417 23.834 13.0542 23.834 12.4583C23.834 12.35 23.7798 12.2958 23.7257 12.1875C23.3465 12.675 22.1007 13 20.584 13ZM20.584 14.625C19.0673 14.625 17.8215 14.3 17.4423 13.8125C17.3882 13.9208 17.334 13.975 17.334 14.0833C17.334 14.6792 18.7965 15.1667 20.584 15.1667C22.3715 15.1667 23.834 14.6792 23.834 14.0833C23.834 13.975 23.7798 13.9208 23.7257 13.8125C23.3465 14.3 22.1007 14.625 20.584 14.625ZM20.584 16.25C19.0673 16.25 17.8215 15.925 17.4423 15.4375C17.3882 15.5458 17.334 15.6 17.334 15.7083C17.334 16.3042 18.7965 16.7917 20.584 16.7917C22.3715 16.7917 23.834 16.3042 23.834 15.7083C23.834 15.6 23.7798 15.5458 23.7257 15.4375C23.3465 15.925 22.1007 16.25 20.584 16.25ZM20.584 17.875C19.0673 17.875 17.8215 17.55 17.4423 17.0625C17.3882 17.1708 17.334 17.225 17.334 17.3333C17.334 17.9292 18.7965 18.4167 20.584 18.4167C22.3715 18.4167 23.834 17.9292 23.834 17.3333C23.834 17.225 23.7798 17.1708 23.7257 17.0625C23.3465 17.55 22.1007 17.875 20.584 17.875ZM20.584 19.5C19.0673 19.5 17.8215 19.175 17.4423 18.6875C17.3882 18.7958 17.334 18.85 17.334 18.9583C17.334 19.5542 18.7965 20.0417 20.584 20.0417C22.3715 20.0417 23.834 19.5542 23.834 18.9583C23.834 18.85 23.7798 18.7958 23.7257 18.6875C23.3465 19.175 22.1007 19.5 20.584 19.5ZM20.584 21.125C19.0673 21.125 17.8215 20.8 17.4423 20.3125C17.3882 20.4208 17.334 20.475 17.334 20.5833C17.334 21.1792 18.7965 21.6667 20.584 21.6667C22.3715 21.6667 23.834 21.1792 23.834 20.5833C23.834 20.475 23.7798 20.4208 23.7257 20.3125C23.3465 20.8 22.1007 21.125 20.584 21.125Z" fill="#86C9FA"/>
    <path d="M5.41602 10.2918C3.62852 10.2918 2.16602 9.80433 2.16602 9.2085V10.2918C2.16602 10.8877 3.62852 11.3752 5.41602 11.3752C7.20352 11.3752 8.66602 10.8877 8.66602 10.2918V9.2085C8.66602 9.80433 7.20352 10.2918 5.41602 10.2918Z" fill="#238AD4"/>
    <path d="M5.41602 8.66683C3.62852 8.66683 2.16602 8.17933 2.16602 7.5835V8.66683C2.16602 9.26266 3.62852 9.75016 5.41602 9.75016C7.20352 9.75016 8.66602 9.26266 8.66602 8.66683V7.5835C8.66602 8.17933 7.20352 8.66683 5.41602 8.66683ZM5.41602 11.9168C3.62852 11.9168 2.16602 11.4293 2.16602 10.8335V11.9168C2.16602 12.5127 3.62852 13.0002 5.41602 13.0002C7.20352 13.0002 8.66602 12.5127 8.66602 11.9168V10.8335C8.66602 11.4293 7.20352 11.9168 5.41602 11.9168Z" fill="#238AD4"/>
    <path d="M5.41602 13.5418C3.62852 13.5418 2.16602 13.0543 2.16602 12.4585V13.5418C2.16602 14.1377 3.62852 14.6252 5.41602 14.6252C7.20352 14.6252 8.66602 14.1377 8.66602 13.5418V12.4585C8.66602 13.0543 7.20352 13.5418 5.41602 13.5418Z" fill="#238AD4"/>
    <path d="M5.41602 15.1668C3.62852 15.1668 2.16602 14.6793 2.16602 14.0835V15.1668C2.16602 15.7627 3.62852 16.2502 5.41602 16.2502C7.20352 16.2502 8.66602 15.7627 8.66602 15.1668V14.0835C8.66602 14.6793 7.20352 15.1668 5.41602 15.1668Z" fill="#238AD4"/>
    <path d="M5.41602 16.7918C3.62852 16.7918 2.16602 16.3043 2.16602 15.7085V16.7918C2.16602 17.3877 3.62852 17.8752 5.41602 17.8752C7.20352 17.8752 8.66602 17.3877 8.66602 16.7918V15.7085C8.66602 16.3043 7.20352 16.7918 5.41602 16.7918Z" fill="#238AD4"/>
    <path d="M5.41602 18.4168C3.62852 18.4168 2.16602 17.9293 2.16602 17.3335V18.4168C2.16602 19.0127 3.62852 19.5002 5.41602 19.5002C7.20352 19.5002 8.66602 19.0127 8.66602 18.4168V17.3335C8.66602 17.9293 7.20352 18.4168 5.41602 18.4168Z" fill="#238AD4"/>
    <path d="M5.41602 20.0418C3.62852 20.0418 2.16602 19.5543 2.16602 18.9585V20.0418C2.16602 20.6377 3.62852 21.1252 5.41602 21.1252C7.20352 21.1252 8.66602 20.6377 8.66602 20.0418V18.9585C8.66602 19.5543 7.20352 20.0418 5.41602 20.0418Z" fill="#238AD4"/>
    <path d="M5.41602 21.6668C3.62852 21.6668 2.16602 21.1793 2.16602 20.5835V21.6668C2.16602 22.2627 3.62852 22.7502 5.41602 22.7502C7.20352 22.7502 8.66602 22.2627 8.66602 21.6668V20.5835C8.66602 21.1793 7.20352 21.6668 5.41602 21.6668Z" fill="#238AD4"/>
    <path d="M5.41602 8.66667C7.21094 8.66667 8.66602 8.18164 8.66602 7.58333C8.66602 6.98502 7.21094 6.5 5.41602 6.5C3.62109 6.5 2.16602 6.98502 2.16602 7.58333C2.16602 8.18164 3.62109 8.66667 5.41602 8.66667Z" fill="#86C9FA"/>
    <path d="M5.41602 9.75C3.89935 9.75 2.65352 9.425 2.27435 8.9375C2.22018 9.04583 2.16602 9.1 2.16602 9.20833C2.16602 9.80417 3.62852 10.2917 5.41602 10.2917C7.20352 10.2917 8.66602 9.80417 8.66602 9.20833C8.66602 9.1 8.61185 9.04583 8.55768 8.9375C8.17852 9.425 6.93268 9.75 5.41602 9.75ZM5.41602 11.375C3.89935 11.375 2.65352 11.05 2.27435 10.5625C2.22018 10.6708 2.16602 10.725 2.16602 10.8333C2.16602 11.4292 3.62852 11.9167 5.41602 11.9167C7.20352 11.9167 8.66602 11.4292 8.66602 10.8333C8.66602 10.725 8.61185 10.6708 8.55768 10.5625C8.17852 11.05 6.93268 11.375 5.41602 11.375ZM5.41602 13C3.89935 13 2.65352 12.675 2.27435 12.1875C2.22018 12.2958 2.16602 12.35 2.16602 12.4583C2.16602 13.0542 3.62852 13.5417 5.41602 13.5417C7.20352 13.5417 8.66602 13.0542 8.66602 12.4583C8.66602 12.35 8.61185 12.2958 8.55768 12.1875C8.17852 12.675 6.93268 13 5.41602 13ZM5.41602 14.625C3.89935 14.625 2.65352 14.3 2.27435 13.8125C2.22018 13.9208 2.16602 13.975 2.16602 14.0833C2.16602 14.6792 3.62852 15.1667 5.41602 15.1667C7.20352 15.1667 8.66602 14.6792 8.66602 14.0833C8.66602 13.975 8.61185 13.9208 8.55768 13.8125C8.17852 14.3 6.93268 14.625 5.41602 14.625ZM5.41602 16.25C3.89935 16.25 2.65352 15.925 2.27435 15.4375C2.22018 15.5458 2.16602 15.6 2.16602 15.7083C2.16602 16.3042 3.62852 16.7917 5.41602 16.7917C7.20352 16.7917 8.66602 16.3042 8.66602 15.7083C8.66602 15.6 8.61185 15.5458 8.55768 15.4375C8.17852 15.925 6.93268 16.25 5.41602 16.25ZM5.41602 17.875C3.89935 17.875 2.65352 17.55 2.27435 17.0625C2.22018 17.1708 2.16602 17.225 2.16602 17.3333C2.16602 17.9292 3.62852 18.4167 5.41602 18.4167C7.20352 18.4167 8.66602 17.9292 8.66602 17.3333C8.66602 17.225 8.61185 17.1708 8.55768 17.0625C8.17852 17.55 6.93268 17.875 5.41602 17.875ZM5.41602 19.5C3.89935 19.5 2.65352 19.175 2.27435 18.6875C2.22018 18.7958 2.16602 18.85 2.16602 18.9583C2.16602 19.5542 3.62852 20.0417 5.41602 20.0417C7.20352 20.0417 8.66602 19.5542 8.66602 18.9583C8.66602 18.85 8.61185 18.7958 8.55768 18.6875C8.17852 19.175 6.93268 19.5 5.41602 19.5ZM5.41602 21.125C3.89935 21.125 2.65352 20.8 2.27435 20.3125C2.22018 20.4208 2.16602 20.475 2.16602 20.5833C2.16602 21.1792 3.62852 21.6667 5.41602 21.6667C7.20352 21.6667 8.66602 21.1792 8.66602 20.5833C8.66602 20.475 8.61185 20.4208 8.55768 20.3125C8.17852 20.8 6.93268 21.125 5.41602 21.125Z" fill="#86C9FA"/>
    <path d="M13 15.1668C11.2125 15.1668 9.75 14.6793 9.75 14.0835V15.1668C9.75 15.7627 11.2125 16.2502 13 16.2502C14.7875 16.2502 16.25 15.7627 16.25 15.1668V14.0835C16.25 14.6793 14.7875 15.1668 13 15.1668Z" fill="#238AD4"/>
    <path d="M13 13.5418C11.2125 13.5418 9.75 13.0543 9.75 12.4585V13.5418C9.75 14.1377 11.2125 14.6252 13 14.6252C14.7875 14.6252 16.25 14.1377 16.25 13.5418V12.4585C16.25 13.0543 14.7875 13.5418 13 13.5418ZM13 16.7918C11.2125 16.7918 9.75 16.3043 9.75 15.7085V16.7918C9.75 17.3877 11.2125 17.8752 13 17.8752C14.7875 17.8752 16.25 17.3877 16.25 16.7918V15.7085C16.25 16.3043 14.7875 16.7918 13 16.7918Z" fill="#238AD4"/>
    <path d="M13 18.4168C11.2125 18.4168 9.75 17.9293 9.75 17.3335V18.4168C9.75 19.0127 11.2125 19.5002 13 19.5002C14.7875 19.5002 16.25 19.0127 16.25 18.4168V17.3335C16.25 17.9293 14.7875 18.4168 13 18.4168Z" fill="#238AD4"/>
    <path d="M13 20.0418C11.2125 20.0418 9.75 19.5543 9.75 18.9585V20.0418C9.75 20.6377 11.2125 21.1252 13 21.1252C14.7875 21.1252 16.25 20.6377 16.25 20.0418V18.9585C16.25 19.5543 14.7875 20.0418 13 20.0418Z" fill="#238AD4"/>
    <path d="M13 21.6668C11.2125 21.6668 9.75 21.1793 9.75 20.5835V21.6668C9.75 22.2627 11.2125 22.7502 13 22.7502C14.7875 22.7502 16.25 22.2627 16.25 21.6668V20.5835C16.25 21.1793 14.7875 21.6668 13 21.6668Z" fill="#238AD4"/>
    <path d="M13 13.5417C14.7949 13.5417 16.25 13.0566 16.25 12.4583C16.25 11.86 14.7949 11.375 13 11.375C11.2051 11.375 9.75 11.86 9.75 12.4583C9.75 13.0566 11.2051 13.5417 13 13.5417Z" fill="#86C9FA"/>
    <path d="M13 14.625C11.4833 14.625 10.2375 14.3 9.85833 13.8125C9.80417 13.9208 9.75 13.975 9.75 14.0833C9.75 14.6792 11.2125 15.1667 13 15.1667C14.7875 15.1667 16.25 14.6792 16.25 14.0833C16.25 13.975 16.1958 13.9208 16.1417 13.8125C15.7625 14.3 14.5167 14.625 13 14.625ZM13 16.25C11.4833 16.25 10.2375 15.925 9.85833 15.4375C9.80417 15.5458 9.75 15.6 9.75 15.7083C9.75 16.3042 11.2125 16.7917 13 16.7917C14.7875 16.7917 16.25 16.3042 16.25 15.7083C16.25 15.6 16.1958 15.5458 16.1417 15.4375C15.7625 15.925 14.5167 16.25 13 16.25ZM13 17.875C11.4833 17.875 10.2375 17.55 9.85833 17.0625C9.80417 17.1708 9.75 17.225 9.75 17.3333C9.75 17.9292 11.2125 18.4167 13 18.4167C14.7875 18.4167 16.25 17.9292 16.25 17.3333C16.25 17.225 16.1958 17.1708 16.1417 17.0625C15.7625 17.55 14.5167 17.875 13 17.875ZM13 19.5C11.4833 19.5 10.2375 19.175 9.85833 18.6875C9.80417 18.7958 9.75 18.85 9.75 18.9583C9.75 19.5542 11.2125 20.0417 13 20.0417C14.7875 20.0417 16.25 19.5542 16.25 18.9583C16.25 18.85 16.1958 18.7958 16.1417 18.6875C15.7625 19.175 14.5167 19.5 13 19.5ZM13 21.125C11.4833 21.125 10.2375 20.8 9.85833 20.3125C9.80417 20.4208 9.75 20.475 9.75 20.5833C9.75 21.1792 11.2125 21.6667 13 21.6667C14.7875 21.6667 16.25 21.1792 16.25 20.5833C16.25 20.475 16.1958 20.4208 16.1417 20.3125C15.7625 20.8 14.5167 21.125 13 21.125Z" fill="#86C9FA"/>
</svg>