<svg width="38" height="38" viewBox="0 0 38 38" fill="none" xmlns="http://www.w3.org/2000/svg">
<path d="M8.78961 12.1805C8.84131 13.0594 8.82408 13.8178 8.94472 14.5416C9.23771 16.2651 10.6337 17.3681 12.271 17.2302C13.96 17.0923 15.1836 15.7653 15.2181 14.0073C15.2354 13.4386 15.2181 12.8699 15.2181 12.2322C17.4586 12.2322 19.6129 12.2322 21.9051 12.2322C21.9051 12.8871 21.8879 13.5248 21.9051 14.1797C21.9396 15.8687 23.3011 17.213 24.9901 17.2474C26.6791 17.2819 28.1268 15.8859 28.1785 14.1797C28.1958 13.5592 28.1785 12.9216 28.1785 12.1632C28.8852 12.1632 29.5228 12.1632 30.1778 12.1632C32.1253 12.1632 34.09 12.1632 36.0375 12.1632C37.0027 12.1632 37.1405 12.3356 36.8992 13.3007C35.1241 20.522 33.3489 27.7606 31.5738 34.9819C31.2118 36.4468 30.1088 37.343 28.5922 37.3602C21.8707 37.3775 15.1492 37.3775 8.42768 37.3602C6.85933 37.3602 5.77355 36.4813 5.39439 34.9474C3.63646 27.6916 1.8613 20.4358 0.0689 13.1973C-0.0862114 12.6113 -0.017273 12.1977 0.672111 12.1977C3.36071 12.1632 6.04931 12.1805 8.78961 12.1805Z" fill="#F4511E"/>
<path d="M26.5755 10.7328C26.5755 11.8013 26.5928 12.8526 26.5755 13.9212C26.5583 15.007 26.0068 15.5929 25.0417 15.5929C24.0765 15.5929 23.5423 14.9897 23.525 13.904C23.5078 11.9737 23.525 10.0606 23.525 8.13036C23.525 5.32112 21.3018 3.02892 18.5787 2.99445C15.9246 2.95998 13.6841 5.13154 13.5979 7.90631C13.5289 9.88829 13.5979 11.8703 13.5634 13.8523C13.5462 15.0242 12.9947 15.6102 11.9951 15.5757C11.2023 15.5585 10.5818 15.1621 10.5818 14.3693C10.5818 11.5945 10.375 8.76804 10.8231 6.06221C11.4608 2.16719 15.3903 -0.38353 19.337 0.0473346C23.4216 0.495434 26.4894 3.77001 26.5583 7.8029C26.5928 8.78528 26.5755 9.75041 26.5755 10.7328Z" fill="#F4511E"/>
</svg>
