<svg width="24" height="24" viewBox="0 0 24 24" fill="none" xmlns="http://www.w3.org/2000/svg">
    <path d="M15.407 19.2173H18.8218V18.13L15.407 17.8891V19.2173Z" fill="#6D6E71"/>
    <path d="M18.8218 20.4588H15.407V21.7437H18.8218V20.4588Z" fill="#6D6E71"/>
    <path d="M15.407 14.0033L18.8218 14.8867V13.7624L15.407 12.4404V14.0033Z" fill="#6D6E71"/>
    <path d="M16.5778 10.513V8.30766L12.5111 6.67678V3.35075L6.05185 0.762355L6.02963 0.75L5.98519 0.824131L3 3.76464V21.75H14.1481V10.791L19.6963 12.8852V17.3176V21.75H21V12.181L16.5778 10.513ZM6.05185 21.1014V1.72605L11.4667 3.89437V6.26289L10.1185 5.71926L10.0963 5.70691L10.0519 5.78104L7.07407 8.71537V21.089H6.05185V21.1014ZM15.5333 10.1177L14.1333 9.59259L14.1185 9.6173L11.1111 12.2613V21.1014H10.1185V6.68296L15.5333 8.85128V10.1177Z" fill="#6D6E71"/>
    <path d="M15.407 16.7215L18.8218 17.0489V16.0049L15.407 15.2451V16.7215Z" fill="#6D6E71"/>
</svg>
