<svg width="36" height="36" viewBox="0 0 36 36" fill="none" xmlns="http://www.w3.org/2000/svg">
    <rect width="36" height="36" rx="12" fill="#FEF4E2"/>
    <path fill-rule="evenodd" clip-rule="evenodd" d="M19 10C22.859 10 26 13.141 26 17C26 17.553 26.447 18 27 18C27.553 18 28 17.553 28 17C28 12.037 23.963 8 19 8C18.448 8 18 8.447 18 9C18 9.553 18.448 10 19 10ZM19 14C20.654 14 22 15.346 22 17C22 17.553 22.447 18 23 18C23.553 18 24 17.553 24 17C24 14.243 21.757 12 19 12C18.448 12 18 12.447 18 13C18 13.553 18.448 14 19 14ZM27.03 21.2622C27.366 21.3392 27.639 21.5832 27.751 21.9082C27.833 22.1432 27.896 22.3882 27.936 22.6382C27.978 22.8872 28 23.1412 28 23.4002C28 25.9362 25.937 28.0002 23.4 28.0002C14.909 28.0002 8 21.0922 8 12.5992C8 10.0632 10.064 8.0002 12.6 8.0002C12.86 8.0002 13.117 8.0222 13.366 8.0652C13.609 8.1042 13.854 8.1662 14.091 8.2482C14.417 8.3612 14.661 8.6342 14.738 8.9702L16.107 14.9332C16.183 15.2622 16.088 15.6062 15.855 15.8492C15.718 15.9922 15.715 15.9952 14.475 16.6432C15.479 18.8182 17.224 20.5562 19.355 21.5272C20.005 20.2862 20.008 20.2822 20.15 20.1452C20.394 19.9122 20.737 19.8192 21.066 19.8922L27.03 21.2622Z" fill="#F89326"/>
</svg>