<svg width="16" height="22" viewBox="0 0 16 22" fill="none" xmlns="http://www.w3.org/2000/svg">
    <path d="M7.99532 0.600098C9.86732 0.600098 11.4611 1.9131 11.8225 3.7227C11.8426 3.80761 11.8453 3.89568 11.8306 3.98167C11.8159 4.06766 11.784 4.14981 11.7369 4.22323C11.6897 4.29664 11.6283 4.35981 11.5562 4.40897C11.4842 4.45814 11.4029 4.4923 11.3174 4.50941C11.2318 4.52652 11.1437 4.52623 11.0583 4.50856C10.9728 4.4909 10.8918 4.45621 10.8201 4.40658C10.7484 4.35694 10.6873 4.29337 10.6407 4.21966C10.594 4.14594 10.5627 4.06358 10.5485 3.9775C10.429 3.38905 10.1091 2.86029 9.64321 2.48143C9.17735 2.10258 8.59447 1.89712 7.99402 1.9001C6.62252 1.9001 5.49802 2.9622 5.39922 4.309L5.39142 4.504V7.1001H13.1992C13.8888 7.1001 14.5501 7.37402 15.0377 7.86162C15.5253 8.34921 15.7992 9.01053 15.7992 9.7001V18.8001C15.7992 19.4897 15.5253 20.151 15.0377 20.6386C14.5501 21.1262 13.8888 21.4001 13.1992 21.4001H2.79922C2.10966 21.4001 1.44834 21.1262 0.960741 20.6386C0.473146 20.151 0.199219 19.4897 0.199219 18.8001V9.7001C0.199219 9.01053 0.473146 8.34921 0.960741 7.86162C1.44834 7.37402 2.10966 7.1001 2.79922 7.1001H4.09272V4.5027C4.09272 3.46766 4.50388 2.47502 5.23576 1.74314C5.96764 1.01126 6.96028 0.600098 7.99532 0.600098ZM13.1992 8.4001H2.79922C2.45444 8.4001 2.12378 8.53706 1.87998 8.78086C1.63618 9.02466 1.49922 9.35532 1.49922 9.7001V18.8001C1.49922 19.1449 1.63618 19.4755 1.87998 19.7193C2.12378 19.9631 2.45444 20.1001 2.79922 20.1001H13.1992C13.544 20.1001 13.8747 19.9631 14.1185 19.7193C14.3623 19.4755 14.4992 19.1449 14.4992 18.8001V9.7001C14.4992 9.35532 14.3623 9.02466 14.1185 8.78086C13.8747 8.53706 13.544 8.4001 13.1992 8.4001ZM7.99922 12.9501C8.344 12.9501 8.67466 13.0871 8.91846 13.3309C9.16226 13.5747 9.29922 13.9053 9.29922 14.2501C9.29922 14.5949 9.16226 14.9255 8.91846 15.1693C8.67466 15.4131 8.344 15.5501 7.99922 15.5501C7.65444 15.5501 7.32378 15.4131 7.07998 15.1693C6.83618 14.9255 6.69922 14.5949 6.69922 14.2501C6.69922 13.9053 6.83618 13.5747 7.07998 13.3309C7.32378 13.0871 7.65444 12.9501 7.99922 12.9501Z" fill="#238AD4"/>
</svg>
