<svg width="30" height="30" viewBox="0 0 30 30" fill="none" xmlns="http://www.w3.org/2000/svg">
<circle cx="15" cy="15" r="15" fill="white"/>
<circle cx="15" cy="15" r="14.75" stroke="#DD281F" stroke-opacity="0.6" stroke-width="0.5"/>
<path d="M12.8076 20.2191L13.6031 19.4236C13.9429 19.8462 14.1749 20.2964 14.2992 20.7743C14.4235 21.2521 14.4124 21.741 14.266 22.241C14.1169 22.7382 13.8006 23.2285 13.3172 23.7118C12.9637 24.0654 12.5756 24.3209 12.153 24.4783C11.7331 24.633 11.2981 24.6924 10.8479 24.6565C10.3949 24.6178 9.94052 24.4838 9.48476 24.2546C9.02901 24.0198 8.58983 23.6911 8.16723 23.2685L7.56646 22.6677C7.14385 22.2451 6.81654 21.8073 6.58452 21.3543C6.3525 20.8958 6.21854 20.4387 6.18263 19.9829C6.14949 19.5244 6.21578 19.0797 6.3815 18.6488C6.54723 18.2179 6.81654 17.816 7.18943 17.4432C7.64518 16.9874 8.11613 16.6877 8.60226 16.5441C9.0884 16.4005 9.57039 16.3935 10.0482 16.5234C10.5261 16.6477 10.9846 16.888 11.4238 17.2443L10.6283 18.0398C10.3079 17.7967 9.99438 17.6268 9.68778 17.5302C9.37842 17.4307 9.07182 17.4224 8.76799 17.5053C8.46416 17.5882 8.15618 17.7857 7.84406 18.0978C7.57613 18.3657 7.39107 18.653 7.28887 18.9596C7.18943 19.2634 7.16457 19.5783 7.21429 19.9042C7.26677 20.2274 7.38968 20.5547 7.58303 20.8862C7.77638 21.2176 8.03326 21.5436 8.35367 21.864L8.96272 22.473C9.25827 22.7686 9.56625 23.0158 9.88666 23.2146C10.2098 23.4108 10.533 23.5433 10.8562 23.6124C11.1793 23.6814 11.4956 23.6745 11.805 23.5917C12.1116 23.506 12.3988 23.3293 12.6667 23.0613C13.0065 22.7216 13.2233 22.3971 13.3172 22.0877C13.4111 21.7783 13.4084 21.4717 13.3089 21.1679C13.2123 20.8613 13.0452 20.545 12.8076 20.2191ZM12.6833 12.115L18.7158 18.1475L17.9286 18.9347L11.8961 12.9022L12.6833 12.115ZM14.6223 10.176L15.277 10.8306L10.6159 15.4917L9.96123 14.8371L14.6223 10.176ZM17.8126 6.98571L23.8451 13.0182L23.0579 13.8054L17.0254 7.77292L17.8126 6.98571ZM19.7516 5.04669L20.4062 5.70132L15.7451 10.3624L15.0905 9.7078L19.7516 5.04669Z" fill="#DD281F"/>
</svg>
