<svg width="26" height="20" viewBox="0 0 26 20" fill="none" xmlns="http://www.w3.org/2000/svg">
    <path d="M6.0255 9.60187C6.0255 7.7965 6.8185 6.75325 8.16887 6.75325C9.2755 6.75325 10.0181 7.517 10.0961 8.55213H11.96V8.375C11.8755 6.44775 10.296 5.125 8.15425 5.125C5.54775 5.125 4.0625 6.83125 4.0625 9.59537V10.8092C4.0625 13.5717 5.53313 15.2455 8.15425 15.2455C10.2895 15.2455 11.8674 13.9585 11.96 12.0946V11.9094H10.0961C10.0181 12.9087 9.29012 13.6156 8.16887 13.6156C6.80387 13.6156 6.0255 12.6081 6.0255 10.8092V9.60187V9.60187ZM16.003 9.60187C16.003 7.7965 16.796 6.75325 18.1448 6.75325C19.253 6.75325 19.9956 7.517 20.0736 8.55213H21.9375V8.375C21.8514 6.44775 20.2735 5.125 18.1317 5.125C15.5253 5.125 14.04 6.83125 14.04 9.59537V10.8092C14.04 13.5717 15.5106 15.2455 18.1317 15.2455C20.267 15.2455 21.8449 13.9585 21.9375 12.0946V11.9094H20.0736C19.9956 12.9087 19.266 13.6156 18.1448 13.6156C16.7814 13.6156 16.003 12.6081 16.003 10.8092V9.60187V9.60187Z" fill="#238AD4"/>
    <path d="M22.75 1.875C23.181 1.875 23.5943 2.0462 23.899 2.35095C24.2038 2.6557 24.375 3.06902 24.375 3.5V16.5C24.375 16.931 24.2038 17.3443 23.899 17.649C23.5943 17.9538 23.181 18.125 22.75 18.125H3.25C2.81902 18.125 2.4057 17.9538 2.10095 17.649C1.7962 17.3443 1.625 16.931 1.625 16.5V3.5C1.625 3.06902 1.7962 2.6557 2.10095 2.35095C2.4057 2.0462 2.81902 1.875 3.25 1.875H22.75ZM3.25 0.25C2.38805 0.25 1.5614 0.59241 0.951903 1.2019C0.34241 1.8114 0 2.63805 0 3.5L0 16.5C0 17.362 0.34241 18.1886 0.951903 18.7981C1.5614 19.4076 2.38805 19.75 3.25 19.75H22.75C23.612 19.75 24.4386 19.4076 25.0481 18.7981C25.6576 18.1886 26 17.362 26 16.5V3.5C26 2.63805 25.6576 1.8114 25.0481 1.2019C24.4386 0.59241 23.612 0.25 22.75 0.25H3.25Z" fill="#238AD4"/>
</svg>