<svg width="24" height="24" viewBox="0 0 24 24" fill="none" xmlns="http://www.w3.org/2000/svg">
    <path d="M10.5841 1.51505C10.3987 1.51439 10.2128 1.51458 10.0263 1.51537C9.12877 1.51955 8.21691 1.54312 7.29727 1.57725L7.56333 2.74411C8.52103 2.63583 9.57099 2.5552 10.6208 2.51489C11.1896 2.49305 11.7549 2.48151 12.3033 2.48442C13.9484 2.493 15.441 2.63114 16.4175 3.00951L16.8351 3.17142L16.6486 3.57853C15.2864 6.55439 14.9714 9.42534 15.1848 12.2423C15.2902 8.89922 16.6798 5.92584 18.504 2.11406C16.0217 1.70156 13.365 1.52428 10.5841 1.515V1.51505ZM11.8982 3.33333C11.4885 3.33366 11.0708 3.34195 10.6532 3.35798C8.69986 3.43298 6.75328 3.6622 5.48461 3.92498C6.90178 6.55369 8.0482 9.18844 8.7885 11.757C8.88058 11.7539 8.97275 11.7546 9.06478 11.7591C9.25313 11.7683 9.43941 11.7938 9.62142 11.8336C8.86791 9.42436 8.00963 7.20234 6.9427 4.9837L6.70163 4.48242L7.24941 4.38548C8.62547 4.14183 10.0458 4.04752 11.3976 4.04709C11.4877 4.04709 11.5776 4.04742 11.667 4.04822C12.5259 4.05572 13.3538 4.10016 14.1207 4.16705L14.6389 4.21228L14.4878 4.70995C13.6112 7.59572 13.4395 10.6949 13.9351 13.6435C13.9433 13.6511 13.9517 13.6587 13.9598 13.6665C14.1385 13.6038 14.3057 13.54 14.4615 13.4717C14.0746 10.3126 14.2461 7.05347 15.691 3.66544C14.8847 3.45998 13.6555 3.35259 12.3048 3.33572C12.1693 3.33404 12.0337 3.33326 11.8982 3.33337V3.33333ZM18.6925 3.6795C17.2414 6.75244 16.2108 9.21497 16.0418 11.8734C16.9811 8.74205 18.7966 5.93503 20.8655 4.13161C20.1473 3.95248 19.4225 3.80166 18.6925 3.6795V3.6795ZM4.86619 4.54805C3.98681 4.72936 3.12778 4.95952 2.29688 5.27752C2.70122 5.62814 3.43219 6.28041 4.31906 7.14731C4.72725 6.72717 5.14355 6.31209 5.57775 5.93466C5.34778 5.46879 5.11056 5.00653 4.86619 4.54805V4.54805ZM11.5235 4.89876C10.8851 4.89567 10.2315 4.91395 9.57567 4.95937C9.50686 5.60072 9.12755 6.20072 8.6745 6.79078C9.39783 8.50027 10.0225 10.2447 10.5849 12.0967C11.4463 12.3508 12.2984 12.6511 12.9887 13.011C12.7323 11.0208 12.7673 8.98148 13.1003 6.98719C12.4963 6.36328 12.1816 5.67047 12.1564 4.90875C11.9455 4.90313 11.7345 4.8998 11.5235 4.89876V4.89876ZM20.0556 6.16369C18.8964 7.53712 17.8749 9.2573 17.1789 11.1283C18.4569 9.31041 20.0284 7.89244 21.7013 6.89081C21.1563 6.64047 20.6077 6.39807 20.0556 6.16369V6.16369ZM5.95842 6.72427C5.27433 7.34245 4.59839 8.08444 3.89447 8.79131C5.40802 9.69089 6.69717 10.7562 7.74881 11.9629C7.81411 11.9382 7.88006 11.916 7.94639 11.8958C7.4543 10.2038 6.77991 8.47242 5.95842 6.72427ZM16.8984 12.572C16.1298 13.4996 15.4062 13.9893 14.4098 14.38C14.5219 14.8122 14.3555 15.3083 13.9723 15.6878C13.7469 15.911 13.4637 16.1654 13.0496 16.3307C13.1094 16.3661 13.1703 16.3994 13.2324 16.4304C13.812 16.7197 14.8359 16.6264 15.7871 16.1938C16.7354 15.7625 17.5825 15.0176 17.8965 14.2629C18.0539 13.8387 17.9415 13.6175 17.666 13.293C17.4699 13.0621 17.1834 12.8294 16.8984 12.5721V12.572ZM8.92598 12.5995C8.42372 12.5949 7.91363 12.7398 7.49208 13.057C6.89255 13.5081 6.43036 14.3125 6.42623 15.6789V15.6883L6.42577 15.6976C6.28889 18.5749 6.50077 19.9023 6.92053 20.6226C7.29103 21.2583 7.90725 21.5626 8.80866 22.1223C8.85159 22.0095 8.89631 21.8708 8.93827 21.6958C9.045 21.2505 9.13331 20.639 9.18928 19.9626C9.30127 18.6099 9.28491 16.9856 9.09764 15.8168L8.99869 15.1985L9.60881 15.3389C11.0908 15.6798 11.9385 15.72 12.4307 15.6332C12.923 15.5463 13.0898 15.3743 13.3785 15.0884C13.65 14.8197 13.6449 14.723 13.5874 14.5718C13.5299 14.4205 13.2992 14.1712 12.9077 13.9327C12.1248 13.4557 10.7944 13.0134 9.55083 12.6836C9.34687 12.6296 9.13696 12.6014 8.92598 12.5995V12.5995ZM17.79 15.8534C17.3207 16.3106 16.7431 16.6859 16.1364 16.9618C15.1529 17.4091 14.071 17.6137 13.1734 17.3159C12.8565 17.4338 12.6725 17.5693 12.5796 17.6815C12.4522 17.8354 12.4442 17.9487 12.4874 18.1109C12.5305 18.273 12.6592 18.4656 12.8183 18.6042C12.9773 18.7427 13.1664 18.8147 13.2383 18.8181C15.4317 18.9223 16.381 18.2928 17.5637 17.5627C17.9086 17.3498 18.0406 16.9185 18.0076 16.4878C17.991 16.2724 17.9284 16.0701 17.856 15.9426C17.8381 15.9101 17.8159 15.8801 17.79 15.8534V15.8534ZM10 16.2797C10.1279 17.4548 10.13 18.8257 10.0301 20.0322C9.97167 20.7387 9.8813 21.3812 9.75877 21.8925C9.70547 22.1149 9.64683 22.3122 9.57595 22.4858L16.4524 22.1828C16.3748 21.8946 16.2956 21.6051 16.2165 21.3155C15.9524 21.4035 15.6823 21.4727 15.4084 21.5229L15.4105 21.5571L15.0207 21.5814C14.7806 21.6102 14.5307 21.6261 14.2715 21.6279L10.3405 21.8721L10.4574 21.328C10.8299 19.5934 10.8643 18.066 10.6345 16.3952C10.4223 16.3608 10.2107 16.3223 9.99998 16.2797H10ZM11.4987 16.4993C11.6838 17.9962 11.6615 19.4248 11.3859 20.9618L12.2889 20.9057C12.1473 20.6968 12.05 20.461 12.003 20.213C11.9423 19.8905 11.976 19.5315 12.187 19.2347C12.1964 19.2216 12.2064 19.209 12.2164 19.1963C11.9705 18.9691 11.7651 18.6777 11.672 18.3279C11.5729 17.9556 11.6348 17.4997 11.9297 17.1434C12.0271 17.0258 12.1449 16.9195 12.2833 16.8239C12.1609 16.7264 12.0537 16.623 11.961 16.5154C11.8174 16.5164 11.6636 16.511 11.4987 16.4993V16.4993ZM17.7174 18.458C16.6179 19.1261 15.3826 19.7647 13.1982 19.661C13.1269 19.6575 13.0561 19.6478 12.9864 19.6321C12.9286 19.6581 12.8978 19.691 12.8748 19.7234C12.8296 19.7869 12.803 19.9015 12.8322 20.0568C12.8907 20.3675 13.1849 20.7079 13.4589 20.7398C15.3988 20.9654 16.7392 20.3307 17.553 19.5924C17.928 19.2522 17.9312 19.0346 17.876 18.7978C17.8483 18.6795 17.7874 18.5649 17.7174 18.458V18.458ZM17.4042 20.7578C17.2739 20.8394 17.1403 20.9154 17.0035 20.9856C17.0809 21.2692 17.1584 21.5528 17.235 21.8365L18.1687 21.6691C17.9278 21.4635 17.7392 21.2494 17.5879 21.0365C17.5203 20.9414 17.4608 20.8489 17.4042 20.7578Z" fill="#238AD4"/>
</svg>
