<svg width="16" height="13" viewBox="0 0 16 13" fill="none" xmlns="http://www.w3.org/2000/svg">
    <g clip-path="url(#clip0_202_6317)">
        <path d="M15.4278 0H11.6183C11.3551 0 11.0187 0.143238 10.8385 0.331429L10.3318 0.841905C10.2963 0.877823 10.2764 0.926397 10.2767 0.976943C10.2768 1.00197 10.2818 1.02673 10.2915 1.0498C10.3012 1.07288 10.3154 1.09382 10.3332 1.11143C10.3509 1.12904 10.372 1.14297 10.3952 1.15244C10.4184 1.1619 10.4432 1.16671 10.4682 1.16658C10.5187 1.16633 10.5671 1.14601 10.6027 1.1101L11.1109 0.597333C11.2194 0.48419 11.4613 0.380952 11.6183 0.380952H15.4278C15.4783 0.380952 15.5268 0.40102 15.5625 0.436742C15.5982 0.472463 15.6183 0.520911 15.6183 0.571429V4.39962C15.6183 4.55619 15.5151 4.7981 15.3996 4.90895L10.0354 10.2316C9.99736 10.2665 9.94743 10.2856 9.89579 10.285C9.84415 10.2845 9.79465 10.2643 9.75735 10.2286L8.74858 9.21943C8.71266 9.18473 8.66454 9.16553 8.6146 9.16597C8.56466 9.1664 8.51689 9.18643 8.48157 9.22175C8.44625 9.25706 8.42622 9.30484 8.42579 9.35478C8.42535 9.40472 8.44455 9.45284 8.47925 9.48876L9.48801 10.4979C9.5963 10.6044 9.74172 10.6645 9.89356 10.6657C10.0454 10.667 10.1918 10.6091 10.3017 10.5044L15.6663 5.18133C15.856 4.99924 15.9992 4.66286 15.9992 4.39962V0.571429C15.9992 0.256381 15.7429 0 15.4278 0Z" fill="#FC0F03"/>
        <path d="M14.8713 1.90473C14.8713 1.48454 14.5296 1.14282 14.1094 1.14282C13.6892 1.14282 13.3475 1.48454 13.3475 1.90473C13.3475 2.32492 13.6892 2.66663 14.1094 2.66663C14.5296 2.66663 14.8713 2.32492 14.8713 1.90473ZM13.7284 1.90473C13.7284 1.82927 13.7507 1.75549 13.7925 1.69273C13.8344 1.62996 13.894 1.58102 13.9637 1.55211C14.0334 1.5232 14.1101 1.51562 14.1841 1.53032C14.2581 1.54502 14.3261 1.58135 14.3794 1.6347C14.4328 1.68806 14.4691 1.75604 14.4838 1.83005C14.4985 1.90405 14.4909 1.98076 14.462 2.05045C14.4331 2.12015 14.3842 2.1797 14.3214 2.22157C14.2586 2.26344 14.1848 2.28575 14.1094 2.28568C13.8991 2.28568 13.7284 2.11463 13.7284 1.90473ZM6.27091 1.52377C6.00768 1.52377 5.67129 1.66701 5.49072 1.8552L0.160056 7.23844C0.0559211 7.34818 -0.00146446 7.49411 2.8414e-05 7.64539C0.00152129 7.79667 0.0617756 7.94144 0.168056 8.04911L4.14063 12.0217C4.2492 12.1306 4.39472 12.1904 4.55053 12.1904C4.70139 12.1904 4.84387 12.1337 4.95396 12.0282L10.3182 6.70549C10.5082 6.52339 10.6519 6.18701 10.6519 5.92339V2.0952C10.6519 1.78016 10.3955 1.52377 10.0804 1.52377H6.27091ZM10.2854 2.0952V5.92339C10.2854 6.08035 10.1677 6.32187 10.0522 6.43273L4.68806 11.7554C4.6496 11.7894 4.59991 11.8078 4.54861 11.8073C4.49731 11.8067 4.44804 11.7871 4.41034 11.7523L0.43739 7.78016C0.401761 7.74345 0.381425 7.69457 0.380505 7.64342C0.379586 7.59227 0.398151 7.54269 0.432437 7.50473L5.76348 2.12111C5.87206 2.00797 6.11396 1.90473 6.27091 1.90473H10.0804C10.1852 1.90473 10.2854 1.99006 10.2854 2.0952Z" fill="#FC0F03"/>
        <path d="M8.7619 2.66663C8.34171 2.66663 8 3.00834 8 3.42853C8 3.84872 8.34171 4.19044 8.7619 4.19044C9.1821 4.19044 9.52381 3.84872 9.52381 3.42853C9.52381 3.00834 9.1821 2.66663 8.7619 2.66663ZM8.7619 3.80948C8.66382 3.8051 8.5712 3.76304 8.50334 3.69208C8.43548 3.62112 8.39761 3.52672 8.39761 3.42853C8.39761 3.33035 8.43548 3.23594 8.50334 3.16498C8.5712 3.09402 8.66382 3.05197 8.7619 3.04758C8.85999 3.05197 8.95261 3.09402 9.02047 3.16498C9.08833 3.23594 9.1262 3.33035 9.1262 3.42853C9.1262 3.52672 9.08833 3.62112 9.02047 3.69208C8.95261 3.76304 8.85999 3.8051 8.7619 3.80948Z" fill="#FC0F03"/>
    </g>
    <defs>
        <clipPath id="clip0_202_6317">
            <rect width="16" height="12.1905" fill="white"/>
        </clipPath>
    </defs>
</svg>
