<svg xmlns="http://www.w3.org/2000/svg" width="48" height="48" viewBox="0 0 48 48">
<path d="M29.143,8.625V25.018a2.733,2.733,0,0,1-2.732,2.732H2.732A2.733,2.733,0,0,1,0,25.018V8.625A2.733,2.733,0,0,1,2.732,5.893H7.741l.7-1.873A2.728,2.728,0,0,1,11,2.25H18.14A2.728,2.728,0,0,1,20.7,4.02L21.4,5.893h5.009A2.733,2.733,0,0,1,29.143,8.625Zm-7.741,8.2a6.83,6.83,0,1,0-6.83,6.83A6.836,6.836,0,0,0,21.4,16.821Zm-1.821,0a5.009,5.009,0,1,1-5.009-5.009A5.016,5.016,0,0,1,19.58,16.821Z"  fill="#0174e6"/>
</svg>
