<svg width="30" height="30" viewBox="0 0 30 30" fill="none" xmlns="http://www.w3.org/2000/svg">
<circle cx="15" cy="15" r="15" fill="white"/>
<circle cx="15" cy="15" r="14.75" stroke="#1574F6" stroke-opacity="0.6" stroke-width="0.5"/>
<path d="M12.7538 24.1096L11.4942 25.3691L10.852 24.7103L12.1033 23.4591C12.5342 23.0282 12.8035 22.5794 12.9112 22.1126C13.0162 21.643 12.9775 21.1734 12.7952 20.7039C12.6129 20.2288 12.3021 19.7716 11.863 19.3325L11.4942 18.9637C11.149 18.6184 10.8009 18.3533 10.4501 18.1682C10.0966 17.9804 9.74717 17.8741 9.4019 17.8492C9.05387 17.8216 8.71551 17.8754 8.38682 18.0108C8.06088 18.1434 7.74876 18.3588 7.45045 18.6571L6.09148 20.0161L5.43685 19.3615L6.79583 18.0025C7.19081 17.6075 7.61756 17.3133 8.07608 17.12C8.53183 16.9239 9.00139 16.8327 9.48476 16.8465C9.96814 16.8548 10.4487 16.9708 10.9266 17.1946C11.4017 17.4155 11.8574 17.7442 12.2939 18.1807L12.6543 18.5411C13.0907 18.9775 13.4208 19.4347 13.6445 19.9125C13.8655 20.3876 13.9788 20.8682 13.9843 21.3543C13.9926 21.8377 13.8945 22.3142 13.6901 22.7837C13.4857 23.2478 13.1736 23.6897 12.7538 24.1096ZM5.88846 18.9099L11.921 24.9424L11.1213 25.742L5.08883 19.7095L5.88846 18.9099ZM9.70435 20.389L10.3341 21.0187L7.6949 23.658L7.06513 23.0282L9.70435 20.389ZM12.7703 12.028L18.8028 18.0605L18.0156 18.8477L11.9831 12.8152L12.7703 12.028ZM14.7093 10.089L15.364 10.7436L10.7029 15.4047L10.0482 14.7501L14.7093 10.089ZM17.8996 6.89871L23.9321 12.9312L23.1449 13.7184L17.1124 7.68592L17.8996 6.89871ZM19.8386 4.95969L20.4933 5.61431L15.8322 10.2754L15.1775 9.62079L19.8386 4.95969Z" fill="#1574F6"/>
</svg>
