<svg width="27" height="21" viewBox="0 0 27 21" fill="none" xmlns="http://www.w3.org/2000/svg">
    <path d="M6.25725 10.0866C6.25725 8.21175 7.08075 7.12837 8.48306 7.12837C9.63225 7.12837 10.4034 7.9215 10.4844 8.99644H12.42V8.8125C12.3323 6.81112 10.692 5.4375 8.46788 5.4375C5.76113 5.4375 4.21875 7.20937 4.21875 10.0798V11.3404C4.21875 14.2091 5.74594 15.9472 8.46788 15.9472C10.6853 15.9472 12.3238 14.6107 12.42 12.6752V12.4828H10.4844C10.4034 13.5206 9.64744 14.2547 8.48306 14.2547C7.06556 14.2547 6.25725 13.2084 6.25725 11.3404V10.0866V10.0866ZM16.6185 10.0866C16.6185 8.21175 17.442 7.12837 18.8426 7.12837C19.9935 7.12837 20.7647 7.9215 20.8457 8.99644H22.7812V8.8125C22.6918 6.81112 21.0532 5.4375 18.8291 5.4375C16.1224 5.4375 14.58 7.20937 14.58 10.0798V11.3404C14.58 14.2091 16.1072 15.9472 18.8291 15.9472C21.0465 15.9472 22.6851 14.6107 22.7812 12.6752V12.4828H20.8457C20.7647 13.5206 20.007 14.2547 18.8426 14.2547C17.4268 14.2547 16.6185 13.2084 16.6185 11.3404V10.0866V10.0866Z" fill="#238AD4"/>
    <path d="M23.625 2.0625C24.0726 2.0625 24.5018 2.24029 24.8182 2.55676C25.1347 2.87322 25.3125 3.30245 25.3125 3.75V17.25C25.3125 17.6976 25.1347 18.1268 24.8182 18.4432C24.5018 18.7597 24.0726 18.9375 23.625 18.9375H3.375C2.92745 18.9375 2.49822 18.7597 2.18176 18.4432C1.86529 18.1268 1.6875 17.6976 1.6875 17.25V3.75C1.6875 3.30245 1.86529 2.87322 2.18176 2.55676C2.49822 2.24029 2.92745 2.0625 3.375 2.0625H23.625ZM3.375 0.375C2.47989 0.375 1.62145 0.730579 0.988515 1.36351C0.355579 1.99645 0 2.85489 0 3.75L0 17.25C0 18.1451 0.355579 19.0035 0.988515 19.6365C1.62145 20.2694 2.47989 20.625 3.375 20.625H23.625C24.5201 20.625 25.3785 20.2694 26.0115 19.6365C26.6444 19.0035 27 18.1451 27 17.25V3.75C27 2.85489 26.6444 1.99645 26.0115 1.36351C25.3785 0.730579 24.5201 0.375 23.625 0.375H3.375Z" fill="#238AD4"/>
</svg>
