<svg width="32" height="32" viewBox="0 0 32 32" fill="none" xmlns="http://www.w3.org/2000/svg">
    <path d="M16.188 23.575C15.5113 23.575 14.8346 23.5 14.1579 23.35C10.0977 22.3 7.61654 18.175 8.66917 14.125C9.7218 10.075 13.8571 7.6 17.9173 8.65C21.4511 9.55 23.782 12.7 23.6316 16.225M23.782 23.35C23.0301 23.35 22.2782 23.35 21.5263 23.125C18.0677 22.225 15.812 19.15 15.812 15.775M21.4511 25.975C21.1504 26.125 20.8496 26.275 20.5489 26.425C19.1955 27.025 17.6165 27.4 16.0376 27.4C9.7218 27.4 4.60902 22.3 4.60902 16.075C4.60902 9.85 9.64662 4.6 15.9624 4.6C22.2782 4.6 27.391 9.7 27.391 15.925C27.391 18.025 25.6617 19.75 23.5564 19.75C21.4511 19.75 19.7218 18.025 19.7218 15.925C19.7218 13.825 17.9925 12.1 15.8872 12.1C13.782 12.1 12.0526 13.825 12.0526 15.925C12.0526 17.05 12.5789 18.1 13.406 18.775M19.0451 1.3C25.8872 2.725 31 8.725 31 16C31 19.45 29.8722 22.6 27.9173 25.15M1 16C1 7.75 7.76692 1 16.0376 1M26.1128 27.1C23.4812 29.5 19.8722 31 16.0376 31C8.66917 31 2.50376 25.675 1.22556 18.625" stroke="black" stroke-opacity="0.4" stroke-width="1.5" stroke-miterlimit="10" stroke-linecap="round" stroke-linejoin="round"/>
</svg>
