<svg width="32" height="32" viewBox="0 0 32 32" fill="none" xmlns="http://www.w3.org/2000/svg">
<g clip-path="url(#clip0_2163_1205)">
<path d="M19.0451 1.3C25.8872 2.725 31 8.725 31 16C31 19.45 29.8722 22.6 27.9173 25.15M1 16C1 7.75 7.76692 1 16.0376 1M26.1128 27.1C23.4812 29.5 19.8722 31 16.0376 31C8.66917 31 2.50376 25.675 1.22556 18.625" stroke="black" stroke-opacity="0.4" stroke-width="1.5" stroke-miterlimit="10" stroke-linecap="round" stroke-linejoin="round"/>
<path d="M9.6001 11.2573V13.5435C9.6001 14.0168 9.95827 14.4004 10.4001 14.4004C10.8419 14.4004 11.2001 14.0168 11.2001 13.5435V11.2573C11.2001 10.784 10.8419 10.4004 10.4001 10.4004C9.95827 10.4004 9.6001 10.784 9.6001 11.2573Z" fill="black" fill-opacity="0.4"/>
<path d="M21.6001 11.2573V13.5435C21.6001 14.0168 21.9583 14.4004 22.4001 14.4004C22.8419 14.4004 23.2001 14.0168 23.2001 13.5435V11.2573C23.2001 10.784 22.8419 10.4004 22.4001 10.4004C21.9583 10.4004 21.6001 10.784 21.6001 11.2573Z" fill="black" fill-opacity="0.4"/>
<path d="M11.4362 22.0781C12.8127 23.3553 14.4799 23.9998 16.4002 23.9998C18.3205 23.9998 19.9877 23.3553 21.3642 22.0781C21.6641 21.7998 21.6803 21.3326 21.4004 21.0344C21.1205 20.7362 20.6504 20.7201 20.3505 20.9984C19.2508 22.0187 17.9466 22.5229 16.4002 22.5229C14.8538 22.5229 13.5496 22.0187 12.4499 20.9984C12.15 20.7201 11.6799 20.7362 11.4 21.0344C11.1201 21.3326 11.1363 21.7998 11.4362 22.0781Z" fill="black" fill-opacity="0.4"/>
<path d="M15.9999 11.2004V16.3002C15.9999 16.6362 15.9613 16.8002 15.6288 16.8002H15.1999C14.7921 16.8002 14.3999 17.186 14.3999 17.6002C14.3999 18.0144 14.7921 18.4002 15.1999 18.4002H15.6288C16.7999 18.4002 17.5999 17.6002 17.5999 16.3002V11.2004C17.5999 10.7862 17.2077 10.4004 16.7999 10.4004C16.3921 10.4004 15.9999 10.7862 15.9999 11.2004Z" fill="black" fill-opacity="0.4"/>
</g>
<defs>
<clipPath id="clip0_2163_1205">
<rect width="32" height="32" fill="white"/>
</clipPath>
</defs>
</svg>
