<svg width="36" height="36" viewBox="0 0 36 36" fill="none" xmlns="http://www.w3.org/2000/svg">
    <rect width="36" height="36" rx="12" fill="#E1F2F4"/>
    <path fill-rule="evenodd" clip-rule="evenodd" d="M9.69761 19.4258C10.2236 19.2588 10.7856 19.5498 10.9536 20.0758C11.8906 23.0218 14.6486 24.9998 17.8166 24.9998C21.7786 24.9998 25.0006 21.8598 25.0006 17.9998C25.0006 14.1408 21.7786 10.9998 17.8166 10.9998C16.0886 10.9998 14.4586 11.6018 13.1716 12.6698L15.3376 12.3128C15.8876 12.2128 16.3976 12.5918 16.4876 13.1358C16.5776 13.6808 16.2086 14.1958 15.6636 14.2848L11.4176 14.9868C11.3626 14.9958 11.3066 14.9998 11.2536 14.9998C11.1346 14.9998 11.0186 14.9788 10.9106 14.9388C10.8736 14.9248 10.8436 14.8988 10.8076 14.8798C10.7416 14.8458 10.6726 14.8158 10.6156 14.7678C10.5796 14.7388 10.5566 14.6968 10.5256 14.6628C10.4786 14.6138 10.4286 14.5668 10.3936 14.5068C10.3686 14.4638 10.3586 14.4128 10.3396 14.3648C10.3156 14.3058 10.2836 14.2508 10.2716 14.1858L9.51761 10.1858C9.41561 9.64276 9.77261 9.11876 10.3156 9.01776C10.8566 8.91976 11.3816 9.27276 11.4836 9.81476L11.7556 11.2558C13.4196 9.81476 15.5526 8.99976 17.8166 8.99976C22.8806 8.99976 27.0006 13.0368 27.0006 17.9998C27.0006 22.9628 22.8806 26.9998 17.8166 26.9998C13.7746 26.9998 10.2506 24.4608 9.04761 20.6818C8.88061 20.1558 9.17161 19.5938 9.69761 19.4258ZM14.634 21.098C14.3578 20.6197 14.5217 20.0081 15 19.732L17.4978 18.2899L18.2167 14.7983C18.3281 14.2574 18.8569 13.9091 19.3978 14.0205C19.9387 14.1319 20.287 14.6607 20.1756 15.2016L19.3662 19.133C19.3086 19.4128 19.1341 19.6546 18.8868 19.7974L16 21.464C15.5217 21.7402 14.9101 21.5763 14.634 21.098Z" fill="#009999"/>
</svg>