<svg width="24" height="24" viewBox="0 0 24 24" fill="none" xmlns="http://www.w3.org/2000/svg">
    <path fill-rule="evenodd" clip-rule="evenodd" d="M3.69749 13.426C4.22349 13.259 4.78548 13.55 4.95348 14.076C5.89048 17.022 8.64849 19 11.8165 19C15.7785 19 19.0005 15.86 19.0005 12C19.0005 8.141 15.7785 5 11.8165 5C10.0885 5 8.45848 5.602 7.17148 6.67L9.33749 6.313C9.88749 6.213 10.3975 6.592 10.4875 7.136C10.5775 7.681 10.2085 8.196 9.66349 8.285L5.41749 8.987C5.36249 8.996 5.30649 9 5.25349 9C5.13449 9 5.01849 8.979 4.91049 8.939C4.87349 8.925 4.84348 8.899 4.80748 8.88C4.74148 8.846 4.67249 8.816 4.61549 8.768C4.57949 8.739 4.55648 8.697 4.52549 8.663C4.47848 8.614 4.42849 8.567 4.39349 8.507C4.36848 8.464 4.35849 8.413 4.33949 8.365C4.31549 8.306 4.28349 8.251 4.27149 8.186L3.51749 4.186C3.41549 3.643 3.77249 3.119 4.31549 3.018C4.85649 2.92 5.38149 3.273 5.48349 3.815L5.75549 5.256C7.41949 3.815 9.55249 3 11.8165 3C16.8805 3 21.0005 7.037 21.0005 12C21.0005 16.963 16.8805 21 11.8165 21C7.77449 21 4.25049 18.461 3.04749 14.682C2.88049 14.156 3.17149 13.594 3.69749 13.426ZM8.63385 15.0983C8.35771 14.62 8.52159 14.0084 8.99988 13.7322L11.4977 12.2901L12.2166 8.79854C12.3279 8.2576 12.8567 7.90936 13.3977 8.02073C13.9386 8.1321 14.2869 8.6609 14.1755 9.20184L13.3661 13.1333C13.3085 13.413 13.134 13.6548 12.8866 13.7976L9.99988 15.4643C9.52159 15.7404 8.91 15.5766 8.63385 15.0983Z" fill="#6D6E72"/>
</svg>