<svg width="36" height="36" viewBox="0 0 36 36" fill="none" xmlns="http://www.w3.org/2000/svg">
    <rect width="36" height="36" rx="12" fill="#F4E1E1"/>
    <path fill-rule="evenodd" clip-rule="evenodd" d="M17.3861 6.21065C17.7472 5.92978 18.2528 5.92978 18.6139 6.21065L23 9.62203V7C23 6.44772 23.4477 6 24 6C24.5523 6 25 6.44772 25 7V11.1776L27.6139 13.2106C27.8575 13.4001 28 13.6914 28 14V25C28 25.7956 27.6839 26.5587 27.1213 27.1213C26.5587 27.6839 25.7956 28 25 28H21C20.4477 28 20 27.5523 20 27V18H16V27C16 27.5523 15.5523 28 15 28H11C10.2044 28 9.44128 27.684 8.87866 27.1213C8.31608 26.5587 8 25.7956 8 25V14C8 13.6914 8.14247 13.4001 8.38606 13.2106L17.3861 6.21065ZM10 14.4891V25C10 25.2652 10.1053 25.5195 10.2929 25.7071L9.58648 26.4135L10.2929 25.7071C10.4804 25.8946 10.7348 26 11 26H14V17C14 16.4477 14.4477 16 15 16H21C21.5523 16 22 16.4477 22 17V26H25C25.2652 26 25.5195 25.8947 25.7071 25.7071C25.8947 25.5195 26 25.2652 26 25V14.4891L18 8.26686L10 14.4891Z" fill="#FC5353"/>
</svg>