<svg width="156" height="62" viewBox="0 0 156 62" fill="none" xmlns="http://www.w3.org/2000/svg">
    <path d="M68.0512 27.994C69.7232 27.994 70.9772 28.4941 71.8968 29.4942C72.2312 29.911 72.5656 30.3277 72.7328 30.8278C72.9836 31.3278 73.0672 31.9113 73.0672 32.578C73.0672 33.2448 72.9 33.9115 72.6492 34.4116C72.3984 34.995 71.9804 35.4118 71.4788 35.7451C72.064 36.0785 72.482 36.4953 72.8164 37.162C73.0672 37.7454 73.2344 38.4956 73.2344 39.1623C73.2344 39.7457 73.1508 40.2458 72.9836 40.7459C72.8164 41.2459 72.482 41.6627 72.1476 42.0794C71.7296 42.5795 71.228 42.9129 70.5592 43.2462C69.8904 43.4963 69.138 43.663 68.2184 43.663H56.765C56.0962 43.663 55.6782 43.3296 55.6782 42.6628V28.9108C55.6782 28.2441 56.0126 27.9107 56.765 27.9107H68.0512V27.994ZM67.2988 34.4116C67.6332 34.4116 67.8004 34.3283 68.0512 34.2449C68.2184 34.1616 68.3856 34.0782 68.4692 33.9116C68.6364 33.6615 68.72 33.4115 68.72 33.1614C68.72 32.9114 68.6364 32.6614 68.4692 32.4113C68.3856 32.2446 68.2184 32.1613 68.0512 32.0779C67.884 31.9946 67.6332 31.9112 67.2988 31.9112H60.2763C60.0255 31.9112 59.9419 31.9946 59.9419 32.2446V34.4116H67.2988ZM59.9419 39.4957C59.9419 39.7457 60.0255 39.8291 60.2763 39.8291H67.2988C67.6332 39.8291 67.884 39.7457 68.0512 39.6624C68.2184 39.579 68.3856 39.4957 68.5528 39.329C68.8036 39.079 68.8872 38.7456 68.8872 38.4122C68.8872 38.0788 68.8036 37.8288 68.5528 37.5788C68.4692 37.4121 68.302 37.3287 68.0512 37.2454C67.884 37.162 67.6332 37.162 67.2988 37.162H59.9419V39.4957Z" fill="#F4511E"/>
    <path d="M82.9319 43.6637C81.5107 43.6637 80.2567 43.4137 79.2534 42.9969C78.2502 42.5802 77.3306 41.9134 76.5782 41.1633C75.9094 40.4966 75.4078 39.6631 75.0734 38.7463C74.739 37.8295 74.5718 36.9127 74.5718 35.8292C74.5718 34.6624 74.8226 33.5789 75.2406 32.6621C75.6586 31.6619 76.3274 30.8285 77.0798 30.0784C77.7486 29.4116 78.5846 28.9115 79.5878 28.5781C80.5074 28.2447 81.6779 27.9947 82.9319 27.9947H86.2759C87.5299 27.9947 88.7004 28.1614 89.62 28.5781C90.5396 28.9115 91.3756 29.4116 92.128 30.0784C92.8804 30.8285 93.5492 31.6619 93.9672 32.6621C94.3852 33.6622 94.636 34.7457 94.636 35.8292C94.636 36.8293 94.4688 37.8295 94.1344 38.7463C93.8 39.6631 93.2984 40.4132 92.6296 41.1633C91.8772 41.9134 91.0412 42.5802 89.9544 42.9969C88.9512 43.4137 87.6971 43.6637 86.2759 43.6637H82.9319ZM82.9319 32.162C82.1795 32.162 81.5943 32.2453 81.1763 32.412C80.6747 32.5787 80.3402 32.8288 80.0058 33.1621C79.6714 33.4955 79.337 33.9122 79.1698 34.4123C78.919 34.9124 78.8354 35.4125 78.8354 35.9126C78.8354 36.4126 78.919 36.8294 79.0862 37.2461C79.2534 37.6628 79.5042 38.0795 79.8386 38.4129C80.1731 38.7463 80.5911 39.0797 81.0927 39.3297C81.5943 39.5798 82.2631 39.6631 83.0155 39.6631H86.3595C87.1119 39.6631 87.6971 39.5798 88.2823 39.3297C88.784 39.0797 89.202 38.8296 89.5364 38.4129C89.8708 38.0795 90.1216 37.7462 90.2888 37.2461C90.456 36.8294 90.5396 36.3293 90.5396 35.9126C90.5396 35.4125 90.456 34.9124 90.2052 34.4123C89.9544 33.9122 89.7036 33.5789 89.3692 33.1621C89.0348 32.8288 88.6168 32.5787 88.1152 32.412C87.6135 32.2453 87.0283 32.162 86.3595 32.162H82.9319Z" fill="#F4511E"/>
    <path d="M104.584 43.6637C103.163 43.6637 101.909 43.4137 100.906 42.9969C99.9026 42.5802 98.983 41.9134 98.2305 41.1633C97.5617 40.4966 97.0601 39.6631 96.7257 38.7463C96.3913 37.8295 96.2241 36.9127 96.2241 35.8292C96.2241 34.6624 96.4749 33.5789 96.8929 32.6621C97.3109 31.6619 97.9797 30.8285 98.7322 30.0784C99.401 29.4116 100.237 28.9115 101.24 28.5781C102.16 28.2447 103.33 27.9947 104.584 27.9947H107.928C109.182 27.9947 110.353 28.1614 111.272 28.5781C112.192 28.9115 113.028 29.4116 113.78 30.0784C114.533 30.8285 115.202 31.6619 115.62 32.6621C116.038 33.6622 116.288 34.7457 116.288 35.8292C116.288 36.8293 116.121 37.8295 115.787 38.7463C115.452 39.6631 114.951 40.4132 114.282 41.1633C113.53 41.9134 112.694 42.5802 111.607 42.9969C110.604 43.4137 109.349 43.6637 107.928 43.6637H104.584ZM104.584 32.162C103.832 32.162 103.247 32.2453 102.829 32.412C102.327 32.5787 101.993 32.8288 101.658 33.1621C101.324 33.4955 100.989 33.9122 100.822 34.4123C100.571 34.9124 100.488 35.4125 100.488 35.9126C100.488 36.4126 100.571 36.8294 100.739 37.2461C100.906 37.6628 101.157 38.0795 101.491 38.4129C101.825 38.7463 102.243 39.0797 102.745 39.3297C103.247 39.5798 103.915 39.6631 104.668 39.6631H108.012C108.764 39.6631 109.349 39.5798 109.935 39.3297C110.436 39.0797 110.854 38.8296 111.189 38.4129C111.523 38.0795 111.774 37.7462 111.941 37.2461C112.108 36.8294 112.192 36.3293 112.192 35.9126C112.192 35.4125 112.108 34.9124 111.858 34.4123C111.607 33.9122 111.356 33.5789 111.022 33.1621C110.687 32.8288 110.269 32.5787 109.767 32.412C109.266 32.2453 108.681 32.162 108.012 32.162H104.584Z" fill="#F4511E"/>
    <path d="M122.559 34.4122L129.748 28.6613C129.999 28.4946 130.25 28.2446 130.417 27.9946H136.353C136.269 28.0779 136.269 28.1612 136.186 28.2446C136.102 28.3279 136.018 28.4113 135.935 28.4113L127.24 35.0789C127.157 35.1623 127.073 35.2456 127.073 35.329C127.073 35.4123 127.157 35.4957 127.24 35.579L136.52 43.0801C136.604 43.1635 136.771 43.2468 136.854 43.3301C136.938 43.4135 137.022 43.4968 137.105 43.6635H130.835C130.668 43.4968 130.417 43.2468 130.166 42.9968L122.642 36.6625V43.5802H118.379V27.8279H122.559V34.4122Z" fill="#F4511E"/>
    <path d="M143.794 32.1622C143.543 32.1622 143.293 32.1622 143.209 32.2456C143.042 32.3289 142.958 32.4123 142.875 32.4956C142.624 32.7456 142.54 32.9957 142.54 33.3291C142.54 33.6624 142.707 33.9125 142.958 34.1625C143.042 34.2459 143.125 34.3292 143.293 34.3292C143.46 34.3292 143.627 34.4125 143.878 34.4125H150.817C151.736 34.4125 152.489 34.5792 153.074 34.8293C153.659 35.0793 154.244 35.4127 154.662 35.8294C155.08 36.2461 155.415 36.7462 155.665 37.3296C155.916 37.9131 156 38.4965 156 39.0799C156 39.6633 155.916 40.1634 155.665 40.7468C155.415 41.2469 155.164 41.747 154.829 42.1637C154.411 42.6638 153.826 43.0805 153.241 43.3305C152.572 43.6639 151.82 43.7472 150.9 43.7472H138.694V39.7467H150.148C150.482 39.7467 150.733 39.7467 150.9 39.6633C151.067 39.58 151.235 39.4966 151.318 39.4133C151.485 39.2466 151.569 38.9965 151.569 38.6632C151.569 38.3298 151.485 38.0797 151.235 37.8297C151.151 37.7464 150.984 37.5797 150.817 37.5797C150.649 37.4963 150.399 37.4963 150.148 37.4963H143.711C142.624 37.4963 141.788 37.3296 141.119 37.0796C140.45 36.8296 139.948 36.4962 139.53 36.0794C139.112 35.6627 138.778 35.1627 138.527 34.5792C138.276 33.9958 138.193 33.4124 138.193 32.7456C138.193 32.0789 138.276 31.4955 138.527 30.9954C138.778 30.412 139.112 29.9119 139.53 29.4952C139.948 29.0784 140.45 28.7451 141.119 28.495C141.788 28.245 142.624 28.0783 143.627 28.0783H155.164V32.1622H143.794Z" fill="#F4511E"/>
    <path d="M42.8037 9.49229V5.99179C42.8037 4.15819 41.9677 2.49127 40.5465 1.32443C39.1253 0.157596 37.2861 -0.259127 35.5304 0.157601L7.18969 6.7419C3.17684 6.82524 0 10.1591 0 14.1596V54.5822C0 58.6662 3.34404 62 7.44049 62H37.1189C41.2153 62 44.5593 58.6662 44.5593 54.5822V14.243C44.5593 12.4094 43.8905 10.8258 42.8037 9.49229ZM36.032 2.24124C37.2025 1.9912 38.3729 2.24124 39.3761 2.99135C40.2957 3.74146 40.8809 4.82493 40.8809 6.07512V7.82538C39.7941 7.24196 38.5401 6.82525 37.2025 6.82525H16.3022L36.032 2.24124ZM17.4726 41.9137C16.0514 41.9137 14.9646 40.8302 14.9646 39.4133V39.33C14.881 37.9131 15.9678 36.7463 17.389 36.7463H17.4726C18.8938 36.7463 20.0642 37.9131 20.0642 39.4133C20.0642 40.7469 18.8938 41.9137 17.4726 41.9137ZM24.9967 45.1642C24.9131 44.9975 24.9131 44.8308 24.8295 44.6641L18.3086 30.0787C18.225 29.912 18.1414 29.8286 17.9742 29.7453C17.807 29.6619 17.6398 29.6619 17.4726 29.6619C17.3054 29.6619 17.1382 29.6619 17.0546 29.7453C16.8874 29.8286 16.8038 29.9953 16.7202 30.0787L10.2829 44.6641C10.1993 44.8308 10.1157 44.9975 10.0321 45.1642H4.68166C4.68166 45.0809 4.76526 44.9142 4.84886 44.8308C4.93246 44.7475 4.93246 44.5808 5.01606 44.4974L12.2894 28.4117C13.4598 26.7448 14.463 25.6613 17.3054 25.6613C19.479 25.4946 21.5691 26.5781 22.5723 28.4951L30.0128 44.4974C30.0964 44.5808 30.18 44.7475 30.18 44.8308C30.2636 44.9142 30.2636 45.0809 30.3472 45.1642H24.9967ZM35.9484 45.4142C35.8648 45.4142 35.7812 45.4142 35.6976 45.4142C34.4436 45.4142 33.4404 44.4974 33.4404 43.2472C33.4404 43.1639 33.4404 43.0806 33.4404 42.9972C33.4404 37.9131 33.4404 32.829 33.4404 27.745C33.3568 26.4948 34.36 25.4113 35.614 25.3279C36.7845 25.3279 37.7877 26.3281 37.7877 27.5783C37.7877 27.6616 37.7877 27.6616 37.7877 27.745C37.7877 30.3287 37.7877 32.8291 37.7877 35.4128C37.7877 37.9965 37.7877 40.4969 37.7877 43.0806C37.9549 44.2474 37.1189 45.3309 35.9484 45.4142Z" fill="#F4511E"/>
</svg>
