<svg width="157" height="35" viewBox="0 0 157 35" fill="none" xmlns="http://www.w3.org/2000/svg">
    <path d="M101.607 8.65886C101.686 8.57992 101.725 8.47649 101.725 8.34583C101.725 8.25328 101.707 8.17434 101.665 8.11445C101.625 8.05457 101.561 8.00013 101.473 7.95657C101.4 7.91846 101.321 7.89397 101.248 7.8858C101.163 7.87491 101.059 7.86947 100.934 7.86947H100.234V9.58164H100.688V8.95557H100.87L101.43 9.58436H102.005L101.312 8.84941C101.43 8.80041 101.534 8.7378 101.607 8.65886ZM101.196 8.50643C101.181 8.54182 101.153 8.56359 101.117 8.58537C101.089 8.60987 101.044 8.6262 100.986 8.63437C100.925 8.64525 100.864 8.65342 100.797 8.65342H100.688V8.17162H100.828C100.898 8.17162 100.956 8.17434 100.992 8.17706C101.038 8.1825 101.077 8.19339 101.111 8.20972C101.15 8.2315 101.184 8.25328 101.199 8.28322C101.211 8.31316 101.223 8.34855 101.223 8.38394C101.22 8.43021 101.208 8.47104 101.196 8.50643ZM102.328 7.55643C101.954 7.2189 101.5 7.05285 100.971 7.05285C100.441 7.05285 99.985 7.2189 99.6108 7.55643C99.2365 7.89124 99.0539 8.29411 99.0539 8.77319C99.0539 9.24411 99.2395 9.64969 99.6108 9.98451C99.982 10.322 100.438 10.4881 100.971 10.4881C101.5 10.4881 101.954 10.322 102.328 9.98451C102.702 9.64969 102.891 9.24411 102.891 8.77319C102.891 8.29411 102.702 7.89124 102.328 7.55643ZM102.03 9.72047C101.735 9.98451 101.382 10.1206 100.971 10.1206C100.557 10.1206 100.204 9.98178 99.912 9.72047C99.6229 9.4537 99.4738 9.14067 99.4738 8.77319C99.4738 8.40299 99.626 8.08451 99.912 7.81775C100.204 7.55371 100.557 7.42033 100.971 7.42033C101.382 7.42033 101.735 7.55371 102.03 7.81775C102.319 8.08451 102.468 8.40027 102.468 8.77319C102.468 9.13795 102.319 9.45098 102.03 9.72047ZM84.5496 19.9745L80.0677 8.57448H72.032L79.8273 25.8051H88.9949L96.848 8.57448H88.9675L84.5496 19.9745ZM18.4355 11.6096C18.4172 11.6041 18.399 11.5987 18.3807 11.5932C18.9162 11.3864 19.3361 11.2176 19.6313 11.0407C21.4173 9.94095 22.604 8.12262 22.604 6.03752C22.604 2.73295 19.6374 0.0517191 15.9496 0.0163323L16.3695 0.0136103L0 0.00544411V25.8051H13.4364C13.6889 25.8051 13.9384 25.7997 14.1879 25.7942H17.404L17.8239 25.786C22.2023 25.6472 25.0716 22.4352 25.0716 18.4855C25.0716 15.0503 22.0015 12.3962 18.4355 11.6096ZM7.83182 4.76088H11.6869C12.1707 4.77449 12.5997 4.83437 12.9891 4.94053C13.838 5.25085 14.4922 5.89598 14.7508 6.69898C14.8056 6.90042 14.833 7.09913 14.833 7.30056C14.833 7.79053 14.7448 8.22878 14.5804 8.61531C14.3827 8.9964 14.0875 9.32577 13.7224 9.58436C13.6007 9.65786 13.4547 9.73135 13.3056 9.79396C12.7731 10.0144 12.265 10.1369 11.769 10.1587C11.27 10.1832 11.0327 10.1941 9.79434 10.1941H7.83182V4.76088ZM15.2072 20.3746C14.4983 20.7856 13.6555 21.0252 12.7457 21.0333H12.7366H7.83182V14.6283H11.9881C12.2863 14.6283 12.5358 14.6365 12.6788 14.6365C13.4486 14.6528 14.051 14.7399 14.4922 14.8869C14.6048 14.9223 14.7204 14.9631 14.836 15.004C15.9679 15.5212 16.7438 16.5719 16.7438 17.7859C16.7438 18.8639 16.1322 19.8111 15.2072 20.3746ZM41.6054 8.61803L34.8355 16.3596V0H27.2227V25.8051H34.8324L38.1063 22.084L41.149 25.8051H49.8236L42.5091 17.0129L49.848 8.61803H41.6054ZM69.5188 9.2931C67.967 8.2805 64.1941 7.77692 60.8016 7.77692C59.4202 7.77692 58.0571 7.9103 56.6909 8.09812C54.9931 8.33494 53.0732 8.7868 51.8835 9.2305L54.0621 13.1775C55.5256 12.369 56.9039 11.9907 58.7599 11.7402C59.7701 11.6014 60.8563 11.5824 61.7996 11.6967C62.4568 11.7756 63.0744 11.9553 63.54 12.271C64.1637 12.6657 64.471 13.2836 64.471 14.1384V14.269C61.4436 14.3371 58.4313 14.4841 55.9303 15.1374C53.3501 15.8152 50.6573 17.8676 50.6573 20.5842C50.6573 23.6411 53.6391 26.1181 57.056 26.1181C57.1473 26.1181 57.9932 26.1317 57.9932 26.1317C60.2265 26.0174 62.6941 25.3587 64.4376 24.3025L65.7094 25.8296H71.8495V13.8281C71.8464 11.7511 71.0706 10.3057 69.5188 9.2931ZM64.4345 21.1041C64.4345 21.1041 62.8614 22.604 60.8442 22.604C60.7194 22.604 60.6099 22.5985 60.5034 22.5849C60.4486 22.5822 60.3999 22.5713 60.3482 22.5686C60.3178 22.5659 60.2813 22.5577 60.2508 22.555C59.0642 22.3454 58.1727 21.4117 58.1727 20.2902C58.1727 19.1742 59.0581 18.2432 60.2387 18.0309C60.26 18.0255 60.2813 18.02 60.3056 18.0119C61.3523 17.8023 64.4345 17.5464 64.4345 17.5464V21.1041Z" fill="#F05A22"/>
    <path d="M109.572 8.16614H108.755V26.1317H109.572V8.16614Z" fill="#868E96"/>
    <path d="M117.773 5.99288H126.004C128.786 5.99288 131.072 6.68837 132.864 8.07934C134.674 9.45125 135.579 11.3757 135.579 13.8528V18.1115C135.579 20.7029 134.702 22.6655 132.949 23.9993C131.196 25.3331 128.891 26 126.033 26H117.773C117.563 26 117.382 25.9238 117.229 25.7713C117.077 25.6189 117.001 25.4379 117.001 25.2283V6.76458C117.001 6.55499 117.077 6.37397 117.229 6.22153C117.382 6.0691 117.563 5.99288 117.773 5.99288ZM124.146 11.5663V20.4266H126.004C126.652 20.4266 127.166 20.236 127.547 19.855C127.948 19.4548 128.148 18.8737 128.148 18.1115V13.8528C128.148 12.3285 127.433 11.5663 126.004 11.5663H124.146ZM145.976 20.1408H153.893C154.103 20.1408 154.284 20.217 154.436 20.3694C154.588 20.5219 154.665 20.7029 154.665 20.9125V25.2283C154.665 25.4379 154.588 25.6189 154.436 25.7713C154.284 25.9238 154.103 26 153.893 26H139.488C139.278 26 139.097 25.9238 138.945 25.7713C138.792 25.6189 138.716 25.4379 138.716 25.2283V6.76458C138.716 6.55499 138.792 6.37397 138.945 6.22153C139.097 6.0691 139.278 5.99288 139.488 5.99288H145.204C145.414 5.99288 145.595 6.0691 145.747 6.22153C145.9 6.37397 145.976 6.55499 145.976 6.76458V20.1408Z" fill="#AEAEAE"/>
</svg>
