<svg width="16" height="16" viewBox="0 0 16 16" fill="none" xmlns="http://www.w3.org/2000/svg">
<path d="M7.99984 13.5999L7.74384 13.3119C7.58384 13.1519 3.83984 8.73592 3.83984 6.07992C3.83984 3.77592 5.69584 1.91992 7.99984 1.91992C10.3038 1.91992 12.1598 3.77592 12.1598 6.07992C12.1598 8.73592 8.41584 13.1519 8.25584 13.3439L7.99984 13.5999ZM7.99984 2.55992C6.04784 2.55992 4.47984 4.12792 4.47984 6.07992C4.47984 8.12792 7.16784 11.5839 7.99984 12.6079C8.83184 11.5839 11.5198 8.12792 11.5198 6.07992C11.5198 4.12792 9.95184 2.55992 7.99984 2.55992Z" fill="#FC0F03"/>
<path d="M8.00039 7.67998C7.10439 7.67998 6.40039 6.97598 6.40039 6.07998C6.40039 5.18398 7.10439 4.47998 8.00039 4.47998C8.89639 4.47998 9.60039 5.18398 9.60039 6.07998C9.60039 6.97598 8.89639 7.67998 8.00039 7.67998ZM8.00039 5.11998C7.45639 5.11998 7.04039 5.53598 7.04039 6.07998C7.04039 6.62398 7.45639 7.03998 8.00039 7.03998C8.54439 7.03998 8.96039 6.62398 8.96039 6.07998C8.96039 5.53598 8.54439 5.11998 8.00039 5.11998Z" fill="#FC0F03"/>
</svg>
