<svg width="23" height="26" viewBox="0 0 23 26" fill="none" xmlns="http://www.w3.org/2000/svg">
    <path d="M9.48884 15.6406C9.47917 15.6696 9.41871 15.6672 9.30748 15.6334C9.19624 15.5995 9.0439 15.5439 8.85045 15.4665L8.56027 15.3359C8.13467 15.1425 7.71391 14.9055 7.29799 14.625C7.23028 14.5766 7.03199 14.4243 6.70312 14.168C6.37426 13.9116 6.19048 13.7738 6.15179 13.7545C5.50372 14.7507 4.85565 15.6261 4.20759 16.3806C3.42411 17.2995 2.91629 17.8315 2.68415 17.9766C2.64546 17.9959 2.55115 18.0153 2.40123 18.0346C2.2513 18.0539 2.16183 18.0539 2.13281 18.0346C2.19085 17.9959 2.58743 17.551 3.32254 16.6998C3.52567 16.4676 3.93917 15.9115 4.56306 15.0312C5.18694 14.151 5.56659 13.5804 5.70201 13.3192C5.86644 13.029 6.1131 12.5526 6.44196 11.8901C6.77083 11.2275 6.94494 10.8527 6.96429 10.7656C6.8869 10.756 6.35491 10.9156 5.3683 11.2444C5.29092 11.2638 5.15792 11.3 4.96931 11.3532C4.78069 11.4064 4.61384 11.4524 4.46875 11.4911C4.32366 11.5298 4.24144 11.5539 4.2221 11.5636C4.20275 11.583 4.19308 11.6337 4.19308 11.716C4.19308 11.7982 4.18824 11.8441 4.17857 11.8538C4.13021 11.9505 3.98028 12.0231 3.72879 12.0714C3.50632 12.1391 3.27902 12.1391 3.04688 12.0714C2.87277 12.0327 2.73735 11.9312 2.64062 11.7667C2.60193 11.7087 2.57775 11.5975 2.56808 11.433C2.62612 11.4137 2.74461 11.3895 2.92355 11.3605C3.10249 11.3315 3.24516 11.3025 3.35156 11.2734C3.91257 11.1187 4.42039 10.9639 4.875 10.8092C5.84226 10.4706 6.33557 10.3013 6.35491 10.3013C6.45164 10.282 6.6596 10.1877 6.97879 10.0184C7.29799 9.84914 7.51079 9.74516 7.61719 9.70647C7.70424 9.67745 7.80822 9.63876 7.92913 9.5904C8.05004 9.54204 8.12016 9.51544 8.13951 9.5106C8.15885 9.50577 8.18787 9.50818 8.22656 9.51786C8.24591 9.63393 8.24107 9.79353 8.21205 9.99665C8.21205 10.016 8.1516 10.1466 8.03069 10.3884C7.90978 10.6302 7.78162 10.889 7.6462 11.1646C7.51079 11.4403 7.42857 11.6023 7.39955 11.6507C7.15774 12.1343 6.78534 12.7679 6.28237 13.5513L7.21094 13.9576C7.32701 14.0156 7.68731 14.1704 8.29185 14.4219C8.89639 14.6734 9.22284 14.8088 9.2712 14.8281C9.3099 14.8378 9.36068 14.9611 9.42355 15.1981C9.48642 15.4351 9.50818 15.5826 9.48884 15.6406ZM6.51451 8.58929C6.54353 8.73438 6.52418 8.86979 6.45647 8.99554C6.3404 9.21801 6.09859 9.40179 5.73103 9.54688C5.44085 9.66295 5.15067 9.72098 4.86049 9.72098C4.609 9.69196 4.37202 9.56622 4.14955 9.34375C4.01414 9.19866 3.92708 9.00037 3.88839 8.74888L3.9029 8.70536C3.93192 8.73438 4.02623 8.75856 4.18583 8.7779C4.34542 8.79725 4.47359 8.79725 4.57031 8.7779C4.66704 8.75856 4.94754 8.68118 5.41183 8.54576C5.76004 8.42969 6.02604 8.36198 6.20982 8.34263C6.37426 8.34263 6.47582 8.42485 6.51451 8.58929ZM16.6417 10.4609L17.5558 13.7545L15.5391 13.1451L16.6417 10.4609ZM0.565848 22.0681L10.635 18.702V3.72879L0.565848 7.10938V22.0681ZM18.5714 17.4688L20.0513 17.9185L17.4252 8.38616L15.9743 7.93638L12.8404 15.7132L14.3203 16.1629L14.9732 14.567L18.0346 15.51L18.5714 17.4688ZM11.2734 3.51116L19.5871 6.1808V0.667411L11.2734 3.51116ZM15.7857 22.7065L18.0781 22.8951L17.2946 25.2165L16.7143 24.2589C15.4568 25.0618 14.122 25.5841 12.7098 25.8259C12.1488 25.942 11.7087 26 11.3895 26H10.1708C9.40662 26 8.44178 25.8114 7.27623 25.4342C6.11068 25.0569 5.22321 24.6458 4.61384 24.2009C4.53646 24.1332 4.49777 24.0558 4.49777 23.9688C4.49777 23.8914 4.52195 23.8261 4.57031 23.7729C4.61868 23.7197 4.68155 23.6931 4.75893 23.6931C4.79762 23.6931 4.88467 23.7294 5.02009 23.8019C5.15551 23.8744 5.30301 23.9542 5.46261 24.0413C5.62221 24.1283 5.72135 24.1815 5.76004 24.2009C6.46615 24.5588 7.23754 24.8562 8.07422 25.0932C8.9109 25.3302 9.67262 25.4487 10.3594 25.4487C11.2783 25.4487 12.0859 25.3785 12.7824 25.2383C13.4788 25.098 14.2381 24.8538 15.0603 24.5056C15.2054 24.4379 15.3529 24.3629 15.5028 24.2807C15.6527 24.1985 15.8172 24.1066 15.9961 24.005C16.175 23.9035 16.3129 23.8237 16.4096 23.7656L15.7857 22.7065ZM22.2857 7.05134V22.7065L11.0558 19.1373C10.9204 19.1953 9.10677 19.8119 5.61496 20.9872C2.12314 22.1624 0.343378 22.75 0.27567 22.75C0.149926 22.75 0.062872 22.6871 0.0145089 22.5614C0.0145089 22.5517 0.00967262 22.5372 0 22.5179V6.87723C0.0290179 6.79018 0.0483631 6.74182 0.0580357 6.73214C0.106399 6.67411 0.203125 6.62091 0.348214 6.57254C1.38318 6.22433 2.10379 5.98251 2.51004 5.8471V0.27567L10.606 3.14844C10.6254 3.14844 11.4016 2.88244 12.9347 2.35045C14.4678 1.81845 15.9961 1.29371 17.5195 0.776228C19.043 0.258743 19.824 0 19.8627 0C20.0562 0 20.1529 0.101562 20.1529 0.304688V6.36942L22.2857 7.05134Z" fill="#238AD4"/>
</svg>
