<svg width="23" height="22" viewBox="0 0 23 22" fill="none" xmlns="http://www.w3.org/2000/svg">
    <path d="M9.04961 9.9999C8.87722 9.9999 8.71189 10.0684 8.58999 10.1903C8.46809 10.3122 8.39961 10.4775 8.39961 10.6499C8.39961 10.8223 8.46809 10.9876 8.58999 11.1095C8.71189 11.2314 8.87722 11.2999 9.04961 11.2999H11.3337C11.7406 10.8059 12.2138 10.3691 12.7377 9.9999H9.04961ZM5.79961 17.7999H9.96871C10.0974 18.2536 10.2677 18.6878 10.4796 19.0999H5.79961C4.76527 19.0999 3.77329 18.689 3.04189 17.9576C2.3105 17.2262 1.89961 16.2342 1.89961 15.1999V7.1815C1.51047 6.99692 1.18172 6.70566 0.951584 6.34159C0.721453 5.97752 0.599398 5.55561 0.59961 5.1249V3.1749C0.59961 1.9191 1.61881 0.899902 2.87461 0.899902H19.1246C20.3804 0.899902 21.3996 1.9191 21.3996 3.1749V5.1249C21.3996 6.0323 20.8679 6.8149 20.0996 7.1815V9.4799C19.6841 9.26731 19.2487 9.09619 18.7996 8.969V7.3999H3.19961V15.1999C3.19961 15.8895 3.47354 16.5508 3.96113 17.0384C4.44873 17.526 5.11005 17.7999 5.79961 17.7999ZM2.87461 2.1999C2.61602 2.1999 2.36803 2.30263 2.18518 2.48547C2.00233 2.66832 1.89961 2.91632 1.89961 3.1749V5.1249C1.89961 5.6631 2.33641 6.0999 2.87461 6.0999H19.1246C19.3832 6.0999 19.6312 5.99718 19.814 5.81433C19.9969 5.63148 20.0996 5.38349 20.0996 5.1249V3.1749C20.0996 2.91632 19.9969 2.66832 19.814 2.48547C19.6312 2.30263 19.3832 2.1999 19.1246 2.1999H2.87461ZM16.8496 21.6999C18.4011 21.6999 19.8891 21.0836 20.9862 19.9865C22.0833 18.8894 22.6996 17.4014 22.6996 15.8499C22.6996 14.2984 22.0833 12.8104 20.9862 11.7133C19.8891 10.6162 18.4011 9.9999 16.8496 9.9999C15.2981 9.9999 13.8101 10.6162 12.713 11.7133C11.6159 12.8104 10.9996 14.2984 10.9996 15.8499C10.9996 17.4014 11.6159 18.8894 12.713 19.9865C13.8101 21.0836 15.2981 21.6999 16.8496 21.6999ZM15.6848 13.3851L14.5187 14.5499H16.5246C17.4728 14.5499 18.3821 14.9266 19.0525 15.597C19.723 16.2674 20.0996 17.1768 20.0996 18.1249V18.4499C20.0996 18.6223 20.0311 18.7876 19.9092 18.9095C19.7873 19.0314 19.622 19.0999 19.4496 19.0999C19.2772 19.0999 19.1119 19.0314 18.99 18.9095C18.8681 18.7876 18.7996 18.6223 18.7996 18.4499V18.1249C18.7996 17.5215 18.5599 16.9429 18.1333 16.5162C17.7066 16.0896 17.128 15.8499 16.5246 15.8499H14.5187L15.6848 17.0147C15.8069 17.1368 15.8754 17.3023 15.8754 17.4749C15.8754 17.6475 15.8069 17.8131 15.6848 17.9351C15.5628 18.0572 15.3972 18.1257 15.2246 18.1257C15.052 18.1257 14.8865 18.0572 14.7644 17.9351L12.4868 15.6562C12.3658 15.5342 12.2981 15.3692 12.2986 15.1974C12.299 15.0256 12.3677 14.861 12.4894 14.7397L14.7644 12.4647C14.8865 12.3427 15.052 12.2741 15.2246 12.2741C15.3972 12.2741 15.5628 12.3427 15.6848 12.4647C15.8069 12.5868 15.8754 12.7523 15.8754 12.9249C15.8754 13.0975 15.8069 13.2631 15.6848 13.3851Z" fill="#238AD4"/>
</svg>
