<svg width="24" height="24" viewBox="0 0 24 24" fill="none" xmlns="http://www.w3.org/2000/svg">
    <path d="M12 22C17.5228 22 22 17.5228 22 12C22 6.47715 17.5228 2 12 2C6.47715 2 2 6.47715 2 12C2 17.5228 6.47715 22 12 22Z" stroke="black" stroke-opacity="0.4" stroke-width="2" stroke-linecap="round" stroke-linejoin="round"/>
    <path d="M17 12C17 12.5523 16.5735 13 16 13C15.4265 13 15 12.5523 15 12C15 11.4477 15.4265 11 16 11C16.5735 11 17 11.4477 17 12Z" fill="black" fill-opacity="0.4"/>
    <path d="M13 12C13 12.5523 12.5735 13 12 13C11.4265 13 11 12.5523 11 12C11 11.4477 11.4265 11 12 11C12.5735 11 13 11.4477 13 12Z" fill="black" fill-opacity="0.4"/>
    <path d="M9 12C9 12.5523 8.57353 13 8 13C7.42647 13 7 12.5523 7 12C7 11.4477 7.42647 11 8 11C8.57353 11 9 11.4477 9 12Z" fill="black" fill-opacity="0.4"/>
</svg>
