<svg width="18" height="18" viewBox="0 0 18 18" fill="none" xmlns="http://www.w3.org/2000/svg">
<path d="M9 0C7.21997 0 5.47991 0.527841 3.99987 1.51677C2.51983 2.50571 1.36628 3.91131 0.685088 5.55585C0.00389953 7.20038 -0.17433 9.00998 0.172936 10.7558C0.520203 12.5016 1.37737 14.1053 2.63604 15.364C3.89471 16.6226 5.49836 17.4798 7.24419 17.8271C8.99002 18.1743 10.7996 17.9961 12.4442 17.3149C14.0887 16.6337 15.4943 15.4802 16.4832 14.0001C17.4722 12.5201 18 10.78 18 9C18 6.61305 17.0518 4.32387 15.364 2.63604C13.6761 0.948211 11.387 0 9 0ZM9 16.875C7.44247 16.875 5.91992 16.4131 4.62489 15.5478C3.32985 14.6825 2.32049 13.4526 1.72445 12.0136C1.12841 10.5747 0.972461 8.99126 1.27632 7.46366C1.58018 5.93606 2.3302 4.53287 3.43154 3.43153C4.53288 2.33019 5.93607 1.58017 7.46367 1.27632C8.99127 0.972457 10.5747 1.12841 12.0136 1.72445C13.4526 2.32049 14.6825 3.32985 15.5478 4.62488C16.4131 5.91992 16.875 7.44247 16.875 9C16.875 11.0886 16.0453 13.0916 14.5685 14.5685C13.0916 16.0453 11.0886 16.875 9 16.875Z" fill="#F4511E"/>
<path d="M12.375 8.4375H5.625C5.47582 8.4375 5.33274 8.49676 5.22725 8.60225C5.12176 8.70774 5.0625 8.85082 5.0625 9C5.0625 9.14918 5.12176 9.29226 5.22725 9.39775C5.33274 9.50324 5.47582 9.5625 5.625 9.5625H12.375C12.5242 9.5625 12.6673 9.50324 12.7727 9.39775C12.8782 9.29226 12.9375 9.14918 12.9375 9C12.9375 8.85082 12.8782 8.70774 12.7727 8.60225C12.6673 8.49676 12.5242 8.4375 12.375 8.4375Z" fill="#F4511E"/>
</svg>
