<svg width="24" height="24" viewBox="0 0 24 24" fill="none" xmlns="http://www.w3.org/2000/svg">
    <path d="M1.5 3.5C1.5 3.10218 1.65804 2.72064 1.93934 2.43934C2.22064 2.15804 2.60218 2 3 2H21C21.3978 2 21.7794 2.15804 22.0607 2.43934C22.342 2.72064 22.5 3.10218 22.5 3.5H1.5ZM12 15.5C12.7956 15.5 13.5587 15.1839 14.1213 14.6213C14.6839 14.0587 15 13.2956 15 12.5C15 11.7044 14.6839 10.9413 14.1213 10.3787C13.5587 9.81607 12.7956 9.5 12 9.5C11.2044 9.5 10.4413 9.81607 9.87868 10.3787C9.31607 10.9413 9 11.7044 9 12.5C9 13.2956 9.31607 14.0587 9.87868 14.6213C10.4413 15.1839 11.2044 15.5 12 15.5Z" fill="white"/>
    <path d="M0 6.5C0 6.10218 0.158035 5.72064 0.43934 5.43934C0.720644 5.15804 1.10218 5 1.5 5H22.5C22.8978 5 23.2794 5.15804 23.5607 5.43934C23.842 5.72064 24 6.10218 24 6.5V18.5C24 18.8978 23.842 19.2794 23.5607 19.5607C23.2794 19.842 22.8978 20 22.5 20H1.5C1.10218 20 0.720644 19.842 0.43934 19.5607C0.158035 19.2794 0 18.8978 0 18.5V6.5ZM4.5 6.5C4.5 7.29565 4.18393 8.05871 3.62132 8.62132C3.05871 9.18393 2.29565 9.5 1.5 9.5V15.5C2.29565 15.5 3.05871 15.8161 3.62132 16.3787C4.18393 16.9413 4.5 17.7044 4.5 18.5H19.5C19.5 17.7044 19.8161 16.9413 20.3787 16.3787C20.9413 15.8161 21.7044 15.5 22.5 15.5V9.5C21.7044 9.5 20.9413 9.18393 20.3787 8.62132C19.8161 8.05871 19.5 7.29565 19.5 6.5H4.5Z" fill="white"/>
</svg>
