<svg width="24" height="23" viewBox="0 0 24 23" fill="none" xmlns="http://www.w3.org/2000/svg">
    <path d="M8.6355 0.606685C8.72002 0.657297 8.79374 0.724064 8.85245 0.803173C8.91116 0.882282 8.95371 0.972182 8.97767 1.06774C9.00163 1.16329 9.00652 1.26263 8.99208 1.36008C8.97764 1.45753 8.94414 1.55118 8.8935 1.63569L5.0745 8.00019H18.9255L15.105 1.63569C15.0028 1.46502 14.9725 1.26073 15.0209 1.06775C15.0693 0.874777 15.1923 0.708926 15.363 0.606685C15.5337 0.504444 15.738 0.474188 15.9309 0.522572C16.1239 0.570957 16.2898 0.694018 16.392 0.864685L20.6745 8.00019H22.5C22.8978 8.00019 23.2794 8.15822 23.5607 8.43953C23.842 8.72083 24 9.10236 24 9.50019V11.0002C24 11.398 23.842 11.7795 23.5607 12.0608C23.2794 12.3421 22.8978 12.5002 22.5 12.5002V19.2502C22.5 20.2447 22.1049 21.1986 21.4017 21.9018C20.6984 22.6051 19.7446 23.0002 18.75 23.0002H5.25C4.25544 23.0002 3.30161 22.6051 2.59835 21.9018C1.89509 21.1986 1.5 20.2447 1.5 19.2502V12.5002C1.10218 12.5002 0.720644 12.3421 0.43934 12.0608C0.158035 11.7795 0 11.398 0 11.0002V9.50019C0 9.10236 0.158035 8.72083 0.43934 8.43953C0.720644 8.15822 1.10218 8.00019 1.5 8.00019H3.3255L7.605 0.864685C7.65561 0.780166 7.72238 0.706446 7.80149 0.647736C7.8806 0.589026 7.9705 0.546477 8.06605 0.522518C8.16161 0.498559 8.26095 0.493661 8.3584 0.508103C8.45585 0.522544 8.5495 0.556043 8.634 0.606685H8.6355ZM3 12.5002V19.2502C3 19.8469 3.23705 20.4192 3.65901 20.8412C4.08097 21.2631 4.65326 21.5002 5.25 21.5002H18.75C19.3467 21.5002 19.919 21.2631 20.341 20.8412C20.7629 20.4192 21 19.8469 21 19.2502V12.5002H3ZM1.5 9.50019V11.0002H22.5V9.50019H1.5ZM6 14.0002C6.19891 14.0002 6.38968 14.0792 6.53033 14.2199C6.67098 14.3605 6.75 14.5513 6.75 14.7502V19.2502C6.75 19.4491 6.67098 19.6399 6.53033 19.7805C6.38968 19.9212 6.19891 20.0002 6 20.0002C5.80109 20.0002 5.61032 19.9212 5.46967 19.7805C5.32902 19.6399 5.25 19.4491 5.25 19.2502V14.7502C5.25 14.5513 5.32902 14.3605 5.46967 14.2199C5.61032 14.0792 5.80109 14.0002 6 14.0002ZM9 14.0002C9.19891 14.0002 9.38968 14.0792 9.53033 14.2199C9.67098 14.3605 9.75 14.5513 9.75 14.7502V19.2502C9.75 19.4491 9.67098 19.6399 9.53033 19.7805C9.38968 19.9212 9.19891 20.0002 9 20.0002C8.80109 20.0002 8.61032 19.9212 8.46967 19.7805C8.32902 19.6399 8.25 19.4491 8.25 19.2502V14.7502C8.25 14.5513 8.32902 14.3605 8.46967 14.2199C8.61032 14.0792 8.80109 14.0002 9 14.0002V14.0002ZM12 14.0002C12.1989 14.0002 12.3897 14.0792 12.5303 14.2199C12.671 14.3605 12.75 14.5513 12.75 14.7502V19.2502C12.75 19.4491 12.671 19.6399 12.5303 19.7805C12.3897 19.9212 12.1989 20.0002 12 20.0002C11.8011 20.0002 11.6103 19.9212 11.4697 19.7805C11.329 19.6399 11.25 19.4491 11.25 19.2502V14.7502C11.25 14.5513 11.329 14.3605 11.4697 14.2199C11.6103 14.0792 11.8011 14.0002 12 14.0002V14.0002ZM15 14.0002C15.1989 14.0002 15.3897 14.0792 15.5303 14.2199C15.671 14.3605 15.75 14.5513 15.75 14.7502V19.2502C15.75 19.4491 15.671 19.6399 15.5303 19.7805C15.3897 19.9212 15.1989 20.0002 15 20.0002C14.8011 20.0002 14.6103 19.9212 14.4697 19.7805C14.329 19.6399 14.25 19.4491 14.25 19.2502V14.7502C14.25 14.5513 14.329 14.3605 14.4697 14.2199C14.6103 14.0792 14.8011 14.0002 15 14.0002ZM18 14.0002C18.1989 14.0002 18.3897 14.0792 18.5303 14.2199C18.671 14.3605 18.75 14.5513 18.75 14.7502V19.2502C18.75 19.4491 18.671 19.6399 18.5303 19.7805C18.3897 19.9212 18.1989 20.0002 18 20.0002C17.8011 20.0002 17.6103 19.9212 17.4697 19.7805C17.329 19.6399 17.25 19.4491 17.25 19.2502V14.7502C17.25 14.5513 17.329 14.3605 17.4697 14.2199C17.6103 14.0792 17.8011 14.0002 18 14.0002Z" fill="white"/>
</svg>
