<svg width="24" height="18" viewBox="0 0 24 18" fill="none" xmlns="http://www.w3.org/2000/svg">
    <path d="M1.5 1.5C1.5 1.10218 1.65804 0.720644 1.93934 0.43934C2.22064 0.158035 2.60218 0 3 0H21C21.3978 0 21.7794 0.158035 22.0607 0.43934C22.342 0.720644 22.5 1.10218 22.5 1.5H1.5ZM12 13.5C12.7956 13.5 13.5587 13.1839 14.1213 12.6213C14.6839 12.0587 15 11.2956 15 10.5C15 9.70435 14.6839 8.94129 14.1213 8.37868C13.5587 7.81607 12.7956 7.5 12 7.5C11.2044 7.5 10.4413 7.81607 9.87868 8.37868C9.31607 8.94129 9 9.70435 9 10.5C9 11.2956 9.31607 12.0587 9.87868 12.6213C10.4413 13.1839 11.2044 13.5 12 13.5Z" fill="black" fill-opacity="0.6"/>
    <path d="M0 4.5C0 4.10218 0.158035 3.72064 0.43934 3.43934C0.720644 3.15804 1.10218 3 1.5 3H22.5C22.8978 3 23.2794 3.15804 23.5607 3.43934C23.842 3.72064 24 4.10218 24 4.5V16.5C24 16.8978 23.842 17.2794 23.5607 17.5607C23.2794 17.842 22.8978 18 22.5 18H1.5C1.10218 18 0.720644 17.842 0.43934 17.5607C0.158035 17.2794 0 16.8978 0 16.5V4.5ZM4.5 4.5C4.5 5.29565 4.18393 6.05871 3.62132 6.62132C3.05871 7.18393 2.29565 7.5 1.5 7.5V13.5C2.29565 13.5 3.05871 13.8161 3.62132 14.3787C4.18393 14.9413 4.5 15.7044 4.5 16.5H19.5C19.5 15.7044 19.8161 14.9413 20.3787 14.3787C20.9413 13.8161 21.7044 13.5 22.5 13.5V7.5C21.7044 7.5 20.9413 7.18393 20.3787 6.62132C19.8161 6.05871 19.5 5.29565 19.5 4.5H4.5Z" fill="black" fill-opacity="0.6"/>
</svg>