<svg width="32" height="32" viewBox="0 0 32 32" fill="none" xmlns="http://www.w3.org/2000/svg">
    <path d="M23.0769 6H12.8462C12.0709 6 11.3274 6.3151 10.7792 6.87597C10.231 7.43684 9.92308 8.19755 9.92308 8.99074C9.14783 8.99074 8.40433 9.30584 7.85615 9.86671C7.30797 10.4276 7 11.1883 7 11.9815V22.0093C7 22.8025 7.30797 23.5632 7.85615 24.124C8.40433 24.6849 9.14783 25 9.92308 25H20.1538C20.9291 25 21.6726 24.6849 22.2208 24.124C22.769 23.5632 23.0769 22.8025 23.0769 22.0093C23.8522 22.0093 24.5957 21.6942 25.1439 21.1333C25.692 20.5724 26 19.8117 26 19.0185V8.99074C26 8.19755 25.692 7.43684 25.1439 6.87597C24.5957 6.3151 23.8522 6 23.0769 6ZM23.0769 20.5139V11.9815C23.0769 11.1883 22.769 10.4276 22.2208 9.86671C21.6726 9.30584 20.9291 8.99074 20.1538 8.99074H11.3846C11.3846 8.59414 11.5386 8.21379 11.8127 7.93335C12.0868 7.65292 12.4585 7.49537 12.8462 7.49537H23.0769C23.4645 7.49537 23.8363 7.65292 24.1104 7.93335C24.3845 8.21379 24.5385 8.59414 24.5385 8.99074V19.0185C24.5385 19.4151 24.3845 19.7955 24.1104 20.0759C23.8363 20.3563 23.4645 20.5139 23.0769 20.5139ZM8.46154 11.9815C8.46154 11.5849 8.61552 11.2045 8.88961 10.9241C9.1637 10.6437 9.53545 10.4861 9.92308 10.4861H20.1538C20.5415 10.4861 20.9132 10.6437 21.1873 10.9241C21.4614 11.2045 21.6154 11.5849 21.6154 11.9815V22.0093C21.6154 22.4059 21.4614 22.7862 21.1873 23.0666C20.9132 23.3471 20.5415 23.5046 20.1538 23.5046H9.92308C9.53545 23.5046 9.1637 23.3471 8.88961 23.0666C8.61552 22.7862 8.46154 22.4059 8.46154 22.0093V11.9815Z" fill="white"/>
</svg>
