<svg width="18" height="18" viewBox="0 0 18 18" fill="none" xmlns="http://www.w3.org/2000/svg">
<path d="M7.65078 8.99995C7.53143 8.99995 7.41698 9.04736 7.33258 9.13175C7.24819 9.21614 7.20078 9.3306 7.20078 9.44995C7.20078 9.5693 7.24819 9.68376 7.33258 9.76815C7.41698 9.85254 7.53143 9.89995 7.65078 9.89995H9.23208C9.51378 9.55795 9.84138 9.25555 10.2041 8.99995H7.65078ZM5.40078 14.4H8.28708C8.37618 14.7141 8.49408 15.0147 8.64078 15.3H5.40078C4.6847 15.3 3.99794 15.0155 3.49159 14.5091C2.98525 14.0028 2.70078 13.316 2.70078 12.6V7.04875C2.43137 6.92096 2.20378 6.71932 2.04446 6.46727C1.88513 6.21523 1.80063 5.92313 1.80078 5.62495V4.27495C1.80078 3.40555 2.50638 2.69995 3.37578 2.69995H14.6258C15.4952 2.69995 16.2008 3.40555 16.2008 4.27495V5.62495C16.2008 6.25315 15.8327 6.79495 15.3008 7.04875V8.63995C15.0131 8.49278 14.7117 8.3743 14.4008 8.28625V7.19995H3.60078V12.6C3.60078 13.0773 3.79042 13.5352 4.12799 13.8727C4.46555 14.2103 4.92339 14.4 5.40078 14.4ZM3.37578 3.59995C3.19676 3.59995 3.02507 3.67107 2.89848 3.79765C2.7719 3.92424 2.70078 4.09593 2.70078 4.27495V5.62495C2.70078 5.99755 3.00318 6.29995 3.37578 6.29995H14.6258C14.8048 6.29995 14.9765 6.22884 15.1031 6.10225C15.2297 5.97566 15.3008 5.80397 15.3008 5.62495V4.27495C15.3008 4.09593 15.2297 3.92424 15.1031 3.79765C14.9765 3.67107 14.8048 3.59995 14.6258 3.59995H3.37578ZM13.0508 17.1C14.1249 17.1 15.155 16.6733 15.9146 15.9137C16.6741 15.1542 17.1008 14.1241 17.1008 13.05C17.1008 11.9758 16.6741 10.9457 15.9146 10.1862C15.155 9.42665 14.1249 8.99995 13.0508 8.99995C11.9767 8.99995 10.9465 9.42665 10.187 10.1862C9.42748 10.9457 9.00078 11.9758 9.00078 13.05C9.00078 14.1241 9.42748 15.1542 10.187 15.9137C10.9465 16.6733 11.9767 17.1 13.0508 17.1ZM12.2444 11.3436L11.4371 12.15H12.8258C13.4822 12.15 14.1117 12.4107 14.5759 12.8749C15.04 13.339 15.3008 13.9685 15.3008 14.625V14.85C15.3008 14.9693 15.2534 15.0838 15.169 15.1681C15.0846 15.2525 14.9701 15.3 14.8508 15.3C14.7314 15.3 14.617 15.2525 14.5326 15.1681C14.4482 15.0838 14.4008 14.9693 14.4008 14.85V14.625C14.4008 14.2072 14.2348 13.8066 13.9395 13.5113C13.6441 13.2159 13.2435 13.05 12.8258 13.05H11.4371L12.2444 13.8564C12.3289 13.9408 12.3764 14.0555 12.3764 14.175C12.3764 14.2944 12.3289 14.4091 12.2444 14.4936C12.1599 14.578 12.0453 14.6255 11.9258 14.6255C11.8063 14.6255 11.6917 14.578 11.6072 14.4936L10.0304 12.9159C9.94659 12.8314 9.89972 12.7172 9.90005 12.5982C9.90039 12.4793 9.94791 12.3653 10.0322 12.2814L11.6072 10.7064C11.6917 10.6219 11.8063 10.5744 11.9258 10.5744C12.0453 10.5744 12.1599 10.6219 12.2444 10.7064C12.3289 10.7908 12.3764 10.9055 12.3764 11.025C12.3764 11.1444 12.3289 11.2591 12.2444 11.3436Z" fill="#238AD4"/>
</svg>
