<svg width="24" height="18" viewBox="0 0 24 18" fill="none" xmlns="http://www.w3.org/2000/svg">
    <path d="M2.73553 2.73483V0.697972H0V17.3021H2.73548V7.01822C2.82019 3.71597 4.42064 2.67764 7.91602 3.00324V0.525144C5.39934 0.185909 3.70945 1.01016 2.73553 2.73483ZM13.0046 9.67285H23.9687C24.2921 4.15088 22.1193 0.529597 17.1262 0.429565C12.7656 0.429565 10.2875 3.55847 10.2875 7.93378V9.79786C10.2875 14.5224 12.9238 17.5705 17.2549 17.5705C20.9169 17.5705 23.1157 15.5336 23.748 12.7834H21.0457C20.5088 14.3313 19.2441 15.2946 17.3175 15.2946C14.8245 15.3458 12.9986 13.3739 13.0046 9.67285ZM21.2515 7.47366L13.0046 7.47413C13.0046 4.85264 14.615 2.70544 17.1446 2.70544C19.6228 2.70544 21.2515 4.83746 21.2515 7.47366Z" fill="#238AD4"/>
</svg>
