<svg width="16" height="16" viewBox="0 0 16 16" fill="none" xmlns="http://www.w3.org/2000/svg">
<g clip-path="url(#clip0_143_4991)">
<path d="M15.7916 4.41651C15.6527 4.08332 15.4859 3.81935 15.2914 3.62496L12.3747 0.708252C12.1804 0.513968 11.9165 0.34723 11.5831 0.208258C11.25 0.0694315 10.9443 0 10.6666 0H0.999916C0.722226 0 0.486057 0.0971603 0.29159 0.291627C0.0971238 0.485984 0 0.722117 0 0.999952V15C0 15.278 0.0971238 15.5141 0.29159 15.7085C0.486057 15.9028 0.722226 16 0.999916 16H15C15.2779 16 15.514 15.9028 15.7084 15.7085C15.9027 15.5141 15.9998 15.278 15.9998 15V5.33334C15.9998 5.05547 15.9304 4.74995 15.7916 4.41651ZM6.66666 1.66654C6.66666 1.57627 6.69968 1.4983 6.76568 1.43219C6.83161 1.36637 6.90976 1.33339 7.00003 1.33339H9.00012C9.09016 1.33339 9.16828 1.3663 9.23424 1.43219C9.30039 1.4983 9.33337 1.57627 9.33337 1.66654V4.99991C9.33337 5.09032 9.30017 5.1684 9.23424 5.2344C9.16828 5.30018 9.09016 5.3332 9.00012 5.3332H7.00003C6.90976 5.3332 6.83158 5.30029 6.76568 5.2344C6.69968 5.16829 6.66666 5.09032 6.66666 4.99991V1.66654ZM12.0001 14.6668H3.99988V10.6667H12.0001V14.6668ZM14.667 14.6668H13.3334H13.3331V10.3333C13.3331 10.0554 13.2359 9.81939 13.0416 9.62485C12.8472 9.43046 12.611 9.33319 12.3334 9.33319H3.66659C3.38879 9.33319 3.15262 9.43046 2.95815 9.62485C2.7638 9.81925 2.66656 10.0554 2.66656 10.3333V14.6668H1.33321V1.33325H2.66653V5.66664C2.66653 5.94447 2.76365 6.1805 2.95812 6.37496C3.15258 6.56932 3.38875 6.66659 3.66655 6.66659H9.66678C9.94443 6.66659 10.1808 6.56932 10.375 6.37496C10.5692 6.18061 10.6666 5.94447 10.6666 5.66664V1.33325C10.7707 1.33325 10.9061 1.36791 11.0729 1.43734C11.2397 1.50673 11.3577 1.57616 11.4272 1.6456L14.3544 4.57281C14.4238 4.64224 14.4933 4.76217 14.5627 4.93223C14.6323 5.10243 14.6669 5.23615 14.6669 5.33334V14.6668H14.667Z" fill="white"/>
</g>
<defs>
<clipPath id="clip0_143_4991">
<rect width="16" height="16" fill="white"/>
</clipPath>
</defs>
</svg>
