<svg width="26" height="26" viewBox="0 0 26 26" fill="none" xmlns="http://www.w3.org/2000/svg">
    <path d="M12.688 0C20.0421 0 26 5.8201 26 13C26 20.1799 20.0408 26 12.688 26C8.5397 26 4.7034 24.1319 2.197 21.0002C2.12674 20.9127 2.07478 20.812 2.0442 20.7041C2.01362 20.5961 2.00504 20.4832 2.01899 20.3718C2.03294 20.2605 2.06911 20.1531 2.12538 20.0561C2.18164 19.959 2.25683 19.8742 2.3465 19.8068C2.52934 19.6677 2.75916 19.6052 2.98726 19.6327C3.21537 19.6601 3.42384 19.7752 3.5685 19.9537C4.66496 21.3164 6.05422 22.4147 7.63318 23.167C9.21215 23.9194 10.9403 24.3065 12.6893 24.2996C19.0788 24.2996 24.2593 19.24 24.2593 13C24.2593 6.76 19.0788 1.7004 12.6893 1.7004C10.9652 1.69377 9.26122 2.0699 7.70015 2.80165C6.13908 3.5334 4.7599 4.60253 3.6621 5.9319C3.51515 6.10876 3.30506 6.22139 3.07643 6.24591C2.8478 6.27042 2.61861 6.20488 2.4375 6.0632C2.34861 5.9946 2.27443 5.90882 2.21938 5.81096C2.16432 5.7131 2.12951 5.60517 2.11701 5.49358C2.10452 5.382 2.1146 5.26904 2.14666 5.16143C2.17871 5.05382 2.23208 4.95376 2.3036 4.8672C4.8139 1.8122 8.5995 0 12.6893 0H12.688ZM13.3965 8.9206L16.9156 12.4397C17.2562 12.7803 17.2627 13.3237 16.9299 13.6565L13.494 17.095C13.4131 17.1741 13.3174 17.2365 13.2124 17.2787C13.1074 17.3208 12.9951 17.3418 12.882 17.3405C12.7688 17.3391 12.6571 17.3155 12.5531 17.2709C12.4491 17.2264 12.3549 17.1617 12.2759 17.0807C12.195 17.0016 12.1304 16.9074 12.086 16.8033C12.0415 16.6993 12.018 16.5875 12.0168 16.4743C12.0156 16.3612 12.0367 16.2489 12.0789 16.144C12.1212 16.039 12.1837 15.9434 12.2629 15.8626L14.274 13.8502L0.871 13.8515C0.757874 13.8529 0.645587 13.8319 0.540564 13.7899C0.435541 13.7478 0.339843 13.6854 0.258944 13.6063C0.178046 13.5273 0.113535 13.433 0.0691023 13.329C0.0246699 13.2249 0.00118795 13.1131 0 13C0 12.5307 0.39 12.1498 0.871 12.1498H14.2194L12.194 10.1231C12.1131 10.044 12.0485 9.94977 12.0041 9.84572C11.9596 9.74168 11.9361 9.62989 11.9349 9.51675C11.9337 9.40361 11.9548 9.29134 11.997 9.18637C12.0393 9.0814 12.1018 8.98578 12.181 8.905C12.3442 8.74597 12.5638 8.65816 12.7917 8.66085C13.0196 8.66353 13.2371 8.75647 13.3965 8.9193V8.9206Z" fill="#238AD4"/>
</svg>
