<svg width="24" height="24" viewBox="0 0 24 24" fill="none" xmlns="http://www.w3.org/2000/svg">
<path d="M14.2519 0.625C14.4239 0.625005 14.5915 0.679606 14.7305 0.780939C14.8695 0.882272 14.9727 1.02511 15.0254 1.18888L15.9191 3.966C16.2945 4.14962 16.6536 4.356 16.9965 4.58837L19.85 3.97413C20.0182 3.9382 20.1935 3.95661 20.3507 4.0267C20.5078 4.09679 20.6386 4.21494 20.7243 4.36413L22.9765 8.2625C23.0625 8.4116 23.0989 8.58417 23.0805 8.75531C23.0621 8.92646 22.9899 9.08733 22.8741 9.21475L20.916 11.376C20.9445 11.7904 20.9445 12.2063 20.916 12.6207L22.8741 14.7852C22.9899 14.9127 23.0621 15.0735 23.0805 15.2447C23.0989 15.4158 23.0625 15.5884 22.9765 15.7375L20.7243 19.6375C20.6383 19.7864 20.5074 19.9042 20.3503 19.974C20.1932 20.0438 20.0181 20.0619 19.85 20.0259L16.9965 19.4116C16.6553 19.6424 16.2945 19.8504 15.9208 20.034L15.0254 22.8111C14.9727 22.9749 14.8695 23.1177 14.7305 23.2191C14.5915 23.3204 14.4239 23.375 14.2519 23.375H9.74738C9.57536 23.375 9.40778 23.3204 9.26877 23.2191C9.12977 23.1177 9.02651 22.9749 8.97388 22.8111L8.08175 20.0356C7.70738 19.8526 7.34629 19.6435 7.00113 19.41L4.14925 20.0259C3.98101 20.0618 3.8057 20.0434 3.64859 19.9733C3.49148 19.9032 3.36067 19.7851 3.275 19.6359L1.02275 15.7375C0.936748 15.5884 0.900319 15.4158 0.918719 15.2447C0.937118 15.0735 1.00939 14.9127 1.12513 14.7852L3.08325 12.6207C3.05489 12.2074 3.05489 11.7926 3.08325 11.3793L1.12513 9.21475C1.00939 9.08733 0.937118 8.92646 0.918719 8.75531C0.900319 8.58417 0.936748 8.4116 1.02275 8.2625L3.275 4.3625C3.3609 4.21361 3.49182 4.0958 3.64891 4.02601C3.806 3.95622 3.98118 3.93806 4.14925 3.97413L7.00113 4.59C7.34563 4.35763 7.70638 4.148 8.08175 3.96438L8.9755 1.18888C9.02797 1.02563 9.13073 0.883178 9.26909 0.781894C9.40744 0.68061 9.57429 0.625692 9.74575 0.625H14.2503H14.2519ZM13.6571 2.25H10.3421L9.41913 5.12137L8.79675 5.42525C8.49079 5.57497 8.19544 5.74545 7.91275 5.9355L7.3375 6.3255L4.3865 5.6885L2.729 8.5615L4.75213 10.8008L4.70338 11.4897C4.68003 11.8295 4.68003 12.1705 4.70338 12.5103L4.75213 13.1992L2.72575 15.4385L4.38488 18.3115L7.33588 17.6761L7.91113 18.0645C8.19381 18.2545 8.48917 18.425 8.79513 18.5747L9.4175 18.8786L10.3421 21.75H13.6604L14.5866 18.877L15.2074 18.5747C15.513 18.4254 15.8078 18.2549 16.0898 18.0645L16.6634 17.6761L19.616 18.3115L21.2735 15.4385L19.2488 13.1992L19.2975 12.5103C19.3209 12.1699 19.3209 11.8284 19.2975 11.4881L19.2488 10.7991L21.2751 8.5615L19.616 5.6885L16.6634 6.32225L16.0898 5.9355C15.8079 5.74507 15.513 5.57457 15.2074 5.42525L14.5866 5.123L13.6588 2.25H13.6571ZM11.9996 7.125C13.2926 7.125 14.5325 7.63861 15.4468 8.55285C16.361 9.46709 16.8746 10.7071 16.8746 12C16.8746 13.2929 16.361 14.5329 15.4468 15.4471C14.5325 16.3614 13.2926 16.875 11.9996 16.875C10.7067 16.875 9.46672 16.3614 8.55248 15.4471C7.63824 14.5329 7.12463 13.2929 7.12463 12C7.12463 10.7071 7.63824 9.46709 8.55248 8.55285C9.46672 7.63861 10.7067 7.125 11.9996 7.125V7.125ZM11.9996 8.75C11.1377 8.75 10.311 9.09241 9.70153 9.7019C9.09204 10.3114 8.74963 11.138 8.74963 12C8.74963 12.862 9.09204 13.6886 9.70153 14.2981C10.311 14.9076 11.1377 15.25 11.9996 15.25C12.8616 15.25 13.6882 14.9076 14.2977 14.2981C14.9072 13.6886 15.2496 12.862 15.2496 12C15.2496 11.138 14.9072 10.3114 14.2977 9.7019C13.6882 9.09241 12.8616 8.75 11.9996 8.75V8.75Z" fill="#238AD4"/>
</svg>
