<svg width="16" height="12" viewBox="0 0 16 12" fill="none" xmlns="http://www.w3.org/2000/svg">
    <path d="M0.666992 3.33366H15.3337M2.00033 0.666992H14.0003C14.7367 0.666992 15.3337 1.26395 15.3337 2.00033V10.0003C15.3337 10.7367 14.7367 11.3337 14.0003 11.3337H2.00033C1.26395 11.3337 0.666992 10.7367 0.666992 10.0003V2.00033C0.666992 1.26395 1.26395 0.666992 2.00033 0.666992Z" stroke="black" stroke-opacity="0.8" stroke-linecap="round" stroke-linejoin="round"/>
    <path d="M4.74649 5.33301V9.33301H3.80951V5.33301H4.74649ZM5.9157 5.33301V6.07751H2.66699V5.33301H5.9157Z" fill="black" fill-opacity="0.8"/>
    <path d="M7.85351 6.17367L6.90585 9.33301H5.89947L7.32763 5.33301H7.96562L7.85351 6.17367ZM8.63832 9.33301L7.688 6.17367L7.56521 5.33301H8.21121L9.64737 9.33301H8.63832ZM8.60095 7.84125V8.58576H6.60688V7.84125H8.60095Z" fill="black" fill-opacity="0.8"/>
    <path d="M10.9659 5.33301L11.6012 6.66268L12.2365 5.33301H13.3043L12.2205 7.31652L13.3337 9.33301H12.2552L11.6012 7.97861L10.9472 9.33301H9.86605L10.9819 7.31652L9.89542 5.33301H10.9659Z" fill="black" fill-opacity="0.8"/>
</svg>
