<svg width="30" height="30" viewBox="0 0 30 30" fill="none" xmlns="http://www.w3.org/2000/svg">
<circle cx="15" cy="15" r="15" fill="white"/>
<circle cx="15" cy="15" r="14.75" stroke="#FFA000" stroke-opacity="0.6" stroke-width="0.5"/>
<path d="M6.42225 18.9727L11.4493 23.9998L10.7933 24.6558L5.76624 19.6287L6.42225 18.9727ZM8.0381 17.3568L8.58362 17.9024L4.69936 21.7866L4.15384 21.2411L8.0381 17.3568ZM10.6967 14.6983L15.7237 19.7254L15.0677 20.3814L10.0406 15.3543L10.6967 14.6983ZM12.3125 13.0824L12.858 13.628L8.97377 17.5122L8.42825 16.9667L12.3125 13.0824ZM14.9642 10.3755L20.0189 15.4303L19.3801 16.069L15.123 11.8119L14.3047 13.5693L13.7281 12.9927L14.864 10.4757L14.9642 10.3755ZM21.9454 9.56071L20.6024 10.9038L20.0603 10.3617L21.4034 9.01865C21.6635 8.75854 21.8327 8.5065 21.9109 8.26251C21.9892 8.01852 21.9915 7.78604 21.9178 7.56507C21.8465 7.3418 21.7164 7.13579 21.5277 6.94704C21.355 6.77441 21.1548 6.65011 20.9269 6.57416C20.7013 6.4959 20.462 6.49129 20.2088 6.56034C19.9533 6.6271 19.6955 6.79052 19.4354 7.05062L18.2476 8.23834L22.7292 12.7199L22.0628 13.3863L17.0358 8.35919L18.8898 6.5051C19.2696 6.12531 19.6563 5.86981 20.0499 5.73861C20.4435 5.60741 20.8245 5.59014 21.1928 5.68682C21.5588 5.78119 21.8902 5.97684 22.1871 6.27377C22.5094 6.59602 22.7165 6.93899 22.8086 7.30267C22.9007 7.66635 22.8754 8.03924 22.7327 8.42133C22.5876 8.80113 22.3252 9.18092 21.9454 9.56071Z" fill="#FFA000"/>
</svg>
