<svg width="32" height="32" viewBox="0 0 32 32" fill="none" xmlns="http://www.w3.org/2000/svg">
    <rect x="1" y="1" width="30" height="30" rx="15" fill="white"/>
    <path fill-rule="evenodd" clip-rule="evenodd" d="M24 20.5556C24 20.9386 23.8468 21.306 23.574 21.5769C23.3012 21.8478 22.9312 22 22.5455 22H9.45455C9.06878 22 8.69881 21.8478 8.42603 21.5769C8.15325 21.306 8 20.9386 8 20.5556V12.6111C8 12.228 8.15325 11.8606 8.42603 11.5897C8.69881 11.3188 9.06878 11.1667 9.45455 11.1667H12.3636L13.8182 9H18.1818L19.6364 11.1667H22.5455C22.9312 11.1667 23.3012 11.3188 23.574 11.5897C23.8468 11.8606 24 12.228 24 12.6111V20.5556ZM16 19.1111C17.6066 19.1111 18.9091 17.8177 18.9091 16.2222C18.9091 14.6267 17.6066 13.3333 16 13.3333C14.3934 13.3333 13.0909 14.6267 13.0909 16.2222C13.0909 17.8177 14.3934 19.1111 16 19.1111Z" fill="#F4511E"/>
    <rect x="1" y="1" width="30" height="30" rx="15" stroke="#F4511E" stroke-width="2"/>
</svg>
