<svg width="16" height="16" viewBox="0 0 16 16" fill="none" xmlns="http://www.w3.org/2000/svg">
    <path d="M3.33333 3.33329H4.66667V5.33329H11.3333V3.33329H12.6667V6.66663H14V1.99996H9.88C9.6 1.22663 8.86667 0.666626 8 0.666626C7.13333 0.666626 6.4 1.22663 6.12 1.99996H2V14H7.33333V12.6666H3.33333V3.33329ZM8 1.99996C8.36667 1.99996 8.66667 2.29996 8.66667 2.66663C8.66667 3.03329 8.36667 3.33329 8 3.33329C7.63333 3.33329 7.33333 3.03329 7.33333 2.66663C7.33333 2.29996 7.63333 1.99996 8 1.99996Z" fill="#FC0F03"/>
    <path d="M14.0007 7.66663L10.3407 11.3333L8.33398 9.33329L7.33398 10.3333L10.3407 13.3333L15.0007 8.66663L14.0007 7.66663Z" fill="#FC0F03"/>
</svg>
