<svg width="36" height="36" viewBox="0 0 36 36" fill="none" xmlns="http://www.w3.org/2000/svg">
    <rect width="36" height="36" rx="12" fill="#EDFEE8"/>
    <path fill-rule="evenodd" clip-rule="evenodd" d="M20.714 14C20.32 14 20 13.619 20 13.15V9.978L23.742 14H20.714ZM21 24H15C14.448 24 14 23.552 14 23C14 22.448 14.448 22 15 22H21C21.553 22 22 22.448 22 23C22 23.552 21.553 24 21 24ZM15 18H18C18.552 18 19 18.448 19 19C19 19.552 18.552 20 18 20H15C14.448 20 14 19.552 14 19C14 18.448 14.448 18 15 18ZM25.74 13.328L21.296 8.328C21.107 8.119 20.838 8 20.556 8H12.556C11.147 8 10 9.122 10 10.5V25.5C10 26.878 11.147 28 12.556 28H23.444C24.854 28 26 26.878 26 25.5V14C26 13.751 25.907 13.512 25.74 13.328Z" fill="#04D916"/>
</svg>