<svg width="16" height="16" viewBox="0 0 16 16" fill="none" xmlns="http://www.w3.org/2000/svg">
<path d="M10.9983 4.5H13.0463C13.1702 4.50012 13.2896 4.54622 13.3814 4.62936C13.4732 4.71249 13.5309 4.82675 13.5433 4.95L13.8483 8H12.8423L12.5923 5.5H10.9983V7C10.9983 7.13261 10.9456 7.25979 10.8518 7.35355C10.7581 7.44732 10.6309 7.5 10.4983 7.5C10.3657 7.5 10.2385 7.44732 10.1447 7.35355C10.051 7.25979 9.99829 7.13261 9.99829 7V5.5H5.99829V7C5.99829 7.13261 5.94561 7.25979 5.85184 7.35355C5.75807 7.44732 5.6309 7.5 5.49829 7.5C5.36568 7.5 5.2385 7.44732 5.14473 7.35355C5.05097 7.25979 4.99829 7.13261 4.99829 7V5.5H3.40329L2.60329 13.5H7.99829V14.5H2.05029C1.98045 14.4999 1.9114 14.4852 1.84759 14.4569C1.78378 14.4285 1.72663 14.387 1.67981 14.3352C1.63298 14.2834 1.59754 14.2224 1.57574 14.156C1.55395 14.0897 1.5463 14.0195 1.55329 13.95L2.45329 4.95C2.46567 4.82675 2.52337 4.71249 2.61519 4.62936C2.70701 4.54622 2.82642 4.50012 2.95029 4.5H4.99829V4.151C4.99829 2.417 6.33429 1 7.99829 1C9.66229 1 10.9983 2.417 10.9983 4.151V4.501V4.5ZM9.99829 4.5V4.151C9.99829 2.957 9.09629 2 7.99829 2C6.90029 2 5.99829 2.957 5.99829 4.151V4.501H9.99829V4.5ZM13.1453 12.06L11.9983 10.914V14.5C11.9983 14.6326 11.9456 14.7598 11.8518 14.8536C11.7581 14.9473 11.6309 15 11.4983 15C11.3657 15 11.2385 14.9473 11.1447 14.8536C11.051 14.7598 10.9983 14.6326 10.9983 14.5V10.914L9.85229 12.06C9.80616 12.1078 9.75099 12.1458 9.68999 12.1721C9.62899 12.1983 9.56338 12.212 9.49699 12.2126C9.4306 12.2132 9.36476 12.2006 9.30331 12.1754C9.24186 12.1503 9.18604 12.1131 9.13909 12.0662C9.09214 12.0193 9.05502 11.9634 9.02988 11.902C9.00474 11.8405 8.99209 11.7747 8.99266 11.7083C8.99324 11.6419 9.00703 11.5763 9.03324 11.5153C9.05944 11.4543 9.09753 11.3991 9.14529 11.353L11.1453 9.353C11.2391 9.25926 11.3662 9.20661 11.4988 9.20661C11.6314 9.20661 11.7585 9.25926 11.8523 9.353L13.8523 11.353C13.9 11.3991 13.9381 11.4543 13.9643 11.5153C13.9905 11.5763 14.0043 11.6419 14.0049 11.7083C14.0055 11.7747 13.9928 11.8405 13.9677 11.902C13.9426 11.9634 13.9054 12.0193 13.8585 12.0662C13.8115 12.1131 13.7557 12.1503 13.6943 12.1754C13.6328 12.2006 13.567 12.2132 13.5006 12.2126C13.4342 12.212 13.3686 12.1983 13.3076 12.1721C13.2466 12.1458 13.1914 12.1078 13.1453 12.06Z" fill="#FC0F03"/>
</svg>
