<svg width="32" height="33" viewBox="0 0 32 33" fill="none" xmlns="http://www.w3.org/2000/svg">
    <path d="M16.0001 6.66503C18.0708 6.66609 20.0822 7.35647 21.717 8.62724L26.5698 4.00965C23.3945 1.20899 19.2383 -0.218861 15.0119 0.0390029C10.7855 0.296866 6.83376 2.21941 4.02257 5.38533C3.18893 6.36473 2.473 7.43848 1.88943 8.58458L7.28627 12.8502C7.93056 11.0512 9.11172 9.4933 10.6701 8.38713C12.2285 7.28096 14.089 6.67984 16.0001 6.66503Z" fill="#F44336"/>
    <path d="M31.8598 18.0013C32.0989 16.225 32.0267 14.4207 31.6465 12.6692H15.9999V19.3343H24.6498C23.9512 21.1346 22.7195 22.6786 21.1194 23.7599L26.5269 28.0256C29.4707 25.4486 31.3679 21.8823 31.8598 18.0013Z" fill="#2196F3"/>
    <path d="M6.66753 15.996C6.67171 14.9042 6.86662 13.8215 7.24348 12.7968L1.84664 8.5311C0.643463 10.8164 0.0147247 13.3601 0.0147247 15.9427C0.0147247 18.5253 0.643463 21.069 1.84664 23.3543L7.24348 19.0886C6.87962 18.0973 6.68493 17.0519 6.66753 15.996Z" fill="#FFC107"/>
    <path d="M16.0002 25.3277C14.0732 25.3227 12.1948 24.7228 10.6217 23.61C9.04862 22.4971 7.85768 20.9257 7.21169 19.1104L1.80418 23.3761C2.92234 25.5252 4.51406 27.3922 6.45924 28.8364C8.40442 30.2806 10.6523 31.2642 13.0331 31.713C15.414 32.1618 17.8657 32.0641 20.2033 31.4271C22.5409 30.7902 24.7033 29.6308 26.5273 28.0363L21.1197 23.7707C19.6068 24.7887 17.8239 25.3309 16.0002 25.3277Z" fill="#00B060"/>
    <path opacity="0.1" d="M16 31.6517C13.777 31.6666 11.5739 31.2321 9.52298 30.3744C7.47206 29.5166 5.61562 28.2533 4.06512 26.6602C6.87644 29.8123 10.8202 31.7248 15.0361 31.9806C19.252 32.2363 23.398 30.8145 26.5697 28.0254C27.0173 27.624 27.4445 27.2004 27.8496 26.7561C26.3011 28.3215 24.4549 29.5612 22.4198 30.4019C20.3847 31.2427 18.2019 31.6676 16 31.6517Z" fill="black"/>
    <path opacity="0.1" d="M15.9999 18.9929V19.3235H24.6498L24.7778 18.9929H15.9999Z" fill="black"/>
    <path opacity="0.2" d="M15.9999 12.6586V12.9999H31.7105L31.6465 12.6586H15.9999Z" fill="white"/>
    <path d="M31.6466 12.6583H16V19.3234H24.6392C23.9766 21.0445 22.8182 22.5304 21.3106 23.593C19.803 24.6555 18.0141 25.247 16.1702 25.2926C14.3262 25.3382 12.5102 24.8358 10.952 23.849C9.39374 22.8623 8.16331 21.4354 7.41641 19.7492C6.66951 18.0629 6.43972 16.193 6.75613 14.3761C7.07254 12.5592 7.92091 10.8771 9.19389 9.54245C10.4669 8.20785 12.1072 7.28083 13.9073 6.87874C15.7074 6.47664 17.5864 6.61754 19.3064 7.28359C19.923 7.52352 20.5129 7.82732 21.0662 8.19004C21.2902 8.32868 21.5142 8.46731 21.7275 8.62728L26.5591 4.00969L26.4524 3.92438C23.5902 1.46905 19.9484 0.110702 16.1771 0.0918134C12.4059 0.072925 8.75066 1.39473 5.86398 3.82126C2.9773 6.24779 1.04706 9.62111 0.417838 13.339C-0.211383 17.0569 0.501374 20.8774 2.42887 24.1185C4.35637 27.3595 7.37314 29.8102 10.9406 31.0329C14.5081 32.2557 18.3942 32.171 21.905 30.794C25.4158 29.4169 28.3229 26.8371 30.1073 23.5152C31.8917 20.1932 32.4373 16.3453 31.6466 12.6583Z" fill="url(#paint0_linear_2163_954)"/>
    <path opacity="0.1" d="M21.0552 7.8487C19.6506 6.92665 18.0221 6.4028 16.3433 6.33293C14.6644 6.26305 12.998 6.64977 11.5216 7.4519C10.0452 8.25403 8.81395 9.44153 7.95911 10.8879C7.10426 12.3343 6.65778 13.9855 6.66721 15.6655V15.8148C6.69216 14.1511 7.16362 12.5246 8.03233 11.1054C8.90104 9.68614 10.1351 8.52629 11.6055 7.74706C13.0759 6.96783 14.7286 6.59783 16.391 6.67574C18.0533 6.75365 19.6642 7.27661 21.0552 8.18995C21.2792 8.32858 21.5032 8.46722 21.7165 8.62718L26.5587 3.99893L21.7165 8.2646C21.5032 8.13663 21.3325 7.99799 21.0552 7.8487Z" fill="black"/>
    <path opacity="0.2" d="M16 0.330755C19.8069 0.332708 23.4863 1.70281 26.367 4.19118L26.5697 3.99923L26.4204 3.87126C24.0988 1.87874 21.2545 0.59361 18.2246 0.16823C15.1948 -0.25715 12.1065 0.19506 9.32583 1.47125C6.5452 2.74744 4.18888 4.79408 2.53622 7.36853C0.883559 9.94299 0.00387112 12.9373 0.00144958 15.9964C0.00144958 16.0497 0.00144958 16.1031 0.00144958 16.1564C0.0463954 11.9435 1.75177 7.91854 4.74722 4.95546C7.74267 1.99239 11.7863 0.330516 16 0.330755Z" fill="white"/>
    <defs>
        <linearGradient id="paint0_linear_2163_954" x1="0.301416" y1="17.8155" x2="32.3727" y2="17.8155" gradientUnits="userSpaceOnUse">
            <stop stop-color="white" stop-opacity="0.2"/>
            <stop offset="1" stop-color="white" stop-opacity="0"/>
        </linearGradient>
    </defs>
</svg>
