<svg width="16" height="17" viewBox="0 0 16 17" fill="none" xmlns="http://www.w3.org/2000/svg">
    <path d="M3.99902 1.52502H11.999C13.932 1.52502 15.499 3.09203 15.499 5.02502V12.025C15.499 13.958 13.932 15.525 11.999 15.525H3.99902C2.06603 15.525 0.499023 13.958 0.499023 12.025V5.02502C0.499023 3.09203 2.06603 1.52502 3.99902 1.52502Z" fill="white" stroke="#F15B25"/>
    <path d="M11.999 1.52502H3.99902C2.06603 1.52502 0.499023 3.09203 0.499023 5.02502V12.025C0.499023 13.958 2.06603 15.525 3.99902 15.525H11.999C13.932 15.525 15.499 13.958 15.499 12.025V5.02502C15.499 3.09203 13.932 1.52502 11.999 1.52502Z" stroke="#F15B25"/>
    <path d="M0.79303 7.58502H15.205" stroke="#F15B25"/>
    <path d="M5.34503 0V3.034" stroke="#F15B25"/>
    <path d="M10.654 0V3.034" stroke="#F15B25"/>
</svg>
