<svg width="120" height="120" viewBox="0 0 120 120" fill="none" xmlns="http://www.w3.org/2000/svg">
    <path d="M44.4 86.28V82.08V73.2H75.6V82.8V86.28C75.6 91.08 81.24 92.52 84.12 93.24C90 94.8 99.6 97.2 105.72 98.88C114.6 88.44 120 74.88 120 60C120 26.88 93.12 0 60 0C26.88 0 0 26.88 0 60C0 74.76 5.4 88.32 14.28 98.88C20.4 97.2 30 94.8 35.88 93.24C38.76 92.52 44.4 91.08 44.4 86.28Z" fill="#CECECE"/>
    <path d="M105.72 98.88C99.6 97.2 90 94.8 84.12 93.24C81.24 92.52 75.6 91.08 75.6 86.28V82.8C70.92 89.52 64.68 92.04 60.6 92.28H59.88C55.68 92.04 49.2 89.28 44.4 82.08V86.28C44.4 91.08 38.76 92.52 35.88 93.24C30 94.8 20.4 97.2 14.28 98.88C25.32 111.72 41.64 120 60 120C78.36 120 94.68 111.72 105.72 98.88Z" fill="#F2F2F2"/>
    <path d="M44.3999 73.2V82.08C49.1999 89.28 55.6799 92.04 59.8799 92.28H60.5999C64.6799 92.04 70.9199 89.52 75.5999 82.8V73.2H44.3999Z" fill="#D3D3D3"/>
    <path d="M59.52 19.2C82.44 19.2 84.36 35.76 84.48 37.32C85.8 51.6 80.88 71.04 76.32 77.76C72.72 83.4 66.72 87 60.12 87.72H59.52C52.8 87 46.92 83.28 43.2 77.64C38.64 70.92 33.72 51.48 35.04 37.08C35.16 35.64 36.6 19.2 59.52 19.2Z" fill="#F2F2F2"/>
</svg>

